M48
; DRILL file {KiCad 8.0.5} date 2024-11-26T19:37:29+0200
; FORMAT={-:-/ absolute / metric / decimal}
; #@! TF.CreationDate,2024-11-26T19:37:29+02:00
; #@! TF.GenerationSoftware,Kicad,Pcbnew,8.0.5
; #@! TF.FileFunction,Plated,1,4,PTH
FMAT,2
METRIC
; #@! TA.AperFunction,Plated,PTH,ComponentDrill
T1C0.700
; #@! TA.AperFunction,Plated,PTH,ComponentDrill
T2C0.787
; #@! TA.AperFunction,Plated,PTH,ComponentDrill
T3C0.800
; #@! TA.AperFunction,Plated,PTH,ComponentDrill
T4C0.900
; #@! TA.AperFunction,Plated,PTH,ComponentDrill
T5C1.000
; #@! TA.AperFunction,Plated,PTH,ComponentDrill
T6C1.100
; #@! TA.AperFunction,Plated,PTH,ComponentDrill
T7C1.200
; #@! TA.AperFunction,Plated,PTH,ComponentDrill
T8C1.300
; #@! TA.AperFunction,Plated,PTH,ComponentDrill
T9C1.400
; #@! TA.AperFunction,Plated,PTH,ComponentDrill
T10C1.500
; #@! TA.AperFunction,Plated,PTH,ComponentDrill
T11C2.400
%
G90
G05
T1
X175.42Y-35.0
X175.42Y-37.5
X175.42Y-51.5
X175.42Y-54.0
X194.92Y-35.0
X194.92Y-37.5
X194.92Y-52.0
X194.92Y-54.5
T2
X181.19Y-35.88
X181.19Y-38.42
X181.19Y-40.96
X181.19Y-43.5
X181.19Y-46.04
X181.19Y-48.58
X181.19Y-51.12
X188.81Y-35.88
X188.81Y-38.42
X188.81Y-40.96
X188.81Y-43.5
X188.81Y-46.04
X188.81Y-48.58
X188.81Y-51.12
T3
X142.0Y-69.84
X142.0Y-80.0
X147.0Y-69.84
X147.0Y-80.0
X152.0Y-69.84
X152.0Y-80.0
X156.34Y-45.0
X156.34Y-61.5
X157.0Y-69.84
X157.0Y-80.0
X158.88Y-45.0
X158.88Y-61.5
X161.42Y-34.5
X161.42Y-38.5
X161.42Y-45.0
X161.42Y-51.525
X161.42Y-55.5
X161.42Y-61.5
X165.76Y-44.5
X165.92Y-61.0
X170.0Y-111.38
X170.0Y-119.0
X171.0Y-69.92
X171.0Y-80.08
X171.58Y-34.5
X171.58Y-38.5
X171.58Y-51.525
X171.58Y-55.5
X172.54Y-111.38
X172.54Y-119.0
X175.0Y-69.84
X175.0Y-80.0
X175.08Y-111.38
X175.08Y-119.0
X175.92Y-44.5
X176.08Y-61.0
X177.62Y-111.38
X177.62Y-119.0
X179.0Y-69.84
X179.0Y-80.0
X183.0Y-69.84
X183.0Y-80.0
X192.0Y-69.84
X192.0Y-80.0
X194.92Y-44.0
X194.92Y-61.0
X196.0Y-69.84
X196.0Y-80.0
X196.0Y-97.38
X196.0Y-105.0
X198.54Y-97.38
X198.54Y-105.0
X198.92Y-34.5
X198.92Y-38.5
X198.92Y-51.5
X198.92Y-55.5
X200.0Y-69.84
X200.0Y-80.0
X201.08Y-97.38
X201.08Y-105.0
X203.62Y-97.38
X203.62Y-105.0
X204.0Y-69.84
X204.0Y-80.0
X205.08Y-44.0
X205.08Y-61.0
X208.0Y-69.84
X208.0Y-80.0
X209.08Y-34.5
X209.08Y-38.5
X209.08Y-45.0
X209.08Y-51.5
X209.08Y-55.5
X209.08Y-62.0
X211.62Y-45.0
X211.62Y-62.0
X212.0Y-69.84
X212.0Y-80.0
X214.16Y-45.0
X214.16Y-62.0
X216.0Y-69.84
X216.0Y-80.0
X220.0Y-69.84
X220.0Y-80.0
T4
X93.0Y-98.0
X95.54Y-98.0
X112.92Y-98.0
X115.46Y-98.0
X132.92Y-98.0
X135.46Y-98.0
X152.92Y-98.0
X155.46Y-98.0
X196.0Y-111.46
X196.0Y-114.0
X201.0Y-111.5
X201.0Y-114.04
X206.0Y-111.46
X206.0Y-114.0
X211.0Y-111.46
X211.0Y-114.0
T5
X126.0Y-38.92
X126.0Y-41.46
X126.0Y-44.0
X126.0Y-58.92
X126.0Y-61.46
X126.0Y-64.0
X156.42Y-34.99
X156.42Y-37.53
X156.42Y-51.985
X156.42Y-54.525
X213.92Y-34.5
X213.92Y-37.04
X213.92Y-52.0
X213.92Y-54.54
T6
X36.0Y-51.0
X36.0Y-76.0
X36.0Y-101.0
X39.5Y-51.0
X39.5Y-76.0
X39.5Y-101.0
X43.0Y-51.0
X43.0Y-76.0
X43.0Y-101.0
X46.5Y-51.0
X46.5Y-76.0
X46.5Y-101.0
X50.0Y-51.0
X50.0Y-76.0
X50.0Y-101.0
X59.0Y-76.0
X59.0Y-101.0
X62.5Y-76.0
X62.5Y-101.0
X66.0Y-76.0
X66.0Y-101.0
X69.5Y-76.0
X69.5Y-101.0
X73.0Y-76.0
X73.0Y-101.0
X196.0Y-126.0
X201.0Y-126.0
X206.0Y-126.0
X211.0Y-126.0
T7
X169.0Y-126.0
X172.5Y-126.0
X176.0Y-126.0
X179.5Y-126.0
T8
X37.0Y-119.0
X37.0Y-127.2
X42.0Y-119.0
X42.0Y-127.2
X47.0Y-119.0
X47.0Y-127.2
X60.0Y-119.0
X60.0Y-127.2
X65.0Y-119.0
X65.0Y-127.2
X70.0Y-119.0
X70.0Y-127.2
T9
X96.92Y-32.0
X102.0Y-32.0
T10
X90.19Y-121.46
X96.54Y-118.92
X110.11Y-121.46
X116.46Y-118.92
X130.11Y-121.46
X136.46Y-118.92
X150.11Y-121.46
X156.46Y-118.92
T11
X91.84Y-29.5
X107.08Y-29.5
M30
