%TF.GenerationSoftware,KiCad,Pcbnew,8.0.5*%
%TF.CreationDate,2024-11-26T19:37:30+02:00*%
%TF.ProjectId,io_box,696f5f62-6f78-42e6-9b69-6361645f7063,rev?*%
%TF.SameCoordinates,Original*%
%TF.FileFunction,Drillmap*%
%TF.FilePolarity,Positive*%
%FSLAX45Y45*%
G04 Gerber Fmt 4.5, Leading zero omitted, Abs format (unit mm)*
G04 Created by KiCad (PCBNEW 8.0.5) date 2024-11-26 19:37:30*
%MOMM*%
%LPD*%
G01*
G04 APERTURE LIST*
%ADD10C,0.050000*%
%ADD11C,0.200000*%
%ADD12C,0.170000*%
%ADD13C,0.320000*%
%ADD14C,0.400000*%
%ADD15C,0.635000*%
G04 APERTURE END LIST*
D10*
X2500000Y-2500000D02*
X22500000Y-2500000D01*
X22500000Y-14500000D01*
X2500000Y-14500000D01*
X2500000Y-2500000D01*
D11*
D12*
X8807000Y-12315000D02*
X8977000Y-12485000D01*
X8977000Y-12315000D02*
X8807000Y-12485000D01*
X9823000Y-12315000D02*
X9993000Y-12485000D01*
X9993000Y-12315000D02*
X9823000Y-12485000D01*
X10799000Y-12315000D02*
X10969000Y-12485000D01*
X10969000Y-12315000D02*
X10799000Y-12485000D01*
X11815000Y-12315000D02*
X11985000Y-12485000D01*
X11985000Y-12315000D02*
X11815000Y-12485000D01*
X12799000Y-12315000D02*
X12969000Y-12485000D01*
X12969000Y-12315000D02*
X12799000Y-12485000D01*
X13815000Y-12315000D02*
X13985000Y-12485000D01*
X13985000Y-12315000D02*
X13815000Y-12485000D01*
X14799000Y-12315000D02*
X14969000Y-12485000D01*
X14969000Y-12315000D02*
X14799000Y-12485000D01*
X15815000Y-12315000D02*
X15985000Y-12485000D01*
X15985000Y-12315000D02*
X15815000Y-12485000D01*
D13*
X3160000Y-3000000D02*
G75*
G02*
X2840000Y-3000000I-160000J0D01*
G01*
X2840000Y-3000000D02*
G75*
G02*
X3160000Y-3000000I160000J0D01*
G01*
X3160000Y-14000000D02*
G75*
G02*
X2840000Y-14000000I-160000J0D01*
G01*
X2840000Y-14000000D02*
G75*
G02*
X3160000Y-14000000I160000J0D01*
G01*
X12160000Y-8200000D02*
G75*
G02*
X11840000Y-8200000I-160000J0D01*
G01*
X11840000Y-8200000D02*
G75*
G02*
X12160000Y-8200000I160000J0D01*
G01*
X22160000Y-3000000D02*
G75*
G02*
X21840000Y-3000000I-160000J0D01*
G01*
X21840000Y-3000000D02*
G75*
G02*
X22160000Y-3000000I160000J0D01*
G01*
X22160000Y-14000000D02*
G75*
G02*
X21840000Y-14000000I-160000J0D01*
G01*
X21840000Y-14000000D02*
G75*
G02*
X22160000Y-14000000I160000J0D01*
G01*
D14*
X9400000Y-12200000D02*
X9400000Y-12600000D01*
X9200000Y-12400000D02*
X9600000Y-12400000D01*
X11392000Y-12200000D02*
X11392000Y-12600000D01*
X11192000Y-12400000D02*
X11592000Y-12400000D01*
X13392000Y-12200000D02*
X13392000Y-12600000D01*
X13192000Y-12400000D02*
X13592000Y-12400000D01*
X15392000Y-12200000D02*
X15392000Y-12600000D01*
X15192000Y-12400000D02*
X15592000Y-12400000D01*
D15*
X9616509Y-10924509D02*
X9616509Y-10475491D01*
X9167491Y-10475491D01*
X9167491Y-10924509D01*
X9616509Y-10924509D01*
X11616509Y-10924509D02*
X11616509Y-10475491D01*
X11167491Y-10475491D01*
X11167491Y-10924509D01*
X11616509Y-10924509D01*
X13616509Y-10924509D02*
X13616509Y-10475491D01*
X13167491Y-10475491D01*
X13167491Y-10924509D01*
X13616509Y-10924509D01*
X15616509Y-10924509D02*
X15616509Y-10475491D01*
X15167491Y-10475491D01*
X15167491Y-10924509D01*
X15616509Y-10924509D01*
D11*
X2758277Y-14813984D02*
X2758277Y-14613984D01*
X2758277Y-14613984D02*
X2805896Y-14613984D01*
X2805896Y-14613984D02*
X2834467Y-14623508D01*
X2834467Y-14623508D02*
X2853515Y-14642555D01*
X2853515Y-14642555D02*
X2863039Y-14661603D01*
X2863039Y-14661603D02*
X2872562Y-14699698D01*
X2872562Y-14699698D02*
X2872562Y-14728269D01*
X2872562Y-14728269D02*
X2863039Y-14766365D01*
X2863039Y-14766365D02*
X2853515Y-14785412D01*
X2853515Y-14785412D02*
X2834467Y-14804460D01*
X2834467Y-14804460D02*
X2805896Y-14813984D01*
X2805896Y-14813984D02*
X2758277Y-14813984D01*
X2958277Y-14813984D02*
X2958277Y-14680650D01*
X2958277Y-14718746D02*
X2967801Y-14699698D01*
X2967801Y-14699698D02*
X2977324Y-14690174D01*
X2977324Y-14690174D02*
X2996372Y-14680650D01*
X2996372Y-14680650D02*
X3015420Y-14680650D01*
X3082086Y-14813984D02*
X3082086Y-14680650D01*
X3082086Y-14613984D02*
X3072562Y-14623508D01*
X3072562Y-14623508D02*
X3082086Y-14633031D01*
X3082086Y-14633031D02*
X3091610Y-14623508D01*
X3091610Y-14623508D02*
X3082086Y-14613984D01*
X3082086Y-14613984D02*
X3082086Y-14633031D01*
X3205896Y-14813984D02*
X3186848Y-14804460D01*
X3186848Y-14804460D02*
X3177324Y-14785412D01*
X3177324Y-14785412D02*
X3177324Y-14613984D01*
X3310658Y-14813984D02*
X3291610Y-14804460D01*
X3291610Y-14804460D02*
X3282086Y-14785412D01*
X3282086Y-14785412D02*
X3282086Y-14613984D01*
X3539229Y-14813984D02*
X3539229Y-14613984D01*
X3539229Y-14613984D02*
X3605896Y-14756841D01*
X3605896Y-14756841D02*
X3672562Y-14613984D01*
X3672562Y-14613984D02*
X3672562Y-14813984D01*
X3853515Y-14813984D02*
X3853515Y-14709222D01*
X3853515Y-14709222D02*
X3843991Y-14690174D01*
X3843991Y-14690174D02*
X3824943Y-14680650D01*
X3824943Y-14680650D02*
X3786848Y-14680650D01*
X3786848Y-14680650D02*
X3767801Y-14690174D01*
X3853515Y-14804460D02*
X3834467Y-14813984D01*
X3834467Y-14813984D02*
X3786848Y-14813984D01*
X3786848Y-14813984D02*
X3767801Y-14804460D01*
X3767801Y-14804460D02*
X3758277Y-14785412D01*
X3758277Y-14785412D02*
X3758277Y-14766365D01*
X3758277Y-14766365D02*
X3767801Y-14747317D01*
X3767801Y-14747317D02*
X3786848Y-14737793D01*
X3786848Y-14737793D02*
X3834467Y-14737793D01*
X3834467Y-14737793D02*
X3853515Y-14728269D01*
X3948753Y-14680650D02*
X3948753Y-14880650D01*
X3948753Y-14690174D02*
X3967801Y-14680650D01*
X3967801Y-14680650D02*
X4005896Y-14680650D01*
X4005896Y-14680650D02*
X4024943Y-14690174D01*
X4024943Y-14690174D02*
X4034467Y-14699698D01*
X4034467Y-14699698D02*
X4043991Y-14718746D01*
X4043991Y-14718746D02*
X4043991Y-14775888D01*
X4043991Y-14775888D02*
X4034467Y-14794936D01*
X4034467Y-14794936D02*
X4024943Y-14804460D01*
X4024943Y-14804460D02*
X4005896Y-14813984D01*
X4005896Y-14813984D02*
X3967801Y-14813984D01*
X3967801Y-14813984D02*
X3948753Y-14804460D01*
X4129705Y-14794936D02*
X4139229Y-14804460D01*
X4139229Y-14804460D02*
X4129705Y-14813984D01*
X4129705Y-14813984D02*
X4120182Y-14804460D01*
X4120182Y-14804460D02*
X4129705Y-14794936D01*
X4129705Y-14794936D02*
X4129705Y-14813984D01*
X4129705Y-14690174D02*
X4139229Y-14699698D01*
X4139229Y-14699698D02*
X4129705Y-14709222D01*
X4129705Y-14709222D02*
X4120182Y-14699698D01*
X4120182Y-14699698D02*
X4129705Y-14690174D01*
X4129705Y-14690174D02*
X4129705Y-14709222D01*
D12*
X2327500Y-15057500D02*
X2497500Y-15227500D01*
X2497500Y-15057500D02*
X2327500Y-15227500D01*
D11*
X2863039Y-15233984D02*
X2748753Y-15233984D01*
X2805896Y-15233984D02*
X2805896Y-15033984D01*
X2805896Y-15033984D02*
X2786848Y-15062555D01*
X2786848Y-15062555D02*
X2767801Y-15081603D01*
X2767801Y-15081603D02*
X2748753Y-15091127D01*
X2948753Y-15214936D02*
X2958277Y-15224460D01*
X2958277Y-15224460D02*
X2948753Y-15233984D01*
X2948753Y-15233984D02*
X2939229Y-15224460D01*
X2939229Y-15224460D02*
X2948753Y-15214936D01*
X2948753Y-15214936D02*
X2948753Y-15233984D01*
X3024943Y-15033984D02*
X3158277Y-15033984D01*
X3158277Y-15033984D02*
X3072562Y-15233984D01*
X3272562Y-15033984D02*
X3291610Y-15033984D01*
X3291610Y-15033984D02*
X3310658Y-15043508D01*
X3310658Y-15043508D02*
X3320182Y-15053031D01*
X3320182Y-15053031D02*
X3329705Y-15072079D01*
X3329705Y-15072079D02*
X3339229Y-15110174D01*
X3339229Y-15110174D02*
X3339229Y-15157793D01*
X3339229Y-15157793D02*
X3329705Y-15195888D01*
X3329705Y-15195888D02*
X3320182Y-15214936D01*
X3320182Y-15214936D02*
X3310658Y-15224460D01*
X3310658Y-15224460D02*
X3291610Y-15233984D01*
X3291610Y-15233984D02*
X3272562Y-15233984D01*
X3272562Y-15233984D02*
X3253515Y-15224460D01*
X3253515Y-15224460D02*
X3243991Y-15214936D01*
X3243991Y-15214936D02*
X3234467Y-15195888D01*
X3234467Y-15195888D02*
X3224943Y-15157793D01*
X3224943Y-15157793D02*
X3224943Y-15110174D01*
X3224943Y-15110174D02*
X3234467Y-15072079D01*
X3234467Y-15072079D02*
X3243991Y-15053031D01*
X3243991Y-15053031D02*
X3253515Y-15043508D01*
X3253515Y-15043508D02*
X3272562Y-15033984D01*
X3463039Y-15033984D02*
X3482086Y-15033984D01*
X3482086Y-15033984D02*
X3501134Y-15043508D01*
X3501134Y-15043508D02*
X3510658Y-15053031D01*
X3510658Y-15053031D02*
X3520182Y-15072079D01*
X3520182Y-15072079D02*
X3529705Y-15110174D01*
X3529705Y-15110174D02*
X3529705Y-15157793D01*
X3529705Y-15157793D02*
X3520182Y-15195888D01*
X3520182Y-15195888D02*
X3510658Y-15214936D01*
X3510658Y-15214936D02*
X3501134Y-15224460D01*
X3501134Y-15224460D02*
X3482086Y-15233984D01*
X3482086Y-15233984D02*
X3463039Y-15233984D01*
X3463039Y-15233984D02*
X3443991Y-15224460D01*
X3443991Y-15224460D02*
X3434467Y-15214936D01*
X3434467Y-15214936D02*
X3424943Y-15195888D01*
X3424943Y-15195888D02*
X3415420Y-15157793D01*
X3415420Y-15157793D02*
X3415420Y-15110174D01*
X3415420Y-15110174D02*
X3424943Y-15072079D01*
X3424943Y-15072079D02*
X3434467Y-15053031D01*
X3434467Y-15053031D02*
X3443991Y-15043508D01*
X3443991Y-15043508D02*
X3463039Y-15033984D01*
X3615420Y-15233984D02*
X3615420Y-15100650D01*
X3615420Y-15119698D02*
X3624943Y-15110174D01*
X3624943Y-15110174D02*
X3643991Y-15100650D01*
X3643991Y-15100650D02*
X3672563Y-15100650D01*
X3672563Y-15100650D02*
X3691610Y-15110174D01*
X3691610Y-15110174D02*
X3701134Y-15129222D01*
X3701134Y-15129222D02*
X3701134Y-15233984D01*
X3701134Y-15129222D02*
X3710658Y-15110174D01*
X3710658Y-15110174D02*
X3729705Y-15100650D01*
X3729705Y-15100650D02*
X3758277Y-15100650D01*
X3758277Y-15100650D02*
X3777324Y-15110174D01*
X3777324Y-15110174D02*
X3786848Y-15129222D01*
X3786848Y-15129222D02*
X3786848Y-15233984D01*
X3882086Y-15233984D02*
X3882086Y-15100650D01*
X3882086Y-15119698D02*
X3891610Y-15110174D01*
X3891610Y-15110174D02*
X3910658Y-15100650D01*
X3910658Y-15100650D02*
X3939229Y-15100650D01*
X3939229Y-15100650D02*
X3958277Y-15110174D01*
X3958277Y-15110174D02*
X3967801Y-15129222D01*
X3967801Y-15129222D02*
X3967801Y-15233984D01*
X3967801Y-15129222D02*
X3977324Y-15110174D01*
X3977324Y-15110174D02*
X3996372Y-15100650D01*
X3996372Y-15100650D02*
X4024943Y-15100650D01*
X4024943Y-15100650D02*
X4043991Y-15110174D01*
X4043991Y-15110174D02*
X4053515Y-15129222D01*
X4053515Y-15129222D02*
X4053515Y-15233984D01*
X4443991Y-15024460D02*
X4272563Y-15281603D01*
X4701134Y-15033984D02*
X4720182Y-15033984D01*
X4720182Y-15033984D02*
X4739229Y-15043508D01*
X4739229Y-15043508D02*
X4748753Y-15053031D01*
X4748753Y-15053031D02*
X4758277Y-15072079D01*
X4758277Y-15072079D02*
X4767801Y-15110174D01*
X4767801Y-15110174D02*
X4767801Y-15157793D01*
X4767801Y-15157793D02*
X4758277Y-15195888D01*
X4758277Y-15195888D02*
X4748753Y-15214936D01*
X4748753Y-15214936D02*
X4739229Y-15224460D01*
X4739229Y-15224460D02*
X4720182Y-15233984D01*
X4720182Y-15233984D02*
X4701134Y-15233984D01*
X4701134Y-15233984D02*
X4682087Y-15224460D01*
X4682087Y-15224460D02*
X4672563Y-15214936D01*
X4672563Y-15214936D02*
X4663039Y-15195888D01*
X4663039Y-15195888D02*
X4653515Y-15157793D01*
X4653515Y-15157793D02*
X4653515Y-15110174D01*
X4653515Y-15110174D02*
X4663039Y-15072079D01*
X4663039Y-15072079D02*
X4672563Y-15053031D01*
X4672563Y-15053031D02*
X4682087Y-15043508D01*
X4682087Y-15043508D02*
X4701134Y-15033984D01*
X4853515Y-15214936D02*
X4863039Y-15224460D01*
X4863039Y-15224460D02*
X4853515Y-15233984D01*
X4853515Y-15233984D02*
X4843991Y-15224460D01*
X4843991Y-15224460D02*
X4853515Y-15214936D01*
X4853515Y-15214936D02*
X4853515Y-15233984D01*
X4986848Y-15033984D02*
X5005896Y-15033984D01*
X5005896Y-15033984D02*
X5024944Y-15043508D01*
X5024944Y-15043508D02*
X5034468Y-15053031D01*
X5034468Y-15053031D02*
X5043991Y-15072079D01*
X5043991Y-15072079D02*
X5053515Y-15110174D01*
X5053515Y-15110174D02*
X5053515Y-15157793D01*
X5053515Y-15157793D02*
X5043991Y-15195888D01*
X5043991Y-15195888D02*
X5034468Y-15214936D01*
X5034468Y-15214936D02*
X5024944Y-15224460D01*
X5024944Y-15224460D02*
X5005896Y-15233984D01*
X5005896Y-15233984D02*
X4986848Y-15233984D01*
X4986848Y-15233984D02*
X4967801Y-15224460D01*
X4967801Y-15224460D02*
X4958277Y-15214936D01*
X4958277Y-15214936D02*
X4948753Y-15195888D01*
X4948753Y-15195888D02*
X4939229Y-15157793D01*
X4939229Y-15157793D02*
X4939229Y-15110174D01*
X4939229Y-15110174D02*
X4948753Y-15072079D01*
X4948753Y-15072079D02*
X4958277Y-15053031D01*
X4958277Y-15053031D02*
X4967801Y-15043508D01*
X4967801Y-15043508D02*
X4986848Y-15033984D01*
X5224944Y-15033984D02*
X5186848Y-15033984D01*
X5186848Y-15033984D02*
X5167801Y-15043508D01*
X5167801Y-15043508D02*
X5158277Y-15053031D01*
X5158277Y-15053031D02*
X5139229Y-15081603D01*
X5139229Y-15081603D02*
X5129706Y-15119698D01*
X5129706Y-15119698D02*
X5129706Y-15195888D01*
X5129706Y-15195888D02*
X5139229Y-15214936D01*
X5139229Y-15214936D02*
X5148753Y-15224460D01*
X5148753Y-15224460D02*
X5167801Y-15233984D01*
X5167801Y-15233984D02*
X5205896Y-15233984D01*
X5205896Y-15233984D02*
X5224944Y-15224460D01*
X5224944Y-15224460D02*
X5234468Y-15214936D01*
X5234468Y-15214936D02*
X5243991Y-15195888D01*
X5243991Y-15195888D02*
X5243991Y-15148269D01*
X5243991Y-15148269D02*
X5234468Y-15129222D01*
X5234468Y-15129222D02*
X5224944Y-15119698D01*
X5224944Y-15119698D02*
X5205896Y-15110174D01*
X5205896Y-15110174D02*
X5167801Y-15110174D01*
X5167801Y-15110174D02*
X5148753Y-15119698D01*
X5148753Y-15119698D02*
X5139229Y-15129222D01*
X5139229Y-15129222D02*
X5129706Y-15148269D01*
X5415420Y-15033984D02*
X5377325Y-15033984D01*
X5377325Y-15033984D02*
X5358277Y-15043508D01*
X5358277Y-15043508D02*
X5348753Y-15053031D01*
X5348753Y-15053031D02*
X5329706Y-15081603D01*
X5329706Y-15081603D02*
X5320182Y-15119698D01*
X5320182Y-15119698D02*
X5320182Y-15195888D01*
X5320182Y-15195888D02*
X5329706Y-15214936D01*
X5329706Y-15214936D02*
X5339229Y-15224460D01*
X5339229Y-15224460D02*
X5358277Y-15233984D01*
X5358277Y-15233984D02*
X5396372Y-15233984D01*
X5396372Y-15233984D02*
X5415420Y-15224460D01*
X5415420Y-15224460D02*
X5424944Y-15214936D01*
X5424944Y-15214936D02*
X5434468Y-15195888D01*
X5434468Y-15195888D02*
X5434468Y-15148269D01*
X5434468Y-15148269D02*
X5424944Y-15129222D01*
X5424944Y-15129222D02*
X5415420Y-15119698D01*
X5415420Y-15119698D02*
X5396372Y-15110174D01*
X5396372Y-15110174D02*
X5358277Y-15110174D01*
X5358277Y-15110174D02*
X5339229Y-15119698D01*
X5339229Y-15119698D02*
X5329706Y-15129222D01*
X5329706Y-15129222D02*
X5320182Y-15148269D01*
X5529706Y-15233984D02*
X5567801Y-15233984D01*
X5567801Y-15233984D02*
X5586849Y-15224460D01*
X5586849Y-15224460D02*
X5596372Y-15214936D01*
X5596372Y-15214936D02*
X5615420Y-15186365D01*
X5615420Y-15186365D02*
X5624944Y-15148269D01*
X5624944Y-15148269D02*
X5624944Y-15072079D01*
X5624944Y-15072079D02*
X5615420Y-15053031D01*
X5615420Y-15053031D02*
X5605896Y-15043508D01*
X5605896Y-15043508D02*
X5586849Y-15033984D01*
X5586849Y-15033984D02*
X5548753Y-15033984D01*
X5548753Y-15033984D02*
X5529706Y-15043508D01*
X5529706Y-15043508D02*
X5520182Y-15053031D01*
X5520182Y-15053031D02*
X5510658Y-15072079D01*
X5510658Y-15072079D02*
X5510658Y-15119698D01*
X5510658Y-15119698D02*
X5520182Y-15138746D01*
X5520182Y-15138746D02*
X5529706Y-15148269D01*
X5529706Y-15148269D02*
X5548753Y-15157793D01*
X5548753Y-15157793D02*
X5586849Y-15157793D01*
X5586849Y-15157793D02*
X5605896Y-15148269D01*
X5605896Y-15148269D02*
X5615420Y-15138746D01*
X5615420Y-15138746D02*
X5624944Y-15119698D01*
X5701134Y-15033984D02*
X5701134Y-15072079D01*
X5777325Y-15033984D02*
X5777325Y-15072079D01*
X6072563Y-15310174D02*
X6063039Y-15300650D01*
X6063039Y-15300650D02*
X6043991Y-15272079D01*
X6043991Y-15272079D02*
X6034468Y-15253031D01*
X6034468Y-15253031D02*
X6024944Y-15224460D01*
X6024944Y-15224460D02*
X6015420Y-15176841D01*
X6015420Y-15176841D02*
X6015420Y-15138746D01*
X6015420Y-15138746D02*
X6024944Y-15091127D01*
X6024944Y-15091127D02*
X6034468Y-15062555D01*
X6034468Y-15062555D02*
X6043991Y-15043508D01*
X6043991Y-15043508D02*
X6063039Y-15014936D01*
X6063039Y-15014936D02*
X6072563Y-15005412D01*
X6177325Y-15119698D02*
X6158277Y-15110174D01*
X6158277Y-15110174D02*
X6148753Y-15100650D01*
X6148753Y-15100650D02*
X6139229Y-15081603D01*
X6139229Y-15081603D02*
X6139229Y-15072079D01*
X6139229Y-15072079D02*
X6148753Y-15053031D01*
X6148753Y-15053031D02*
X6158277Y-15043508D01*
X6158277Y-15043508D02*
X6177325Y-15033984D01*
X6177325Y-15033984D02*
X6215420Y-15033984D01*
X6215420Y-15033984D02*
X6234468Y-15043508D01*
X6234468Y-15043508D02*
X6243991Y-15053031D01*
X6243991Y-15053031D02*
X6253515Y-15072079D01*
X6253515Y-15072079D02*
X6253515Y-15081603D01*
X6253515Y-15081603D02*
X6243991Y-15100650D01*
X6243991Y-15100650D02*
X6234468Y-15110174D01*
X6234468Y-15110174D02*
X6215420Y-15119698D01*
X6215420Y-15119698D02*
X6177325Y-15119698D01*
X6177325Y-15119698D02*
X6158277Y-15129222D01*
X6158277Y-15129222D02*
X6148753Y-15138746D01*
X6148753Y-15138746D02*
X6139229Y-15157793D01*
X6139229Y-15157793D02*
X6139229Y-15195888D01*
X6139229Y-15195888D02*
X6148753Y-15214936D01*
X6148753Y-15214936D02*
X6158277Y-15224460D01*
X6158277Y-15224460D02*
X6177325Y-15233984D01*
X6177325Y-15233984D02*
X6215420Y-15233984D01*
X6215420Y-15233984D02*
X6234468Y-15224460D01*
X6234468Y-15224460D02*
X6243991Y-15214936D01*
X6243991Y-15214936D02*
X6253515Y-15195888D01*
X6253515Y-15195888D02*
X6253515Y-15157793D01*
X6253515Y-15157793D02*
X6243991Y-15138746D01*
X6243991Y-15138746D02*
X6234468Y-15129222D01*
X6234468Y-15129222D02*
X6215420Y-15119698D01*
X6491610Y-15233984D02*
X6491610Y-15033984D01*
X6577325Y-15233984D02*
X6577325Y-15129222D01*
X6577325Y-15129222D02*
X6567801Y-15110174D01*
X6567801Y-15110174D02*
X6548753Y-15100650D01*
X6548753Y-15100650D02*
X6520182Y-15100650D01*
X6520182Y-15100650D02*
X6501134Y-15110174D01*
X6501134Y-15110174D02*
X6491610Y-15119698D01*
X6701134Y-15233984D02*
X6682087Y-15224460D01*
X6682087Y-15224460D02*
X6672563Y-15214936D01*
X6672563Y-15214936D02*
X6663039Y-15195888D01*
X6663039Y-15195888D02*
X6663039Y-15138746D01*
X6663039Y-15138746D02*
X6672563Y-15119698D01*
X6672563Y-15119698D02*
X6682087Y-15110174D01*
X6682087Y-15110174D02*
X6701134Y-15100650D01*
X6701134Y-15100650D02*
X6729706Y-15100650D01*
X6729706Y-15100650D02*
X6748753Y-15110174D01*
X6748753Y-15110174D02*
X6758277Y-15119698D01*
X6758277Y-15119698D02*
X6767801Y-15138746D01*
X6767801Y-15138746D02*
X6767801Y-15195888D01*
X6767801Y-15195888D02*
X6758277Y-15214936D01*
X6758277Y-15214936D02*
X6748753Y-15224460D01*
X6748753Y-15224460D02*
X6729706Y-15233984D01*
X6729706Y-15233984D02*
X6701134Y-15233984D01*
X6882087Y-15233984D02*
X6863039Y-15224460D01*
X6863039Y-15224460D02*
X6853515Y-15205412D01*
X6853515Y-15205412D02*
X6853515Y-15033984D01*
X7034468Y-15224460D02*
X7015420Y-15233984D01*
X7015420Y-15233984D02*
X6977325Y-15233984D01*
X6977325Y-15233984D02*
X6958277Y-15224460D01*
X6958277Y-15224460D02*
X6948753Y-15205412D01*
X6948753Y-15205412D02*
X6948753Y-15129222D01*
X6948753Y-15129222D02*
X6958277Y-15110174D01*
X6958277Y-15110174D02*
X6977325Y-15100650D01*
X6977325Y-15100650D02*
X7015420Y-15100650D01*
X7015420Y-15100650D02*
X7034468Y-15110174D01*
X7034468Y-15110174D02*
X7043991Y-15129222D01*
X7043991Y-15129222D02*
X7043991Y-15148269D01*
X7043991Y-15148269D02*
X6948753Y-15167317D01*
X7120182Y-15224460D02*
X7139230Y-15233984D01*
X7139230Y-15233984D02*
X7177325Y-15233984D01*
X7177325Y-15233984D02*
X7196372Y-15224460D01*
X7196372Y-15224460D02*
X7205896Y-15205412D01*
X7205896Y-15205412D02*
X7205896Y-15195888D01*
X7205896Y-15195888D02*
X7196372Y-15176841D01*
X7196372Y-15176841D02*
X7177325Y-15167317D01*
X7177325Y-15167317D02*
X7148753Y-15167317D01*
X7148753Y-15167317D02*
X7129706Y-15157793D01*
X7129706Y-15157793D02*
X7120182Y-15138746D01*
X7120182Y-15138746D02*
X7120182Y-15129222D01*
X7120182Y-15129222D02*
X7129706Y-15110174D01*
X7129706Y-15110174D02*
X7148753Y-15100650D01*
X7148753Y-15100650D02*
X7177325Y-15100650D01*
X7177325Y-15100650D02*
X7196372Y-15110174D01*
X7272563Y-15310174D02*
X7282087Y-15300650D01*
X7282087Y-15300650D02*
X7301134Y-15272079D01*
X7301134Y-15272079D02*
X7310658Y-15253031D01*
X7310658Y-15253031D02*
X7320182Y-15224460D01*
X7320182Y-15224460D02*
X7329706Y-15176841D01*
X7329706Y-15176841D02*
X7329706Y-15138746D01*
X7329706Y-15138746D02*
X7320182Y-15091127D01*
X7320182Y-15091127D02*
X7310658Y-15062555D01*
X7310658Y-15062555D02*
X7301134Y-15043508D01*
X7301134Y-15043508D02*
X7282087Y-15014936D01*
X7282087Y-15014936D02*
X7272563Y-15005412D01*
X7634468Y-15310174D02*
X7624944Y-15300650D01*
X7624944Y-15300650D02*
X7605896Y-15272079D01*
X7605896Y-15272079D02*
X7596372Y-15253031D01*
X7596372Y-15253031D02*
X7586849Y-15224460D01*
X7586849Y-15224460D02*
X7577325Y-15176841D01*
X7577325Y-15176841D02*
X7577325Y-15138746D01*
X7577325Y-15138746D02*
X7586849Y-15091127D01*
X7586849Y-15091127D02*
X7596372Y-15062555D01*
X7596372Y-15062555D02*
X7605896Y-15043508D01*
X7605896Y-15043508D02*
X7624944Y-15014936D01*
X7624944Y-15014936D02*
X7634468Y-15005412D01*
X7710658Y-15100650D02*
X7710658Y-15233984D01*
X7710658Y-15119698D02*
X7720182Y-15110174D01*
X7720182Y-15110174D02*
X7739230Y-15100650D01*
X7739230Y-15100650D02*
X7767801Y-15100650D01*
X7767801Y-15100650D02*
X7786849Y-15110174D01*
X7786849Y-15110174D02*
X7796372Y-15129222D01*
X7796372Y-15129222D02*
X7796372Y-15233984D01*
X7920182Y-15233984D02*
X7901134Y-15224460D01*
X7901134Y-15224460D02*
X7891611Y-15214936D01*
X7891611Y-15214936D02*
X7882087Y-15195888D01*
X7882087Y-15195888D02*
X7882087Y-15138746D01*
X7882087Y-15138746D02*
X7891611Y-15119698D01*
X7891611Y-15119698D02*
X7901134Y-15110174D01*
X7901134Y-15110174D02*
X7920182Y-15100650D01*
X7920182Y-15100650D02*
X7948753Y-15100650D01*
X7948753Y-15100650D02*
X7967801Y-15110174D01*
X7967801Y-15110174D02*
X7977325Y-15119698D01*
X7977325Y-15119698D02*
X7986849Y-15138746D01*
X7986849Y-15138746D02*
X7986849Y-15195888D01*
X7986849Y-15195888D02*
X7977325Y-15214936D01*
X7977325Y-15214936D02*
X7967801Y-15224460D01*
X7967801Y-15224460D02*
X7948753Y-15233984D01*
X7948753Y-15233984D02*
X7920182Y-15233984D01*
X8043992Y-15100650D02*
X8120182Y-15100650D01*
X8072563Y-15033984D02*
X8072563Y-15205412D01*
X8072563Y-15205412D02*
X8082087Y-15224460D01*
X8082087Y-15224460D02*
X8101134Y-15233984D01*
X8101134Y-15233984D02*
X8120182Y-15233984D01*
X8339230Y-15100650D02*
X8339230Y-15300650D01*
X8339230Y-15110174D02*
X8358277Y-15100650D01*
X8358277Y-15100650D02*
X8396373Y-15100650D01*
X8396373Y-15100650D02*
X8415420Y-15110174D01*
X8415420Y-15110174D02*
X8424944Y-15119698D01*
X8424944Y-15119698D02*
X8434468Y-15138746D01*
X8434468Y-15138746D02*
X8434468Y-15195888D01*
X8434468Y-15195888D02*
X8424944Y-15214936D01*
X8424944Y-15214936D02*
X8415420Y-15224460D01*
X8415420Y-15224460D02*
X8396373Y-15233984D01*
X8396373Y-15233984D02*
X8358277Y-15233984D01*
X8358277Y-15233984D02*
X8339230Y-15224460D01*
X8548754Y-15233984D02*
X8529706Y-15224460D01*
X8529706Y-15224460D02*
X8520182Y-15205412D01*
X8520182Y-15205412D02*
X8520182Y-15033984D01*
X8710658Y-15233984D02*
X8710658Y-15129222D01*
X8710658Y-15129222D02*
X8701135Y-15110174D01*
X8701135Y-15110174D02*
X8682087Y-15100650D01*
X8682087Y-15100650D02*
X8643992Y-15100650D01*
X8643992Y-15100650D02*
X8624944Y-15110174D01*
X8710658Y-15224460D02*
X8691611Y-15233984D01*
X8691611Y-15233984D02*
X8643992Y-15233984D01*
X8643992Y-15233984D02*
X8624944Y-15224460D01*
X8624944Y-15224460D02*
X8615420Y-15205412D01*
X8615420Y-15205412D02*
X8615420Y-15186365D01*
X8615420Y-15186365D02*
X8624944Y-15167317D01*
X8624944Y-15167317D02*
X8643992Y-15157793D01*
X8643992Y-15157793D02*
X8691611Y-15157793D01*
X8691611Y-15157793D02*
X8710658Y-15148269D01*
X8777325Y-15100650D02*
X8853515Y-15100650D01*
X8805896Y-15033984D02*
X8805896Y-15205412D01*
X8805896Y-15205412D02*
X8815420Y-15224460D01*
X8815420Y-15224460D02*
X8834468Y-15233984D01*
X8834468Y-15233984D02*
X8853515Y-15233984D01*
X8996373Y-15224460D02*
X8977325Y-15233984D01*
X8977325Y-15233984D02*
X8939230Y-15233984D01*
X8939230Y-15233984D02*
X8920182Y-15224460D01*
X8920182Y-15224460D02*
X8910658Y-15205412D01*
X8910658Y-15205412D02*
X8910658Y-15129222D01*
X8910658Y-15129222D02*
X8920182Y-15110174D01*
X8920182Y-15110174D02*
X8939230Y-15100650D01*
X8939230Y-15100650D02*
X8977325Y-15100650D01*
X8977325Y-15100650D02*
X8996373Y-15110174D01*
X8996373Y-15110174D02*
X9005896Y-15129222D01*
X9005896Y-15129222D02*
X9005896Y-15148269D01*
X9005896Y-15148269D02*
X8910658Y-15167317D01*
X9177325Y-15233984D02*
X9177325Y-15033984D01*
X9177325Y-15224460D02*
X9158277Y-15233984D01*
X9158277Y-15233984D02*
X9120182Y-15233984D01*
X9120182Y-15233984D02*
X9101135Y-15224460D01*
X9101135Y-15224460D02*
X9091611Y-15214936D01*
X9091611Y-15214936D02*
X9082087Y-15195888D01*
X9082087Y-15195888D02*
X9082087Y-15138746D01*
X9082087Y-15138746D02*
X9091611Y-15119698D01*
X9091611Y-15119698D02*
X9101135Y-15110174D01*
X9101135Y-15110174D02*
X9120182Y-15100650D01*
X9120182Y-15100650D02*
X9158277Y-15100650D01*
X9158277Y-15100650D02*
X9177325Y-15110174D01*
X9253516Y-15310174D02*
X9263039Y-15300650D01*
X9263039Y-15300650D02*
X9282087Y-15272079D01*
X9282087Y-15272079D02*
X9291611Y-15253031D01*
X9291611Y-15253031D02*
X9301135Y-15224460D01*
X9301135Y-15224460D02*
X9310658Y-15176841D01*
X9310658Y-15176841D02*
X9310658Y-15138746D01*
X9310658Y-15138746D02*
X9301135Y-15091127D01*
X9301135Y-15091127D02*
X9291611Y-15062555D01*
X9291611Y-15062555D02*
X9282087Y-15043508D01*
X9282087Y-15043508D02*
X9263039Y-15014936D01*
X9263039Y-15014936D02*
X9253516Y-15005412D01*
X2497500Y-15432500D02*
G75*
G02*
X2297500Y-15432500I-100000J0D01*
G01*
X2297500Y-15432500D02*
G75*
G02*
X2497500Y-15432500I100000J0D01*
G01*
X2739229Y-15323984D02*
X2863039Y-15323984D01*
X2863039Y-15323984D02*
X2796372Y-15400174D01*
X2796372Y-15400174D02*
X2824943Y-15400174D01*
X2824943Y-15400174D02*
X2843991Y-15409698D01*
X2843991Y-15409698D02*
X2853515Y-15419222D01*
X2853515Y-15419222D02*
X2863039Y-15438269D01*
X2863039Y-15438269D02*
X2863039Y-15485888D01*
X2863039Y-15485888D02*
X2853515Y-15504936D01*
X2853515Y-15504936D02*
X2843991Y-15514460D01*
X2843991Y-15514460D02*
X2824943Y-15523984D01*
X2824943Y-15523984D02*
X2767801Y-15523984D01*
X2767801Y-15523984D02*
X2748753Y-15514460D01*
X2748753Y-15514460D02*
X2739229Y-15504936D01*
X2948753Y-15504936D02*
X2958277Y-15514460D01*
X2958277Y-15514460D02*
X2948753Y-15523984D01*
X2948753Y-15523984D02*
X2939229Y-15514460D01*
X2939229Y-15514460D02*
X2948753Y-15504936D01*
X2948753Y-15504936D02*
X2948753Y-15523984D01*
X3034467Y-15343031D02*
X3043991Y-15333508D01*
X3043991Y-15333508D02*
X3063039Y-15323984D01*
X3063039Y-15323984D02*
X3110658Y-15323984D01*
X3110658Y-15323984D02*
X3129705Y-15333508D01*
X3129705Y-15333508D02*
X3139229Y-15343031D01*
X3139229Y-15343031D02*
X3148753Y-15362079D01*
X3148753Y-15362079D02*
X3148753Y-15381127D01*
X3148753Y-15381127D02*
X3139229Y-15409698D01*
X3139229Y-15409698D02*
X3024943Y-15523984D01*
X3024943Y-15523984D02*
X3148753Y-15523984D01*
X3272562Y-15323984D02*
X3291610Y-15323984D01*
X3291610Y-15323984D02*
X3310658Y-15333508D01*
X3310658Y-15333508D02*
X3320182Y-15343031D01*
X3320182Y-15343031D02*
X3329705Y-15362079D01*
X3329705Y-15362079D02*
X3339229Y-15400174D01*
X3339229Y-15400174D02*
X3339229Y-15447793D01*
X3339229Y-15447793D02*
X3329705Y-15485888D01*
X3329705Y-15485888D02*
X3320182Y-15504936D01*
X3320182Y-15504936D02*
X3310658Y-15514460D01*
X3310658Y-15514460D02*
X3291610Y-15523984D01*
X3291610Y-15523984D02*
X3272562Y-15523984D01*
X3272562Y-15523984D02*
X3253515Y-15514460D01*
X3253515Y-15514460D02*
X3243991Y-15504936D01*
X3243991Y-15504936D02*
X3234467Y-15485888D01*
X3234467Y-15485888D02*
X3224943Y-15447793D01*
X3224943Y-15447793D02*
X3224943Y-15400174D01*
X3224943Y-15400174D02*
X3234467Y-15362079D01*
X3234467Y-15362079D02*
X3243991Y-15343031D01*
X3243991Y-15343031D02*
X3253515Y-15333508D01*
X3253515Y-15333508D02*
X3272562Y-15323984D01*
X3463039Y-15323984D02*
X3482086Y-15323984D01*
X3482086Y-15323984D02*
X3501134Y-15333508D01*
X3501134Y-15333508D02*
X3510658Y-15343031D01*
X3510658Y-15343031D02*
X3520182Y-15362079D01*
X3520182Y-15362079D02*
X3529705Y-15400174D01*
X3529705Y-15400174D02*
X3529705Y-15447793D01*
X3529705Y-15447793D02*
X3520182Y-15485888D01*
X3520182Y-15485888D02*
X3510658Y-15504936D01*
X3510658Y-15504936D02*
X3501134Y-15514460D01*
X3501134Y-15514460D02*
X3482086Y-15523984D01*
X3482086Y-15523984D02*
X3463039Y-15523984D01*
X3463039Y-15523984D02*
X3443991Y-15514460D01*
X3443991Y-15514460D02*
X3434467Y-15504936D01*
X3434467Y-15504936D02*
X3424943Y-15485888D01*
X3424943Y-15485888D02*
X3415420Y-15447793D01*
X3415420Y-15447793D02*
X3415420Y-15400174D01*
X3415420Y-15400174D02*
X3424943Y-15362079D01*
X3424943Y-15362079D02*
X3434467Y-15343031D01*
X3434467Y-15343031D02*
X3443991Y-15333508D01*
X3443991Y-15333508D02*
X3463039Y-15323984D01*
X3615420Y-15523984D02*
X3615420Y-15390650D01*
X3615420Y-15409698D02*
X3624943Y-15400174D01*
X3624943Y-15400174D02*
X3643991Y-15390650D01*
X3643991Y-15390650D02*
X3672563Y-15390650D01*
X3672563Y-15390650D02*
X3691610Y-15400174D01*
X3691610Y-15400174D02*
X3701134Y-15419222D01*
X3701134Y-15419222D02*
X3701134Y-15523984D01*
X3701134Y-15419222D02*
X3710658Y-15400174D01*
X3710658Y-15400174D02*
X3729705Y-15390650D01*
X3729705Y-15390650D02*
X3758277Y-15390650D01*
X3758277Y-15390650D02*
X3777324Y-15400174D01*
X3777324Y-15400174D02*
X3786848Y-15419222D01*
X3786848Y-15419222D02*
X3786848Y-15523984D01*
X3882086Y-15523984D02*
X3882086Y-15390650D01*
X3882086Y-15409698D02*
X3891610Y-15400174D01*
X3891610Y-15400174D02*
X3910658Y-15390650D01*
X3910658Y-15390650D02*
X3939229Y-15390650D01*
X3939229Y-15390650D02*
X3958277Y-15400174D01*
X3958277Y-15400174D02*
X3967801Y-15419222D01*
X3967801Y-15419222D02*
X3967801Y-15523984D01*
X3967801Y-15419222D02*
X3977324Y-15400174D01*
X3977324Y-15400174D02*
X3996372Y-15390650D01*
X3996372Y-15390650D02*
X4024943Y-15390650D01*
X4024943Y-15390650D02*
X4043991Y-15400174D01*
X4043991Y-15400174D02*
X4053515Y-15419222D01*
X4053515Y-15419222D02*
X4053515Y-15523984D01*
X4443991Y-15314460D02*
X4272563Y-15571603D01*
X4701134Y-15323984D02*
X4720182Y-15323984D01*
X4720182Y-15323984D02*
X4739229Y-15333508D01*
X4739229Y-15333508D02*
X4748753Y-15343031D01*
X4748753Y-15343031D02*
X4758277Y-15362079D01*
X4758277Y-15362079D02*
X4767801Y-15400174D01*
X4767801Y-15400174D02*
X4767801Y-15447793D01*
X4767801Y-15447793D02*
X4758277Y-15485888D01*
X4758277Y-15485888D02*
X4748753Y-15504936D01*
X4748753Y-15504936D02*
X4739229Y-15514460D01*
X4739229Y-15514460D02*
X4720182Y-15523984D01*
X4720182Y-15523984D02*
X4701134Y-15523984D01*
X4701134Y-15523984D02*
X4682087Y-15514460D01*
X4682087Y-15514460D02*
X4672563Y-15504936D01*
X4672563Y-15504936D02*
X4663039Y-15485888D01*
X4663039Y-15485888D02*
X4653515Y-15447793D01*
X4653515Y-15447793D02*
X4653515Y-15400174D01*
X4653515Y-15400174D02*
X4663039Y-15362079D01*
X4663039Y-15362079D02*
X4672563Y-15343031D01*
X4672563Y-15343031D02*
X4682087Y-15333508D01*
X4682087Y-15333508D02*
X4701134Y-15323984D01*
X4853515Y-15504936D02*
X4863039Y-15514460D01*
X4863039Y-15514460D02*
X4853515Y-15523984D01*
X4853515Y-15523984D02*
X4843991Y-15514460D01*
X4843991Y-15514460D02*
X4853515Y-15504936D01*
X4853515Y-15504936D02*
X4853515Y-15523984D01*
X5053515Y-15523984D02*
X4939229Y-15523984D01*
X4996372Y-15523984D02*
X4996372Y-15323984D01*
X4996372Y-15323984D02*
X4977325Y-15352555D01*
X4977325Y-15352555D02*
X4958277Y-15371603D01*
X4958277Y-15371603D02*
X4939229Y-15381127D01*
X5129706Y-15343031D02*
X5139229Y-15333508D01*
X5139229Y-15333508D02*
X5158277Y-15323984D01*
X5158277Y-15323984D02*
X5205896Y-15323984D01*
X5205896Y-15323984D02*
X5224944Y-15333508D01*
X5224944Y-15333508D02*
X5234468Y-15343031D01*
X5234468Y-15343031D02*
X5243991Y-15362079D01*
X5243991Y-15362079D02*
X5243991Y-15381127D01*
X5243991Y-15381127D02*
X5234468Y-15409698D01*
X5234468Y-15409698D02*
X5120182Y-15523984D01*
X5120182Y-15523984D02*
X5243991Y-15523984D01*
X5415420Y-15323984D02*
X5377325Y-15323984D01*
X5377325Y-15323984D02*
X5358277Y-15333508D01*
X5358277Y-15333508D02*
X5348753Y-15343031D01*
X5348753Y-15343031D02*
X5329706Y-15371603D01*
X5329706Y-15371603D02*
X5320182Y-15409698D01*
X5320182Y-15409698D02*
X5320182Y-15485888D01*
X5320182Y-15485888D02*
X5329706Y-15504936D01*
X5329706Y-15504936D02*
X5339229Y-15514460D01*
X5339229Y-15514460D02*
X5358277Y-15523984D01*
X5358277Y-15523984D02*
X5396372Y-15523984D01*
X5396372Y-15523984D02*
X5415420Y-15514460D01*
X5415420Y-15514460D02*
X5424944Y-15504936D01*
X5424944Y-15504936D02*
X5434468Y-15485888D01*
X5434468Y-15485888D02*
X5434468Y-15438269D01*
X5434468Y-15438269D02*
X5424944Y-15419222D01*
X5424944Y-15419222D02*
X5415420Y-15409698D01*
X5415420Y-15409698D02*
X5396372Y-15400174D01*
X5396372Y-15400174D02*
X5358277Y-15400174D01*
X5358277Y-15400174D02*
X5339229Y-15409698D01*
X5339229Y-15409698D02*
X5329706Y-15419222D01*
X5329706Y-15419222D02*
X5320182Y-15438269D01*
X5558277Y-15323984D02*
X5577325Y-15323984D01*
X5577325Y-15323984D02*
X5596372Y-15333508D01*
X5596372Y-15333508D02*
X5605896Y-15343031D01*
X5605896Y-15343031D02*
X5615420Y-15362079D01*
X5615420Y-15362079D02*
X5624944Y-15400174D01*
X5624944Y-15400174D02*
X5624944Y-15447793D01*
X5624944Y-15447793D02*
X5615420Y-15485888D01*
X5615420Y-15485888D02*
X5605896Y-15504936D01*
X5605896Y-15504936D02*
X5596372Y-15514460D01*
X5596372Y-15514460D02*
X5577325Y-15523984D01*
X5577325Y-15523984D02*
X5558277Y-15523984D01*
X5558277Y-15523984D02*
X5539229Y-15514460D01*
X5539229Y-15514460D02*
X5529706Y-15504936D01*
X5529706Y-15504936D02*
X5520182Y-15485888D01*
X5520182Y-15485888D02*
X5510658Y-15447793D01*
X5510658Y-15447793D02*
X5510658Y-15400174D01*
X5510658Y-15400174D02*
X5520182Y-15362079D01*
X5520182Y-15362079D02*
X5529706Y-15343031D01*
X5529706Y-15343031D02*
X5539229Y-15333508D01*
X5539229Y-15333508D02*
X5558277Y-15323984D01*
X5701134Y-15323984D02*
X5701134Y-15362079D01*
X5777325Y-15323984D02*
X5777325Y-15362079D01*
X6072563Y-15600174D02*
X6063039Y-15590650D01*
X6063039Y-15590650D02*
X6043991Y-15562079D01*
X6043991Y-15562079D02*
X6034468Y-15543031D01*
X6034468Y-15543031D02*
X6024944Y-15514460D01*
X6024944Y-15514460D02*
X6015420Y-15466841D01*
X6015420Y-15466841D02*
X6015420Y-15428746D01*
X6015420Y-15428746D02*
X6024944Y-15381127D01*
X6024944Y-15381127D02*
X6034468Y-15352555D01*
X6034468Y-15352555D02*
X6043991Y-15333508D01*
X6043991Y-15333508D02*
X6063039Y-15304936D01*
X6063039Y-15304936D02*
X6072563Y-15295412D01*
X6243991Y-15323984D02*
X6148753Y-15323984D01*
X6148753Y-15323984D02*
X6139229Y-15419222D01*
X6139229Y-15419222D02*
X6148753Y-15409698D01*
X6148753Y-15409698D02*
X6167801Y-15400174D01*
X6167801Y-15400174D02*
X6215420Y-15400174D01*
X6215420Y-15400174D02*
X6234468Y-15409698D01*
X6234468Y-15409698D02*
X6243991Y-15419222D01*
X6243991Y-15419222D02*
X6253515Y-15438269D01*
X6253515Y-15438269D02*
X6253515Y-15485888D01*
X6253515Y-15485888D02*
X6243991Y-15504936D01*
X6243991Y-15504936D02*
X6234468Y-15514460D01*
X6234468Y-15514460D02*
X6215420Y-15523984D01*
X6215420Y-15523984D02*
X6167801Y-15523984D01*
X6167801Y-15523984D02*
X6148753Y-15514460D01*
X6148753Y-15514460D02*
X6139229Y-15504936D01*
X6491610Y-15523984D02*
X6491610Y-15323984D01*
X6577325Y-15523984D02*
X6577325Y-15419222D01*
X6577325Y-15419222D02*
X6567801Y-15400174D01*
X6567801Y-15400174D02*
X6548753Y-15390650D01*
X6548753Y-15390650D02*
X6520182Y-15390650D01*
X6520182Y-15390650D02*
X6501134Y-15400174D01*
X6501134Y-15400174D02*
X6491610Y-15409698D01*
X6701134Y-15523984D02*
X6682087Y-15514460D01*
X6682087Y-15514460D02*
X6672563Y-15504936D01*
X6672563Y-15504936D02*
X6663039Y-15485888D01*
X6663039Y-15485888D02*
X6663039Y-15428746D01*
X6663039Y-15428746D02*
X6672563Y-15409698D01*
X6672563Y-15409698D02*
X6682087Y-15400174D01*
X6682087Y-15400174D02*
X6701134Y-15390650D01*
X6701134Y-15390650D02*
X6729706Y-15390650D01*
X6729706Y-15390650D02*
X6748753Y-15400174D01*
X6748753Y-15400174D02*
X6758277Y-15409698D01*
X6758277Y-15409698D02*
X6767801Y-15428746D01*
X6767801Y-15428746D02*
X6767801Y-15485888D01*
X6767801Y-15485888D02*
X6758277Y-15504936D01*
X6758277Y-15504936D02*
X6748753Y-15514460D01*
X6748753Y-15514460D02*
X6729706Y-15523984D01*
X6729706Y-15523984D02*
X6701134Y-15523984D01*
X6882087Y-15523984D02*
X6863039Y-15514460D01*
X6863039Y-15514460D02*
X6853515Y-15495412D01*
X6853515Y-15495412D02*
X6853515Y-15323984D01*
X7034468Y-15514460D02*
X7015420Y-15523984D01*
X7015420Y-15523984D02*
X6977325Y-15523984D01*
X6977325Y-15523984D02*
X6958277Y-15514460D01*
X6958277Y-15514460D02*
X6948753Y-15495412D01*
X6948753Y-15495412D02*
X6948753Y-15419222D01*
X6948753Y-15419222D02*
X6958277Y-15400174D01*
X6958277Y-15400174D02*
X6977325Y-15390650D01*
X6977325Y-15390650D02*
X7015420Y-15390650D01*
X7015420Y-15390650D02*
X7034468Y-15400174D01*
X7034468Y-15400174D02*
X7043991Y-15419222D01*
X7043991Y-15419222D02*
X7043991Y-15438269D01*
X7043991Y-15438269D02*
X6948753Y-15457317D01*
X7120182Y-15514460D02*
X7139230Y-15523984D01*
X7139230Y-15523984D02*
X7177325Y-15523984D01*
X7177325Y-15523984D02*
X7196372Y-15514460D01*
X7196372Y-15514460D02*
X7205896Y-15495412D01*
X7205896Y-15495412D02*
X7205896Y-15485888D01*
X7205896Y-15485888D02*
X7196372Y-15466841D01*
X7196372Y-15466841D02*
X7177325Y-15457317D01*
X7177325Y-15457317D02*
X7148753Y-15457317D01*
X7148753Y-15457317D02*
X7129706Y-15447793D01*
X7129706Y-15447793D02*
X7120182Y-15428746D01*
X7120182Y-15428746D02*
X7120182Y-15419222D01*
X7120182Y-15419222D02*
X7129706Y-15400174D01*
X7129706Y-15400174D02*
X7148753Y-15390650D01*
X7148753Y-15390650D02*
X7177325Y-15390650D01*
X7177325Y-15390650D02*
X7196372Y-15400174D01*
X7272563Y-15600174D02*
X7282087Y-15590650D01*
X7282087Y-15590650D02*
X7301134Y-15562079D01*
X7301134Y-15562079D02*
X7310658Y-15543031D01*
X7310658Y-15543031D02*
X7320182Y-15514460D01*
X7320182Y-15514460D02*
X7329706Y-15466841D01*
X7329706Y-15466841D02*
X7329706Y-15428746D01*
X7329706Y-15428746D02*
X7320182Y-15381127D01*
X7320182Y-15381127D02*
X7310658Y-15352555D01*
X7310658Y-15352555D02*
X7301134Y-15333508D01*
X7301134Y-15333508D02*
X7282087Y-15304936D01*
X7282087Y-15304936D02*
X7272563Y-15295412D01*
X7634468Y-15600174D02*
X7624944Y-15590650D01*
X7624944Y-15590650D02*
X7605896Y-15562079D01*
X7605896Y-15562079D02*
X7596372Y-15543031D01*
X7596372Y-15543031D02*
X7586849Y-15514460D01*
X7586849Y-15514460D02*
X7577325Y-15466841D01*
X7577325Y-15466841D02*
X7577325Y-15428746D01*
X7577325Y-15428746D02*
X7586849Y-15381127D01*
X7586849Y-15381127D02*
X7596372Y-15352555D01*
X7596372Y-15352555D02*
X7605896Y-15333508D01*
X7605896Y-15333508D02*
X7624944Y-15304936D01*
X7624944Y-15304936D02*
X7634468Y-15295412D01*
X7710658Y-15390650D02*
X7710658Y-15523984D01*
X7710658Y-15409698D02*
X7720182Y-15400174D01*
X7720182Y-15400174D02*
X7739230Y-15390650D01*
X7739230Y-15390650D02*
X7767801Y-15390650D01*
X7767801Y-15390650D02*
X7786849Y-15400174D01*
X7786849Y-15400174D02*
X7796372Y-15419222D01*
X7796372Y-15419222D02*
X7796372Y-15523984D01*
X7920182Y-15523984D02*
X7901134Y-15514460D01*
X7901134Y-15514460D02*
X7891611Y-15504936D01*
X7891611Y-15504936D02*
X7882087Y-15485888D01*
X7882087Y-15485888D02*
X7882087Y-15428746D01*
X7882087Y-15428746D02*
X7891611Y-15409698D01*
X7891611Y-15409698D02*
X7901134Y-15400174D01*
X7901134Y-15400174D02*
X7920182Y-15390650D01*
X7920182Y-15390650D02*
X7948753Y-15390650D01*
X7948753Y-15390650D02*
X7967801Y-15400174D01*
X7967801Y-15400174D02*
X7977325Y-15409698D01*
X7977325Y-15409698D02*
X7986849Y-15428746D01*
X7986849Y-15428746D02*
X7986849Y-15485888D01*
X7986849Y-15485888D02*
X7977325Y-15504936D01*
X7977325Y-15504936D02*
X7967801Y-15514460D01*
X7967801Y-15514460D02*
X7948753Y-15523984D01*
X7948753Y-15523984D02*
X7920182Y-15523984D01*
X8043992Y-15390650D02*
X8120182Y-15390650D01*
X8072563Y-15323984D02*
X8072563Y-15495412D01*
X8072563Y-15495412D02*
X8082087Y-15514460D01*
X8082087Y-15514460D02*
X8101134Y-15523984D01*
X8101134Y-15523984D02*
X8120182Y-15523984D01*
X8339230Y-15390650D02*
X8339230Y-15590650D01*
X8339230Y-15400174D02*
X8358277Y-15390650D01*
X8358277Y-15390650D02*
X8396373Y-15390650D01*
X8396373Y-15390650D02*
X8415420Y-15400174D01*
X8415420Y-15400174D02*
X8424944Y-15409698D01*
X8424944Y-15409698D02*
X8434468Y-15428746D01*
X8434468Y-15428746D02*
X8434468Y-15485888D01*
X8434468Y-15485888D02*
X8424944Y-15504936D01*
X8424944Y-15504936D02*
X8415420Y-15514460D01*
X8415420Y-15514460D02*
X8396373Y-15523984D01*
X8396373Y-15523984D02*
X8358277Y-15523984D01*
X8358277Y-15523984D02*
X8339230Y-15514460D01*
X8548754Y-15523984D02*
X8529706Y-15514460D01*
X8529706Y-15514460D02*
X8520182Y-15495412D01*
X8520182Y-15495412D02*
X8520182Y-15323984D01*
X8710658Y-15523984D02*
X8710658Y-15419222D01*
X8710658Y-15419222D02*
X8701135Y-15400174D01*
X8701135Y-15400174D02*
X8682087Y-15390650D01*
X8682087Y-15390650D02*
X8643992Y-15390650D01*
X8643992Y-15390650D02*
X8624944Y-15400174D01*
X8710658Y-15514460D02*
X8691611Y-15523984D01*
X8691611Y-15523984D02*
X8643992Y-15523984D01*
X8643992Y-15523984D02*
X8624944Y-15514460D01*
X8624944Y-15514460D02*
X8615420Y-15495412D01*
X8615420Y-15495412D02*
X8615420Y-15476365D01*
X8615420Y-15476365D02*
X8624944Y-15457317D01*
X8624944Y-15457317D02*
X8643992Y-15447793D01*
X8643992Y-15447793D02*
X8691611Y-15447793D01*
X8691611Y-15447793D02*
X8710658Y-15438269D01*
X8777325Y-15390650D02*
X8853515Y-15390650D01*
X8805896Y-15323984D02*
X8805896Y-15495412D01*
X8805896Y-15495412D02*
X8815420Y-15514460D01*
X8815420Y-15514460D02*
X8834468Y-15523984D01*
X8834468Y-15523984D02*
X8853515Y-15523984D01*
X8996373Y-15514460D02*
X8977325Y-15523984D01*
X8977325Y-15523984D02*
X8939230Y-15523984D01*
X8939230Y-15523984D02*
X8920182Y-15514460D01*
X8920182Y-15514460D02*
X8910658Y-15495412D01*
X8910658Y-15495412D02*
X8910658Y-15419222D01*
X8910658Y-15419222D02*
X8920182Y-15400174D01*
X8920182Y-15400174D02*
X8939230Y-15390650D01*
X8939230Y-15390650D02*
X8977325Y-15390650D01*
X8977325Y-15390650D02*
X8996373Y-15400174D01*
X8996373Y-15400174D02*
X9005896Y-15419222D01*
X9005896Y-15419222D02*
X9005896Y-15438269D01*
X9005896Y-15438269D02*
X8910658Y-15457317D01*
X9177325Y-15523984D02*
X9177325Y-15323984D01*
X9177325Y-15514460D02*
X9158277Y-15523984D01*
X9158277Y-15523984D02*
X9120182Y-15523984D01*
X9120182Y-15523984D02*
X9101135Y-15514460D01*
X9101135Y-15514460D02*
X9091611Y-15504936D01*
X9091611Y-15504936D02*
X9082087Y-15485888D01*
X9082087Y-15485888D02*
X9082087Y-15428746D01*
X9082087Y-15428746D02*
X9091611Y-15409698D01*
X9091611Y-15409698D02*
X9101135Y-15400174D01*
X9101135Y-15400174D02*
X9120182Y-15390650D01*
X9120182Y-15390650D02*
X9158277Y-15390650D01*
X9158277Y-15390650D02*
X9177325Y-15400174D01*
X9253516Y-15600174D02*
X9263039Y-15590650D01*
X9263039Y-15590650D02*
X9282087Y-15562079D01*
X9282087Y-15562079D02*
X9291611Y-15543031D01*
X9291611Y-15543031D02*
X9301135Y-15514460D01*
X9301135Y-15514460D02*
X9310658Y-15466841D01*
X9310658Y-15466841D02*
X9310658Y-15428746D01*
X9310658Y-15428746D02*
X9301135Y-15381127D01*
X9301135Y-15381127D02*
X9291611Y-15352555D01*
X9291611Y-15352555D02*
X9282087Y-15333508D01*
X9282087Y-15333508D02*
X9263039Y-15304936D01*
X9263039Y-15304936D02*
X9253516Y-15295412D01*
X2397500Y-15652500D02*
X2397500Y-15852500D01*
X2297500Y-15752500D02*
X2497500Y-15752500D01*
X2843991Y-15710650D02*
X2843991Y-15843984D01*
X2796372Y-15634460D02*
X2748753Y-15777317D01*
X2748753Y-15777317D02*
X2872562Y-15777317D01*
X2948753Y-15824936D02*
X2958277Y-15834460D01*
X2958277Y-15834460D02*
X2948753Y-15843984D01*
X2948753Y-15843984D02*
X2939229Y-15834460D01*
X2939229Y-15834460D02*
X2948753Y-15824936D01*
X2948753Y-15824936D02*
X2948753Y-15843984D01*
X3082086Y-15643984D02*
X3101134Y-15643984D01*
X3101134Y-15643984D02*
X3120182Y-15653508D01*
X3120182Y-15653508D02*
X3129705Y-15663031D01*
X3129705Y-15663031D02*
X3139229Y-15682079D01*
X3139229Y-15682079D02*
X3148753Y-15720174D01*
X3148753Y-15720174D02*
X3148753Y-15767793D01*
X3148753Y-15767793D02*
X3139229Y-15805888D01*
X3139229Y-15805888D02*
X3129705Y-15824936D01*
X3129705Y-15824936D02*
X3120182Y-15834460D01*
X3120182Y-15834460D02*
X3101134Y-15843984D01*
X3101134Y-15843984D02*
X3082086Y-15843984D01*
X3082086Y-15843984D02*
X3063039Y-15834460D01*
X3063039Y-15834460D02*
X3053515Y-15824936D01*
X3053515Y-15824936D02*
X3043991Y-15805888D01*
X3043991Y-15805888D02*
X3034467Y-15767793D01*
X3034467Y-15767793D02*
X3034467Y-15720174D01*
X3034467Y-15720174D02*
X3043991Y-15682079D01*
X3043991Y-15682079D02*
X3053515Y-15663031D01*
X3053515Y-15663031D02*
X3063039Y-15653508D01*
X3063039Y-15653508D02*
X3082086Y-15643984D01*
X3272562Y-15643984D02*
X3291610Y-15643984D01*
X3291610Y-15643984D02*
X3310658Y-15653508D01*
X3310658Y-15653508D02*
X3320182Y-15663031D01*
X3320182Y-15663031D02*
X3329705Y-15682079D01*
X3329705Y-15682079D02*
X3339229Y-15720174D01*
X3339229Y-15720174D02*
X3339229Y-15767793D01*
X3339229Y-15767793D02*
X3329705Y-15805888D01*
X3329705Y-15805888D02*
X3320182Y-15824936D01*
X3320182Y-15824936D02*
X3310658Y-15834460D01*
X3310658Y-15834460D02*
X3291610Y-15843984D01*
X3291610Y-15843984D02*
X3272562Y-15843984D01*
X3272562Y-15843984D02*
X3253515Y-15834460D01*
X3253515Y-15834460D02*
X3243991Y-15824936D01*
X3243991Y-15824936D02*
X3234467Y-15805888D01*
X3234467Y-15805888D02*
X3224943Y-15767793D01*
X3224943Y-15767793D02*
X3224943Y-15720174D01*
X3224943Y-15720174D02*
X3234467Y-15682079D01*
X3234467Y-15682079D02*
X3243991Y-15663031D01*
X3243991Y-15663031D02*
X3253515Y-15653508D01*
X3253515Y-15653508D02*
X3272562Y-15643984D01*
X3463039Y-15643984D02*
X3482086Y-15643984D01*
X3482086Y-15643984D02*
X3501134Y-15653508D01*
X3501134Y-15653508D02*
X3510658Y-15663031D01*
X3510658Y-15663031D02*
X3520182Y-15682079D01*
X3520182Y-15682079D02*
X3529705Y-15720174D01*
X3529705Y-15720174D02*
X3529705Y-15767793D01*
X3529705Y-15767793D02*
X3520182Y-15805888D01*
X3520182Y-15805888D02*
X3510658Y-15824936D01*
X3510658Y-15824936D02*
X3501134Y-15834460D01*
X3501134Y-15834460D02*
X3482086Y-15843984D01*
X3482086Y-15843984D02*
X3463039Y-15843984D01*
X3463039Y-15843984D02*
X3443991Y-15834460D01*
X3443991Y-15834460D02*
X3434467Y-15824936D01*
X3434467Y-15824936D02*
X3424943Y-15805888D01*
X3424943Y-15805888D02*
X3415420Y-15767793D01*
X3415420Y-15767793D02*
X3415420Y-15720174D01*
X3415420Y-15720174D02*
X3424943Y-15682079D01*
X3424943Y-15682079D02*
X3434467Y-15663031D01*
X3434467Y-15663031D02*
X3443991Y-15653508D01*
X3443991Y-15653508D02*
X3463039Y-15643984D01*
X3615420Y-15843984D02*
X3615420Y-15710650D01*
X3615420Y-15729698D02*
X3624943Y-15720174D01*
X3624943Y-15720174D02*
X3643991Y-15710650D01*
X3643991Y-15710650D02*
X3672563Y-15710650D01*
X3672563Y-15710650D02*
X3691610Y-15720174D01*
X3691610Y-15720174D02*
X3701134Y-15739222D01*
X3701134Y-15739222D02*
X3701134Y-15843984D01*
X3701134Y-15739222D02*
X3710658Y-15720174D01*
X3710658Y-15720174D02*
X3729705Y-15710650D01*
X3729705Y-15710650D02*
X3758277Y-15710650D01*
X3758277Y-15710650D02*
X3777324Y-15720174D01*
X3777324Y-15720174D02*
X3786848Y-15739222D01*
X3786848Y-15739222D02*
X3786848Y-15843984D01*
X3882086Y-15843984D02*
X3882086Y-15710650D01*
X3882086Y-15729698D02*
X3891610Y-15720174D01*
X3891610Y-15720174D02*
X3910658Y-15710650D01*
X3910658Y-15710650D02*
X3939229Y-15710650D01*
X3939229Y-15710650D02*
X3958277Y-15720174D01*
X3958277Y-15720174D02*
X3967801Y-15739222D01*
X3967801Y-15739222D02*
X3967801Y-15843984D01*
X3967801Y-15739222D02*
X3977324Y-15720174D01*
X3977324Y-15720174D02*
X3996372Y-15710650D01*
X3996372Y-15710650D02*
X4024943Y-15710650D01*
X4024943Y-15710650D02*
X4043991Y-15720174D01*
X4043991Y-15720174D02*
X4053515Y-15739222D01*
X4053515Y-15739222D02*
X4053515Y-15843984D01*
X4443991Y-15634460D02*
X4272563Y-15891603D01*
X4701134Y-15643984D02*
X4720182Y-15643984D01*
X4720182Y-15643984D02*
X4739229Y-15653508D01*
X4739229Y-15653508D02*
X4748753Y-15663031D01*
X4748753Y-15663031D02*
X4758277Y-15682079D01*
X4758277Y-15682079D02*
X4767801Y-15720174D01*
X4767801Y-15720174D02*
X4767801Y-15767793D01*
X4767801Y-15767793D02*
X4758277Y-15805888D01*
X4758277Y-15805888D02*
X4748753Y-15824936D01*
X4748753Y-15824936D02*
X4739229Y-15834460D01*
X4739229Y-15834460D02*
X4720182Y-15843984D01*
X4720182Y-15843984D02*
X4701134Y-15843984D01*
X4701134Y-15843984D02*
X4682087Y-15834460D01*
X4682087Y-15834460D02*
X4672563Y-15824936D01*
X4672563Y-15824936D02*
X4663039Y-15805888D01*
X4663039Y-15805888D02*
X4653515Y-15767793D01*
X4653515Y-15767793D02*
X4653515Y-15720174D01*
X4653515Y-15720174D02*
X4663039Y-15682079D01*
X4663039Y-15682079D02*
X4672563Y-15663031D01*
X4672563Y-15663031D02*
X4682087Y-15653508D01*
X4682087Y-15653508D02*
X4701134Y-15643984D01*
X4853515Y-15824936D02*
X4863039Y-15834460D01*
X4863039Y-15834460D02*
X4853515Y-15843984D01*
X4853515Y-15843984D02*
X4843991Y-15834460D01*
X4843991Y-15834460D02*
X4853515Y-15824936D01*
X4853515Y-15824936D02*
X4853515Y-15843984D01*
X5053515Y-15843984D02*
X4939229Y-15843984D01*
X4996372Y-15843984D02*
X4996372Y-15643984D01*
X4996372Y-15643984D02*
X4977325Y-15672555D01*
X4977325Y-15672555D02*
X4958277Y-15691603D01*
X4958277Y-15691603D02*
X4939229Y-15701127D01*
X5234468Y-15643984D02*
X5139229Y-15643984D01*
X5139229Y-15643984D02*
X5129706Y-15739222D01*
X5129706Y-15739222D02*
X5139229Y-15729698D01*
X5139229Y-15729698D02*
X5158277Y-15720174D01*
X5158277Y-15720174D02*
X5205896Y-15720174D01*
X5205896Y-15720174D02*
X5224944Y-15729698D01*
X5224944Y-15729698D02*
X5234468Y-15739222D01*
X5234468Y-15739222D02*
X5243991Y-15758269D01*
X5243991Y-15758269D02*
X5243991Y-15805888D01*
X5243991Y-15805888D02*
X5234468Y-15824936D01*
X5234468Y-15824936D02*
X5224944Y-15834460D01*
X5224944Y-15834460D02*
X5205896Y-15843984D01*
X5205896Y-15843984D02*
X5158277Y-15843984D01*
X5158277Y-15843984D02*
X5139229Y-15834460D01*
X5139229Y-15834460D02*
X5129706Y-15824936D01*
X5310658Y-15643984D02*
X5443991Y-15643984D01*
X5443991Y-15643984D02*
X5358277Y-15843984D01*
X5615420Y-15643984D02*
X5520182Y-15643984D01*
X5520182Y-15643984D02*
X5510658Y-15739222D01*
X5510658Y-15739222D02*
X5520182Y-15729698D01*
X5520182Y-15729698D02*
X5539229Y-15720174D01*
X5539229Y-15720174D02*
X5586849Y-15720174D01*
X5586849Y-15720174D02*
X5605896Y-15729698D01*
X5605896Y-15729698D02*
X5615420Y-15739222D01*
X5615420Y-15739222D02*
X5624944Y-15758269D01*
X5624944Y-15758269D02*
X5624944Y-15805888D01*
X5624944Y-15805888D02*
X5615420Y-15824936D01*
X5615420Y-15824936D02*
X5605896Y-15834460D01*
X5605896Y-15834460D02*
X5586849Y-15843984D01*
X5586849Y-15843984D02*
X5539229Y-15843984D01*
X5539229Y-15843984D02*
X5520182Y-15834460D01*
X5520182Y-15834460D02*
X5510658Y-15824936D01*
X5701134Y-15643984D02*
X5701134Y-15682079D01*
X5777325Y-15643984D02*
X5777325Y-15682079D01*
X6072563Y-15920174D02*
X6063039Y-15910650D01*
X6063039Y-15910650D02*
X6043991Y-15882079D01*
X6043991Y-15882079D02*
X6034468Y-15863031D01*
X6034468Y-15863031D02*
X6024944Y-15834460D01*
X6024944Y-15834460D02*
X6015420Y-15786841D01*
X6015420Y-15786841D02*
X6015420Y-15748746D01*
X6015420Y-15748746D02*
X6024944Y-15701127D01*
X6024944Y-15701127D02*
X6034468Y-15672555D01*
X6034468Y-15672555D02*
X6043991Y-15653508D01*
X6043991Y-15653508D02*
X6063039Y-15624936D01*
X6063039Y-15624936D02*
X6072563Y-15615412D01*
X6234468Y-15710650D02*
X6234468Y-15843984D01*
X6186848Y-15634460D02*
X6139229Y-15777317D01*
X6139229Y-15777317D02*
X6263039Y-15777317D01*
X6491610Y-15843984D02*
X6491610Y-15643984D01*
X6577325Y-15843984D02*
X6577325Y-15739222D01*
X6577325Y-15739222D02*
X6567801Y-15720174D01*
X6567801Y-15720174D02*
X6548753Y-15710650D01*
X6548753Y-15710650D02*
X6520182Y-15710650D01*
X6520182Y-15710650D02*
X6501134Y-15720174D01*
X6501134Y-15720174D02*
X6491610Y-15729698D01*
X6701134Y-15843984D02*
X6682087Y-15834460D01*
X6682087Y-15834460D02*
X6672563Y-15824936D01*
X6672563Y-15824936D02*
X6663039Y-15805888D01*
X6663039Y-15805888D02*
X6663039Y-15748746D01*
X6663039Y-15748746D02*
X6672563Y-15729698D01*
X6672563Y-15729698D02*
X6682087Y-15720174D01*
X6682087Y-15720174D02*
X6701134Y-15710650D01*
X6701134Y-15710650D02*
X6729706Y-15710650D01*
X6729706Y-15710650D02*
X6748753Y-15720174D01*
X6748753Y-15720174D02*
X6758277Y-15729698D01*
X6758277Y-15729698D02*
X6767801Y-15748746D01*
X6767801Y-15748746D02*
X6767801Y-15805888D01*
X6767801Y-15805888D02*
X6758277Y-15824936D01*
X6758277Y-15824936D02*
X6748753Y-15834460D01*
X6748753Y-15834460D02*
X6729706Y-15843984D01*
X6729706Y-15843984D02*
X6701134Y-15843984D01*
X6882087Y-15843984D02*
X6863039Y-15834460D01*
X6863039Y-15834460D02*
X6853515Y-15815412D01*
X6853515Y-15815412D02*
X6853515Y-15643984D01*
X7034468Y-15834460D02*
X7015420Y-15843984D01*
X7015420Y-15843984D02*
X6977325Y-15843984D01*
X6977325Y-15843984D02*
X6958277Y-15834460D01*
X6958277Y-15834460D02*
X6948753Y-15815412D01*
X6948753Y-15815412D02*
X6948753Y-15739222D01*
X6948753Y-15739222D02*
X6958277Y-15720174D01*
X6958277Y-15720174D02*
X6977325Y-15710650D01*
X6977325Y-15710650D02*
X7015420Y-15710650D01*
X7015420Y-15710650D02*
X7034468Y-15720174D01*
X7034468Y-15720174D02*
X7043991Y-15739222D01*
X7043991Y-15739222D02*
X7043991Y-15758269D01*
X7043991Y-15758269D02*
X6948753Y-15777317D01*
X7120182Y-15834460D02*
X7139230Y-15843984D01*
X7139230Y-15843984D02*
X7177325Y-15843984D01*
X7177325Y-15843984D02*
X7196372Y-15834460D01*
X7196372Y-15834460D02*
X7205896Y-15815412D01*
X7205896Y-15815412D02*
X7205896Y-15805888D01*
X7205896Y-15805888D02*
X7196372Y-15786841D01*
X7196372Y-15786841D02*
X7177325Y-15777317D01*
X7177325Y-15777317D02*
X7148753Y-15777317D01*
X7148753Y-15777317D02*
X7129706Y-15767793D01*
X7129706Y-15767793D02*
X7120182Y-15748746D01*
X7120182Y-15748746D02*
X7120182Y-15739222D01*
X7120182Y-15739222D02*
X7129706Y-15720174D01*
X7129706Y-15720174D02*
X7148753Y-15710650D01*
X7148753Y-15710650D02*
X7177325Y-15710650D01*
X7177325Y-15710650D02*
X7196372Y-15720174D01*
X7272563Y-15920174D02*
X7282087Y-15910650D01*
X7282087Y-15910650D02*
X7301134Y-15882079D01*
X7301134Y-15882079D02*
X7310658Y-15863031D01*
X7310658Y-15863031D02*
X7320182Y-15834460D01*
X7320182Y-15834460D02*
X7329706Y-15786841D01*
X7329706Y-15786841D02*
X7329706Y-15748746D01*
X7329706Y-15748746D02*
X7320182Y-15701127D01*
X7320182Y-15701127D02*
X7310658Y-15672555D01*
X7310658Y-15672555D02*
X7301134Y-15653508D01*
X7301134Y-15653508D02*
X7282087Y-15624936D01*
X7282087Y-15624936D02*
X7272563Y-15615412D01*
X7634468Y-15920174D02*
X7624944Y-15910650D01*
X7624944Y-15910650D02*
X7605896Y-15882079D01*
X7605896Y-15882079D02*
X7596372Y-15863031D01*
X7596372Y-15863031D02*
X7586849Y-15834460D01*
X7586849Y-15834460D02*
X7577325Y-15786841D01*
X7577325Y-15786841D02*
X7577325Y-15748746D01*
X7577325Y-15748746D02*
X7586849Y-15701127D01*
X7586849Y-15701127D02*
X7596372Y-15672555D01*
X7596372Y-15672555D02*
X7605896Y-15653508D01*
X7605896Y-15653508D02*
X7624944Y-15624936D01*
X7624944Y-15624936D02*
X7634468Y-15615412D01*
X7710658Y-15710650D02*
X7710658Y-15843984D01*
X7710658Y-15729698D02*
X7720182Y-15720174D01*
X7720182Y-15720174D02*
X7739230Y-15710650D01*
X7739230Y-15710650D02*
X7767801Y-15710650D01*
X7767801Y-15710650D02*
X7786849Y-15720174D01*
X7786849Y-15720174D02*
X7796372Y-15739222D01*
X7796372Y-15739222D02*
X7796372Y-15843984D01*
X7920182Y-15843984D02*
X7901134Y-15834460D01*
X7901134Y-15834460D02*
X7891611Y-15824936D01*
X7891611Y-15824936D02*
X7882087Y-15805888D01*
X7882087Y-15805888D02*
X7882087Y-15748746D01*
X7882087Y-15748746D02*
X7891611Y-15729698D01*
X7891611Y-15729698D02*
X7901134Y-15720174D01*
X7901134Y-15720174D02*
X7920182Y-15710650D01*
X7920182Y-15710650D02*
X7948753Y-15710650D01*
X7948753Y-15710650D02*
X7967801Y-15720174D01*
X7967801Y-15720174D02*
X7977325Y-15729698D01*
X7977325Y-15729698D02*
X7986849Y-15748746D01*
X7986849Y-15748746D02*
X7986849Y-15805888D01*
X7986849Y-15805888D02*
X7977325Y-15824936D01*
X7977325Y-15824936D02*
X7967801Y-15834460D01*
X7967801Y-15834460D02*
X7948753Y-15843984D01*
X7948753Y-15843984D02*
X7920182Y-15843984D01*
X8043992Y-15710650D02*
X8120182Y-15710650D01*
X8072563Y-15643984D02*
X8072563Y-15815412D01*
X8072563Y-15815412D02*
X8082087Y-15834460D01*
X8082087Y-15834460D02*
X8101134Y-15843984D01*
X8101134Y-15843984D02*
X8120182Y-15843984D01*
X8339230Y-15710650D02*
X8339230Y-15910650D01*
X8339230Y-15720174D02*
X8358277Y-15710650D01*
X8358277Y-15710650D02*
X8396373Y-15710650D01*
X8396373Y-15710650D02*
X8415420Y-15720174D01*
X8415420Y-15720174D02*
X8424944Y-15729698D01*
X8424944Y-15729698D02*
X8434468Y-15748746D01*
X8434468Y-15748746D02*
X8434468Y-15805888D01*
X8434468Y-15805888D02*
X8424944Y-15824936D01*
X8424944Y-15824936D02*
X8415420Y-15834460D01*
X8415420Y-15834460D02*
X8396373Y-15843984D01*
X8396373Y-15843984D02*
X8358277Y-15843984D01*
X8358277Y-15843984D02*
X8339230Y-15834460D01*
X8548754Y-15843984D02*
X8529706Y-15834460D01*
X8529706Y-15834460D02*
X8520182Y-15815412D01*
X8520182Y-15815412D02*
X8520182Y-15643984D01*
X8710658Y-15843984D02*
X8710658Y-15739222D01*
X8710658Y-15739222D02*
X8701135Y-15720174D01*
X8701135Y-15720174D02*
X8682087Y-15710650D01*
X8682087Y-15710650D02*
X8643992Y-15710650D01*
X8643992Y-15710650D02*
X8624944Y-15720174D01*
X8710658Y-15834460D02*
X8691611Y-15843984D01*
X8691611Y-15843984D02*
X8643992Y-15843984D01*
X8643992Y-15843984D02*
X8624944Y-15834460D01*
X8624944Y-15834460D02*
X8615420Y-15815412D01*
X8615420Y-15815412D02*
X8615420Y-15796365D01*
X8615420Y-15796365D02*
X8624944Y-15777317D01*
X8624944Y-15777317D02*
X8643992Y-15767793D01*
X8643992Y-15767793D02*
X8691611Y-15767793D01*
X8691611Y-15767793D02*
X8710658Y-15758269D01*
X8777325Y-15710650D02*
X8853515Y-15710650D01*
X8805896Y-15643984D02*
X8805896Y-15815412D01*
X8805896Y-15815412D02*
X8815420Y-15834460D01*
X8815420Y-15834460D02*
X8834468Y-15843984D01*
X8834468Y-15843984D02*
X8853515Y-15843984D01*
X8996373Y-15834460D02*
X8977325Y-15843984D01*
X8977325Y-15843984D02*
X8939230Y-15843984D01*
X8939230Y-15843984D02*
X8920182Y-15834460D01*
X8920182Y-15834460D02*
X8910658Y-15815412D01*
X8910658Y-15815412D02*
X8910658Y-15739222D01*
X8910658Y-15739222D02*
X8920182Y-15720174D01*
X8920182Y-15720174D02*
X8939230Y-15710650D01*
X8939230Y-15710650D02*
X8977325Y-15710650D01*
X8977325Y-15710650D02*
X8996373Y-15720174D01*
X8996373Y-15720174D02*
X9005896Y-15739222D01*
X9005896Y-15739222D02*
X9005896Y-15758269D01*
X9005896Y-15758269D02*
X8910658Y-15777317D01*
X9177325Y-15843984D02*
X9177325Y-15643984D01*
X9177325Y-15834460D02*
X9158277Y-15843984D01*
X9158277Y-15843984D02*
X9120182Y-15843984D01*
X9120182Y-15843984D02*
X9101135Y-15834460D01*
X9101135Y-15834460D02*
X9091611Y-15824936D01*
X9091611Y-15824936D02*
X9082087Y-15805888D01*
X9082087Y-15805888D02*
X9082087Y-15748746D01*
X9082087Y-15748746D02*
X9091611Y-15729698D01*
X9091611Y-15729698D02*
X9101135Y-15720174D01*
X9101135Y-15720174D02*
X9120182Y-15710650D01*
X9120182Y-15710650D02*
X9158277Y-15710650D01*
X9158277Y-15710650D02*
X9177325Y-15720174D01*
X9253516Y-15920174D02*
X9263039Y-15910650D01*
X9263039Y-15910650D02*
X9282087Y-15882079D01*
X9282087Y-15882079D02*
X9291611Y-15863031D01*
X9291611Y-15863031D02*
X9301135Y-15834460D01*
X9301135Y-15834460D02*
X9310658Y-15786841D01*
X9310658Y-15786841D02*
X9310658Y-15748746D01*
X9310658Y-15748746D02*
X9301135Y-15701127D01*
X9301135Y-15701127D02*
X9291611Y-15672555D01*
X9291611Y-15672555D02*
X9282087Y-15653508D01*
X9282087Y-15653508D02*
X9263039Y-15624936D01*
X9263039Y-15624936D02*
X9253516Y-15615412D01*
X2468211Y-16143211D02*
X2468211Y-16001789D01*
X2326789Y-16001789D01*
X2326789Y-16143211D01*
X2468211Y-16143211D01*
X2843991Y-15963984D02*
X2805896Y-15963984D01*
X2805896Y-15963984D02*
X2786848Y-15973508D01*
X2786848Y-15973508D02*
X2777324Y-15983031D01*
X2777324Y-15983031D02*
X2758277Y-16011603D01*
X2758277Y-16011603D02*
X2748753Y-16049698D01*
X2748753Y-16049698D02*
X2748753Y-16125888D01*
X2748753Y-16125888D02*
X2758277Y-16144936D01*
X2758277Y-16144936D02*
X2767801Y-16154460D01*
X2767801Y-16154460D02*
X2786848Y-16163984D01*
X2786848Y-16163984D02*
X2824943Y-16163984D01*
X2824943Y-16163984D02*
X2843991Y-16154460D01*
X2843991Y-16154460D02*
X2853515Y-16144936D01*
X2853515Y-16144936D02*
X2863039Y-16125888D01*
X2863039Y-16125888D02*
X2863039Y-16078269D01*
X2863039Y-16078269D02*
X2853515Y-16059222D01*
X2853515Y-16059222D02*
X2843991Y-16049698D01*
X2843991Y-16049698D02*
X2824943Y-16040174D01*
X2824943Y-16040174D02*
X2786848Y-16040174D01*
X2786848Y-16040174D02*
X2767801Y-16049698D01*
X2767801Y-16049698D02*
X2758277Y-16059222D01*
X2758277Y-16059222D02*
X2748753Y-16078269D01*
X2948753Y-16144936D02*
X2958277Y-16154460D01*
X2958277Y-16154460D02*
X2948753Y-16163984D01*
X2948753Y-16163984D02*
X2939229Y-16154460D01*
X2939229Y-16154460D02*
X2948753Y-16144936D01*
X2948753Y-16144936D02*
X2948753Y-16163984D01*
X3024943Y-15963984D02*
X3148753Y-15963984D01*
X3148753Y-15963984D02*
X3082086Y-16040174D01*
X3082086Y-16040174D02*
X3110658Y-16040174D01*
X3110658Y-16040174D02*
X3129705Y-16049698D01*
X3129705Y-16049698D02*
X3139229Y-16059222D01*
X3139229Y-16059222D02*
X3148753Y-16078269D01*
X3148753Y-16078269D02*
X3148753Y-16125888D01*
X3148753Y-16125888D02*
X3139229Y-16144936D01*
X3139229Y-16144936D02*
X3129705Y-16154460D01*
X3129705Y-16154460D02*
X3110658Y-16163984D01*
X3110658Y-16163984D02*
X3053515Y-16163984D01*
X3053515Y-16163984D02*
X3034467Y-16154460D01*
X3034467Y-16154460D02*
X3024943Y-16144936D01*
X3329705Y-15963984D02*
X3234467Y-15963984D01*
X3234467Y-15963984D02*
X3224943Y-16059222D01*
X3224943Y-16059222D02*
X3234467Y-16049698D01*
X3234467Y-16049698D02*
X3253515Y-16040174D01*
X3253515Y-16040174D02*
X3301134Y-16040174D01*
X3301134Y-16040174D02*
X3320182Y-16049698D01*
X3320182Y-16049698D02*
X3329705Y-16059222D01*
X3329705Y-16059222D02*
X3339229Y-16078269D01*
X3339229Y-16078269D02*
X3339229Y-16125888D01*
X3339229Y-16125888D02*
X3329705Y-16144936D01*
X3329705Y-16144936D02*
X3320182Y-16154460D01*
X3320182Y-16154460D02*
X3301134Y-16163984D01*
X3301134Y-16163984D02*
X3253515Y-16163984D01*
X3253515Y-16163984D02*
X3234467Y-16154460D01*
X3234467Y-16154460D02*
X3224943Y-16144936D01*
X3463039Y-15963984D02*
X3482086Y-15963984D01*
X3482086Y-15963984D02*
X3501134Y-15973508D01*
X3501134Y-15973508D02*
X3510658Y-15983031D01*
X3510658Y-15983031D02*
X3520182Y-16002079D01*
X3520182Y-16002079D02*
X3529705Y-16040174D01*
X3529705Y-16040174D02*
X3529705Y-16087793D01*
X3529705Y-16087793D02*
X3520182Y-16125888D01*
X3520182Y-16125888D02*
X3510658Y-16144936D01*
X3510658Y-16144936D02*
X3501134Y-16154460D01*
X3501134Y-16154460D02*
X3482086Y-16163984D01*
X3482086Y-16163984D02*
X3463039Y-16163984D01*
X3463039Y-16163984D02*
X3443991Y-16154460D01*
X3443991Y-16154460D02*
X3434467Y-16144936D01*
X3434467Y-16144936D02*
X3424943Y-16125888D01*
X3424943Y-16125888D02*
X3415420Y-16087793D01*
X3415420Y-16087793D02*
X3415420Y-16040174D01*
X3415420Y-16040174D02*
X3424943Y-16002079D01*
X3424943Y-16002079D02*
X3434467Y-15983031D01*
X3434467Y-15983031D02*
X3443991Y-15973508D01*
X3443991Y-15973508D02*
X3463039Y-15963984D01*
X3615420Y-16163984D02*
X3615420Y-16030650D01*
X3615420Y-16049698D02*
X3624943Y-16040174D01*
X3624943Y-16040174D02*
X3643991Y-16030650D01*
X3643991Y-16030650D02*
X3672563Y-16030650D01*
X3672563Y-16030650D02*
X3691610Y-16040174D01*
X3691610Y-16040174D02*
X3701134Y-16059222D01*
X3701134Y-16059222D02*
X3701134Y-16163984D01*
X3701134Y-16059222D02*
X3710658Y-16040174D01*
X3710658Y-16040174D02*
X3729705Y-16030650D01*
X3729705Y-16030650D02*
X3758277Y-16030650D01*
X3758277Y-16030650D02*
X3777324Y-16040174D01*
X3777324Y-16040174D02*
X3786848Y-16059222D01*
X3786848Y-16059222D02*
X3786848Y-16163984D01*
X3882086Y-16163984D02*
X3882086Y-16030650D01*
X3882086Y-16049698D02*
X3891610Y-16040174D01*
X3891610Y-16040174D02*
X3910658Y-16030650D01*
X3910658Y-16030650D02*
X3939229Y-16030650D01*
X3939229Y-16030650D02*
X3958277Y-16040174D01*
X3958277Y-16040174D02*
X3967801Y-16059222D01*
X3967801Y-16059222D02*
X3967801Y-16163984D01*
X3967801Y-16059222D02*
X3977324Y-16040174D01*
X3977324Y-16040174D02*
X3996372Y-16030650D01*
X3996372Y-16030650D02*
X4024943Y-16030650D01*
X4024943Y-16030650D02*
X4043991Y-16040174D01*
X4043991Y-16040174D02*
X4053515Y-16059222D01*
X4053515Y-16059222D02*
X4053515Y-16163984D01*
X4443991Y-15954460D02*
X4272563Y-16211603D01*
X4701134Y-15963984D02*
X4720182Y-15963984D01*
X4720182Y-15963984D02*
X4739229Y-15973508D01*
X4739229Y-15973508D02*
X4748753Y-15983031D01*
X4748753Y-15983031D02*
X4758277Y-16002079D01*
X4758277Y-16002079D02*
X4767801Y-16040174D01*
X4767801Y-16040174D02*
X4767801Y-16087793D01*
X4767801Y-16087793D02*
X4758277Y-16125888D01*
X4758277Y-16125888D02*
X4748753Y-16144936D01*
X4748753Y-16144936D02*
X4739229Y-16154460D01*
X4739229Y-16154460D02*
X4720182Y-16163984D01*
X4720182Y-16163984D02*
X4701134Y-16163984D01*
X4701134Y-16163984D02*
X4682087Y-16154460D01*
X4682087Y-16154460D02*
X4672563Y-16144936D01*
X4672563Y-16144936D02*
X4663039Y-16125888D01*
X4663039Y-16125888D02*
X4653515Y-16087793D01*
X4653515Y-16087793D02*
X4653515Y-16040174D01*
X4653515Y-16040174D02*
X4663039Y-16002079D01*
X4663039Y-16002079D02*
X4672563Y-15983031D01*
X4672563Y-15983031D02*
X4682087Y-15973508D01*
X4682087Y-15973508D02*
X4701134Y-15963984D01*
X4853515Y-16144936D02*
X4863039Y-16154460D01*
X4863039Y-16154460D02*
X4853515Y-16163984D01*
X4853515Y-16163984D02*
X4843991Y-16154460D01*
X4843991Y-16154460D02*
X4853515Y-16144936D01*
X4853515Y-16144936D02*
X4853515Y-16163984D01*
X4939229Y-15983031D02*
X4948753Y-15973508D01*
X4948753Y-15973508D02*
X4967801Y-15963984D01*
X4967801Y-15963984D02*
X5015420Y-15963984D01*
X5015420Y-15963984D02*
X5034468Y-15973508D01*
X5034468Y-15973508D02*
X5043991Y-15983031D01*
X5043991Y-15983031D02*
X5053515Y-16002079D01*
X5053515Y-16002079D02*
X5053515Y-16021127D01*
X5053515Y-16021127D02*
X5043991Y-16049698D01*
X5043991Y-16049698D02*
X4929706Y-16163984D01*
X4929706Y-16163984D02*
X5053515Y-16163984D01*
X5234468Y-15963984D02*
X5139229Y-15963984D01*
X5139229Y-15963984D02*
X5129706Y-16059222D01*
X5129706Y-16059222D02*
X5139229Y-16049698D01*
X5139229Y-16049698D02*
X5158277Y-16040174D01*
X5158277Y-16040174D02*
X5205896Y-16040174D01*
X5205896Y-16040174D02*
X5224944Y-16049698D01*
X5224944Y-16049698D02*
X5234468Y-16059222D01*
X5234468Y-16059222D02*
X5243991Y-16078269D01*
X5243991Y-16078269D02*
X5243991Y-16125888D01*
X5243991Y-16125888D02*
X5234468Y-16144936D01*
X5234468Y-16144936D02*
X5224944Y-16154460D01*
X5224944Y-16154460D02*
X5205896Y-16163984D01*
X5205896Y-16163984D02*
X5158277Y-16163984D01*
X5158277Y-16163984D02*
X5139229Y-16154460D01*
X5139229Y-16154460D02*
X5129706Y-16144936D01*
X5367801Y-15963984D02*
X5386849Y-15963984D01*
X5386849Y-15963984D02*
X5405896Y-15973508D01*
X5405896Y-15973508D02*
X5415420Y-15983031D01*
X5415420Y-15983031D02*
X5424944Y-16002079D01*
X5424944Y-16002079D02*
X5434468Y-16040174D01*
X5434468Y-16040174D02*
X5434468Y-16087793D01*
X5434468Y-16087793D02*
X5424944Y-16125888D01*
X5424944Y-16125888D02*
X5415420Y-16144936D01*
X5415420Y-16144936D02*
X5405896Y-16154460D01*
X5405896Y-16154460D02*
X5386849Y-16163984D01*
X5386849Y-16163984D02*
X5367801Y-16163984D01*
X5367801Y-16163984D02*
X5348753Y-16154460D01*
X5348753Y-16154460D02*
X5339229Y-16144936D01*
X5339229Y-16144936D02*
X5329706Y-16125888D01*
X5329706Y-16125888D02*
X5320182Y-16087793D01*
X5320182Y-16087793D02*
X5320182Y-16040174D01*
X5320182Y-16040174D02*
X5329706Y-16002079D01*
X5329706Y-16002079D02*
X5339229Y-15983031D01*
X5339229Y-15983031D02*
X5348753Y-15973508D01*
X5348753Y-15973508D02*
X5367801Y-15963984D01*
X5558277Y-15963984D02*
X5577325Y-15963984D01*
X5577325Y-15963984D02*
X5596372Y-15973508D01*
X5596372Y-15973508D02*
X5605896Y-15983031D01*
X5605896Y-15983031D02*
X5615420Y-16002079D01*
X5615420Y-16002079D02*
X5624944Y-16040174D01*
X5624944Y-16040174D02*
X5624944Y-16087793D01*
X5624944Y-16087793D02*
X5615420Y-16125888D01*
X5615420Y-16125888D02*
X5605896Y-16144936D01*
X5605896Y-16144936D02*
X5596372Y-16154460D01*
X5596372Y-16154460D02*
X5577325Y-16163984D01*
X5577325Y-16163984D02*
X5558277Y-16163984D01*
X5558277Y-16163984D02*
X5539229Y-16154460D01*
X5539229Y-16154460D02*
X5529706Y-16144936D01*
X5529706Y-16144936D02*
X5520182Y-16125888D01*
X5520182Y-16125888D02*
X5510658Y-16087793D01*
X5510658Y-16087793D02*
X5510658Y-16040174D01*
X5510658Y-16040174D02*
X5520182Y-16002079D01*
X5520182Y-16002079D02*
X5529706Y-15983031D01*
X5529706Y-15983031D02*
X5539229Y-15973508D01*
X5539229Y-15973508D02*
X5558277Y-15963984D01*
X5701134Y-15963984D02*
X5701134Y-16002079D01*
X5777325Y-15963984D02*
X5777325Y-16002079D01*
X6072563Y-16240174D02*
X6063039Y-16230650D01*
X6063039Y-16230650D02*
X6043991Y-16202079D01*
X6043991Y-16202079D02*
X6034468Y-16183031D01*
X6034468Y-16183031D02*
X6024944Y-16154460D01*
X6024944Y-16154460D02*
X6015420Y-16106841D01*
X6015420Y-16106841D02*
X6015420Y-16068746D01*
X6015420Y-16068746D02*
X6024944Y-16021127D01*
X6024944Y-16021127D02*
X6034468Y-15992555D01*
X6034468Y-15992555D02*
X6043991Y-15973508D01*
X6043991Y-15973508D02*
X6063039Y-15944936D01*
X6063039Y-15944936D02*
X6072563Y-15935412D01*
X6234468Y-16030650D02*
X6234468Y-16163984D01*
X6186848Y-15954460D02*
X6139229Y-16097317D01*
X6139229Y-16097317D02*
X6263039Y-16097317D01*
X6491610Y-16163984D02*
X6491610Y-15963984D01*
X6577325Y-16163984D02*
X6577325Y-16059222D01*
X6577325Y-16059222D02*
X6567801Y-16040174D01*
X6567801Y-16040174D02*
X6548753Y-16030650D01*
X6548753Y-16030650D02*
X6520182Y-16030650D01*
X6520182Y-16030650D02*
X6501134Y-16040174D01*
X6501134Y-16040174D02*
X6491610Y-16049698D01*
X6701134Y-16163984D02*
X6682087Y-16154460D01*
X6682087Y-16154460D02*
X6672563Y-16144936D01*
X6672563Y-16144936D02*
X6663039Y-16125888D01*
X6663039Y-16125888D02*
X6663039Y-16068746D01*
X6663039Y-16068746D02*
X6672563Y-16049698D01*
X6672563Y-16049698D02*
X6682087Y-16040174D01*
X6682087Y-16040174D02*
X6701134Y-16030650D01*
X6701134Y-16030650D02*
X6729706Y-16030650D01*
X6729706Y-16030650D02*
X6748753Y-16040174D01*
X6748753Y-16040174D02*
X6758277Y-16049698D01*
X6758277Y-16049698D02*
X6767801Y-16068746D01*
X6767801Y-16068746D02*
X6767801Y-16125888D01*
X6767801Y-16125888D02*
X6758277Y-16144936D01*
X6758277Y-16144936D02*
X6748753Y-16154460D01*
X6748753Y-16154460D02*
X6729706Y-16163984D01*
X6729706Y-16163984D02*
X6701134Y-16163984D01*
X6882087Y-16163984D02*
X6863039Y-16154460D01*
X6863039Y-16154460D02*
X6853515Y-16135412D01*
X6853515Y-16135412D02*
X6853515Y-15963984D01*
X7034468Y-16154460D02*
X7015420Y-16163984D01*
X7015420Y-16163984D02*
X6977325Y-16163984D01*
X6977325Y-16163984D02*
X6958277Y-16154460D01*
X6958277Y-16154460D02*
X6948753Y-16135412D01*
X6948753Y-16135412D02*
X6948753Y-16059222D01*
X6948753Y-16059222D02*
X6958277Y-16040174D01*
X6958277Y-16040174D02*
X6977325Y-16030650D01*
X6977325Y-16030650D02*
X7015420Y-16030650D01*
X7015420Y-16030650D02*
X7034468Y-16040174D01*
X7034468Y-16040174D02*
X7043991Y-16059222D01*
X7043991Y-16059222D02*
X7043991Y-16078269D01*
X7043991Y-16078269D02*
X6948753Y-16097317D01*
X7120182Y-16154460D02*
X7139230Y-16163984D01*
X7139230Y-16163984D02*
X7177325Y-16163984D01*
X7177325Y-16163984D02*
X7196372Y-16154460D01*
X7196372Y-16154460D02*
X7205896Y-16135412D01*
X7205896Y-16135412D02*
X7205896Y-16125888D01*
X7205896Y-16125888D02*
X7196372Y-16106841D01*
X7196372Y-16106841D02*
X7177325Y-16097317D01*
X7177325Y-16097317D02*
X7148753Y-16097317D01*
X7148753Y-16097317D02*
X7129706Y-16087793D01*
X7129706Y-16087793D02*
X7120182Y-16068746D01*
X7120182Y-16068746D02*
X7120182Y-16059222D01*
X7120182Y-16059222D02*
X7129706Y-16040174D01*
X7129706Y-16040174D02*
X7148753Y-16030650D01*
X7148753Y-16030650D02*
X7177325Y-16030650D01*
X7177325Y-16030650D02*
X7196372Y-16040174D01*
X7272563Y-16240174D02*
X7282087Y-16230650D01*
X7282087Y-16230650D02*
X7301134Y-16202079D01*
X7301134Y-16202079D02*
X7310658Y-16183031D01*
X7310658Y-16183031D02*
X7320182Y-16154460D01*
X7320182Y-16154460D02*
X7329706Y-16106841D01*
X7329706Y-16106841D02*
X7329706Y-16068746D01*
X7329706Y-16068746D02*
X7320182Y-16021127D01*
X7320182Y-16021127D02*
X7310658Y-15992555D01*
X7310658Y-15992555D02*
X7301134Y-15973508D01*
X7301134Y-15973508D02*
X7282087Y-15944936D01*
X7282087Y-15944936D02*
X7272563Y-15935412D01*
X7634468Y-16240174D02*
X7624944Y-16230650D01*
X7624944Y-16230650D02*
X7605896Y-16202079D01*
X7605896Y-16202079D02*
X7596372Y-16183031D01*
X7596372Y-16183031D02*
X7586849Y-16154460D01*
X7586849Y-16154460D02*
X7577325Y-16106841D01*
X7577325Y-16106841D02*
X7577325Y-16068746D01*
X7577325Y-16068746D02*
X7586849Y-16021127D01*
X7586849Y-16021127D02*
X7596372Y-15992555D01*
X7596372Y-15992555D02*
X7605896Y-15973508D01*
X7605896Y-15973508D02*
X7624944Y-15944936D01*
X7624944Y-15944936D02*
X7634468Y-15935412D01*
X7710658Y-16030650D02*
X7710658Y-16163984D01*
X7710658Y-16049698D02*
X7720182Y-16040174D01*
X7720182Y-16040174D02*
X7739230Y-16030650D01*
X7739230Y-16030650D02*
X7767801Y-16030650D01*
X7767801Y-16030650D02*
X7786849Y-16040174D01*
X7786849Y-16040174D02*
X7796372Y-16059222D01*
X7796372Y-16059222D02*
X7796372Y-16163984D01*
X7920182Y-16163984D02*
X7901134Y-16154460D01*
X7901134Y-16154460D02*
X7891611Y-16144936D01*
X7891611Y-16144936D02*
X7882087Y-16125888D01*
X7882087Y-16125888D02*
X7882087Y-16068746D01*
X7882087Y-16068746D02*
X7891611Y-16049698D01*
X7891611Y-16049698D02*
X7901134Y-16040174D01*
X7901134Y-16040174D02*
X7920182Y-16030650D01*
X7920182Y-16030650D02*
X7948753Y-16030650D01*
X7948753Y-16030650D02*
X7967801Y-16040174D01*
X7967801Y-16040174D02*
X7977325Y-16049698D01*
X7977325Y-16049698D02*
X7986849Y-16068746D01*
X7986849Y-16068746D02*
X7986849Y-16125888D01*
X7986849Y-16125888D02*
X7977325Y-16144936D01*
X7977325Y-16144936D02*
X7967801Y-16154460D01*
X7967801Y-16154460D02*
X7948753Y-16163984D01*
X7948753Y-16163984D02*
X7920182Y-16163984D01*
X8043992Y-16030650D02*
X8120182Y-16030650D01*
X8072563Y-15963984D02*
X8072563Y-16135412D01*
X8072563Y-16135412D02*
X8082087Y-16154460D01*
X8082087Y-16154460D02*
X8101134Y-16163984D01*
X8101134Y-16163984D02*
X8120182Y-16163984D01*
X8339230Y-16030650D02*
X8339230Y-16230650D01*
X8339230Y-16040174D02*
X8358277Y-16030650D01*
X8358277Y-16030650D02*
X8396373Y-16030650D01*
X8396373Y-16030650D02*
X8415420Y-16040174D01*
X8415420Y-16040174D02*
X8424944Y-16049698D01*
X8424944Y-16049698D02*
X8434468Y-16068746D01*
X8434468Y-16068746D02*
X8434468Y-16125888D01*
X8434468Y-16125888D02*
X8424944Y-16144936D01*
X8424944Y-16144936D02*
X8415420Y-16154460D01*
X8415420Y-16154460D02*
X8396373Y-16163984D01*
X8396373Y-16163984D02*
X8358277Y-16163984D01*
X8358277Y-16163984D02*
X8339230Y-16154460D01*
X8548754Y-16163984D02*
X8529706Y-16154460D01*
X8529706Y-16154460D02*
X8520182Y-16135412D01*
X8520182Y-16135412D02*
X8520182Y-15963984D01*
X8710658Y-16163984D02*
X8710658Y-16059222D01*
X8710658Y-16059222D02*
X8701135Y-16040174D01*
X8701135Y-16040174D02*
X8682087Y-16030650D01*
X8682087Y-16030650D02*
X8643992Y-16030650D01*
X8643992Y-16030650D02*
X8624944Y-16040174D01*
X8710658Y-16154460D02*
X8691611Y-16163984D01*
X8691611Y-16163984D02*
X8643992Y-16163984D01*
X8643992Y-16163984D02*
X8624944Y-16154460D01*
X8624944Y-16154460D02*
X8615420Y-16135412D01*
X8615420Y-16135412D02*
X8615420Y-16116365D01*
X8615420Y-16116365D02*
X8624944Y-16097317D01*
X8624944Y-16097317D02*
X8643992Y-16087793D01*
X8643992Y-16087793D02*
X8691611Y-16087793D01*
X8691611Y-16087793D02*
X8710658Y-16078269D01*
X8777325Y-16030650D02*
X8853515Y-16030650D01*
X8805896Y-15963984D02*
X8805896Y-16135412D01*
X8805896Y-16135412D02*
X8815420Y-16154460D01*
X8815420Y-16154460D02*
X8834468Y-16163984D01*
X8834468Y-16163984D02*
X8853515Y-16163984D01*
X8996373Y-16154460D02*
X8977325Y-16163984D01*
X8977325Y-16163984D02*
X8939230Y-16163984D01*
X8939230Y-16163984D02*
X8920182Y-16154460D01*
X8920182Y-16154460D02*
X8910658Y-16135412D01*
X8910658Y-16135412D02*
X8910658Y-16059222D01*
X8910658Y-16059222D02*
X8920182Y-16040174D01*
X8920182Y-16040174D02*
X8939230Y-16030650D01*
X8939230Y-16030650D02*
X8977325Y-16030650D01*
X8977325Y-16030650D02*
X8996373Y-16040174D01*
X8996373Y-16040174D02*
X9005896Y-16059222D01*
X9005896Y-16059222D02*
X9005896Y-16078269D01*
X9005896Y-16078269D02*
X8910658Y-16097317D01*
X9177325Y-16163984D02*
X9177325Y-15963984D01*
X9177325Y-16154460D02*
X9158277Y-16163984D01*
X9158277Y-16163984D02*
X9120182Y-16163984D01*
X9120182Y-16163984D02*
X9101135Y-16154460D01*
X9101135Y-16154460D02*
X9091611Y-16144936D01*
X9091611Y-16144936D02*
X9082087Y-16125888D01*
X9082087Y-16125888D02*
X9082087Y-16068746D01*
X9082087Y-16068746D02*
X9091611Y-16049698D01*
X9091611Y-16049698D02*
X9101135Y-16040174D01*
X9101135Y-16040174D02*
X9120182Y-16030650D01*
X9120182Y-16030650D02*
X9158277Y-16030650D01*
X9158277Y-16030650D02*
X9177325Y-16040174D01*
X9253516Y-16240174D02*
X9263039Y-16230650D01*
X9263039Y-16230650D02*
X9282087Y-16202079D01*
X9282087Y-16202079D02*
X9291611Y-16183031D01*
X9291611Y-16183031D02*
X9301135Y-16154460D01*
X9301135Y-16154460D02*
X9310658Y-16106841D01*
X9310658Y-16106841D02*
X9310658Y-16068746D01*
X9310658Y-16068746D02*
X9301135Y-16021127D01*
X9301135Y-16021127D02*
X9291611Y-15992555D01*
X9291611Y-15992555D02*
X9282087Y-15973508D01*
X9282087Y-15973508D02*
X9263039Y-15944936D01*
X9263039Y-15944936D02*
X9253516Y-15935412D01*
M02*
