G04 #@! TF.GenerationSoftware,KiCad,Pcbnew,8.0.5*
G04 #@! TF.CreationDate,2024-11-26T19:37:20+02:00*
G04 #@! TF.ProjectId,io_box,696f5f62-6f78-42e6-9b69-6361645f7063,rev?*
G04 #@! TF.SameCoordinates,Original*
G04 #@! TF.FileFunction,Legend,Top*
G04 #@! TF.FilePolarity,Positive*
%FSLAX46Y46*%
G04 Gerber Fmt 4.6, Leading zero omitted, Abs format (unit mm)*
G04 Created by KiCad (PCBNEW 8.0.5) date 2024-11-26 19:37:20*
%MOMM*%
%LPD*%
G01*
G04 APERTURE LIST*
%ADD10C,1.000000*%
%ADD11C,0.200000*%
%ADD12C,1.250000*%
%ADD13C,0.254000*%
%ADD14C,0.150000*%
%ADD15C,0.100000*%
%ADD16C,0.152400*%
%ADD17C,0.120000*%
%ADD18C,1.524000*%
%ADD19R,1.650000X1.650000*%
%ADD20C,1.650000*%
%ADD21R,1.295400X1.295400*%
%ADD22C,1.295400*%
%ADD23C,3.200000*%
%ADD24C,1.600000*%
%ADD25O,1.600000X1.600000*%
%ADD26C,1.700000*%
%ADD27C,4.000000*%
%ADD28C,2.200000*%
%ADD29R,1.500000X1.500000*%
%ADD30C,1.500000*%
%ADD31R,1.950000X1.950000*%
%ADD32C,1.950000*%
%ADD33R,1.700000X1.700000*%
%ADD34O,1.700000X1.700000*%
%ADD35C,1.400000*%
%ADD36R,1.800000X1.800000*%
%ADD37C,1.800000*%
%ADD38R,1.600000X1.600000*%
%ADD39R,2.300000X1.500000*%
%ADD40O,2.300000X1.500000*%
%ADD41R,2.100000X2.100000*%
%ADD42C,2.100000*%
%ADD43C,3.600000*%
G04 APERTURE END LIST*
D10*
X83000000Y-91000000D02*
X185000000Y-91000000D01*
X185000000Y-135000000D01*
X83000000Y-135000000D01*
X83000000Y-91000000D01*
X30000000Y-35000000D02*
X78000000Y-35000000D01*
X78000000Y-135000000D01*
X30000000Y-135000000D01*
X30000000Y-35000000D01*
X190000000Y-91000000D02*
X219750000Y-91000000D01*
X219750000Y-135000000D01*
X190000000Y-135000000D01*
X190000000Y-91000000D01*
D11*
X211570802Y-102320076D02*
X211570802Y-101050076D01*
X211570802Y-101050076D02*
X211873183Y-101050076D01*
X211873183Y-101050076D02*
X212054612Y-101110552D01*
X212054612Y-101110552D02*
X212175564Y-101231504D01*
X212175564Y-101231504D02*
X212236041Y-101352457D01*
X212236041Y-101352457D02*
X212296517Y-101594361D01*
X212296517Y-101594361D02*
X212296517Y-101775790D01*
X212296517Y-101775790D02*
X212236041Y-102017695D01*
X212236041Y-102017695D02*
X212175564Y-102138647D01*
X212175564Y-102138647D02*
X212054612Y-102259600D01*
X212054612Y-102259600D02*
X211873183Y-102320076D01*
X211873183Y-102320076D02*
X211570802Y-102320076D01*
X212840802Y-102320076D02*
X212840802Y-101050076D01*
X214352707Y-101171028D02*
X214413183Y-101110552D01*
X214413183Y-101110552D02*
X214534136Y-101050076D01*
X214534136Y-101050076D02*
X214836517Y-101050076D01*
X214836517Y-101050076D02*
X214957469Y-101110552D01*
X214957469Y-101110552D02*
X215017945Y-101171028D01*
X215017945Y-101171028D02*
X215078422Y-101291980D01*
X215078422Y-101291980D02*
X215078422Y-101412933D01*
X215078422Y-101412933D02*
X215017945Y-101594361D01*
X215017945Y-101594361D02*
X214292231Y-102320076D01*
X214292231Y-102320076D02*
X215078422Y-102320076D01*
X216166993Y-101473409D02*
X216166993Y-102320076D01*
X215864612Y-100989600D02*
X215562231Y-101896742D01*
X215562231Y-101896742D02*
X216348422Y-101896742D01*
X216650803Y-101050076D02*
X217074136Y-102320076D01*
X217074136Y-102320076D02*
X217497470Y-101050076D01*
X62433958Y-69577126D02*
X62433958Y-68307126D01*
X62433958Y-68307126D02*
X62857292Y-69214269D01*
X62857292Y-69214269D02*
X63280625Y-68307126D01*
X63280625Y-68307126D02*
X63280625Y-69577126D01*
X64429673Y-69577126D02*
X64429673Y-68911888D01*
X64429673Y-68911888D02*
X64369197Y-68790935D01*
X64369197Y-68790935D02*
X64248245Y-68730459D01*
X64248245Y-68730459D02*
X64006340Y-68730459D01*
X64006340Y-68730459D02*
X63885387Y-68790935D01*
X64429673Y-69516650D02*
X64308721Y-69577126D01*
X64308721Y-69577126D02*
X64006340Y-69577126D01*
X64006340Y-69577126D02*
X63885387Y-69516650D01*
X63885387Y-69516650D02*
X63824911Y-69395697D01*
X63824911Y-69395697D02*
X63824911Y-69274745D01*
X63824911Y-69274745D02*
X63885387Y-69153792D01*
X63885387Y-69153792D02*
X64006340Y-69093316D01*
X64006340Y-69093316D02*
X64308721Y-69093316D01*
X64308721Y-69093316D02*
X64429673Y-69032840D01*
X64913483Y-69577126D02*
X65578721Y-68730459D01*
X64913483Y-68730459D02*
X65578721Y-69577126D01*
X66062530Y-69456173D02*
X66123007Y-69516650D01*
X66123007Y-69516650D02*
X66062530Y-69577126D01*
X66062530Y-69577126D02*
X66002054Y-69516650D01*
X66002054Y-69516650D02*
X66062530Y-69456173D01*
X66062530Y-69456173D02*
X66062530Y-69577126D01*
X68300150Y-69577126D02*
X67574435Y-69577126D01*
X67937292Y-69577126D02*
X67937292Y-68307126D01*
X67937292Y-68307126D02*
X67816340Y-68488554D01*
X67816340Y-68488554D02*
X67695388Y-68609507D01*
X67695388Y-68609507D02*
X67574435Y-68669983D01*
X68783959Y-69214269D02*
X69388721Y-69214269D01*
X68663007Y-69577126D02*
X69086340Y-68307126D01*
X69086340Y-68307126D02*
X69509674Y-69577126D01*
D10*
G36*
X213536302Y-94861206D02*
G01*
X213871654Y-95196559D01*
X214048918Y-95551086D01*
X214258773Y-96390504D01*
X214258773Y-96981685D01*
X214048917Y-97821104D01*
X213871654Y-98175629D01*
X213536301Y-98510983D01*
X213010966Y-98686095D01*
X212401630Y-98686095D01*
X212401630Y-94686095D01*
X213010966Y-94686095D01*
X213536302Y-94861206D01*
G37*
G36*
X217957186Y-100241651D02*
G01*
X210846074Y-100241651D01*
X210846074Y-94186095D01*
X211401630Y-94186095D01*
X211401630Y-99186095D01*
X211405908Y-99251358D01*
X211439690Y-99377437D01*
X211504953Y-99490476D01*
X211597249Y-99582772D01*
X211710288Y-99648035D01*
X211836367Y-99681817D01*
X211901630Y-99686095D01*
X213092106Y-99686095D01*
X213157369Y-99681817D01*
X213171918Y-99677918D01*
X213186953Y-99677016D01*
X213250220Y-99660437D01*
X213964505Y-99422342D01*
X213989518Y-99412141D01*
X213997734Y-99409940D01*
X214004510Y-99406027D01*
X214025066Y-99397645D01*
X214067117Y-99369880D01*
X214110773Y-99344676D01*
X214127468Y-99330035D01*
X214133993Y-99325727D01*
X214139632Y-99319367D01*
X214159946Y-99301553D01*
X214636136Y-98825362D01*
X214679259Y-98776189D01*
X214686789Y-98763145D01*
X214696783Y-98751876D01*
X214729796Y-98695416D01*
X214967891Y-98219225D01*
X214981533Y-98186793D01*
X214985769Y-98179164D01*
X214989064Y-98168890D01*
X214993251Y-98158939D01*
X214995001Y-98150385D01*
X215005748Y-98116887D01*
X215243844Y-97164506D01*
X215252986Y-97114132D01*
X215254495Y-97108501D01*
X215254770Y-97104301D01*
X215255523Y-97100154D01*
X215255424Y-97094316D01*
X215258773Y-97043238D01*
X215258773Y-96328952D01*
X215255424Y-96277873D01*
X215255523Y-96272036D01*
X215254770Y-96267888D01*
X215254495Y-96263689D01*
X215252986Y-96258057D01*
X215243844Y-96207684D01*
X215005748Y-95255303D01*
X214995001Y-95221805D01*
X214993251Y-95213250D01*
X214989063Y-95203295D01*
X214985769Y-95193026D01*
X214981535Y-95185399D01*
X214967891Y-95152964D01*
X214729796Y-94676774D01*
X214696783Y-94620314D01*
X214686790Y-94609044D01*
X214679258Y-94595999D01*
X214636135Y-94546826D01*
X214275403Y-94186095D01*
X216401630Y-94186095D01*
X216401630Y-99186095D01*
X216405908Y-99251358D01*
X216439690Y-99377437D01*
X216504953Y-99490476D01*
X216597249Y-99582772D01*
X216710288Y-99648035D01*
X216836367Y-99681817D01*
X216966893Y-99681817D01*
X217092972Y-99648035D01*
X217206011Y-99582772D01*
X217298307Y-99490476D01*
X217363570Y-99377437D01*
X217397352Y-99251358D01*
X217401630Y-99186095D01*
X217401630Y-94186095D01*
X217397352Y-94120832D01*
X217363570Y-93994753D01*
X217298307Y-93881714D01*
X217206011Y-93789418D01*
X217092972Y-93724155D01*
X216966893Y-93690373D01*
X216836367Y-93690373D01*
X216710288Y-93724155D01*
X216597249Y-93789418D01*
X216504953Y-93881714D01*
X216439690Y-93994753D01*
X216405908Y-94120832D01*
X216401630Y-94186095D01*
X214275403Y-94186095D01*
X214159945Y-94070637D01*
X214139636Y-94052826D01*
X214133993Y-94046463D01*
X214127463Y-94042152D01*
X214110772Y-94027514D01*
X214067122Y-94002312D01*
X214025066Y-93974545D01*
X214004509Y-93966162D01*
X213997734Y-93962250D01*
X213989518Y-93960048D01*
X213964505Y-93949848D01*
X213250220Y-93711753D01*
X213186953Y-93695174D01*
X213171918Y-93694271D01*
X213157369Y-93690373D01*
X213092106Y-93686095D01*
X211901630Y-93686095D01*
X211836367Y-93690373D01*
X211710288Y-93724155D01*
X211597249Y-93789418D01*
X211504953Y-93881714D01*
X211439690Y-93994753D01*
X211405908Y-94120832D01*
X211401630Y-94186095D01*
X210846074Y-94186095D01*
X210846074Y-93130539D01*
X217957186Y-93130539D01*
X217957186Y-100241651D01*
G37*
D11*
X95373482Y-54428078D02*
X95433958Y-54367602D01*
X95433958Y-54367602D02*
X95554911Y-54307126D01*
X95554911Y-54307126D02*
X95857292Y-54307126D01*
X95857292Y-54307126D02*
X95978244Y-54367602D01*
X95978244Y-54367602D02*
X96038720Y-54428078D01*
X96038720Y-54428078D02*
X96099197Y-54549030D01*
X96099197Y-54549030D02*
X96099197Y-54669983D01*
X96099197Y-54669983D02*
X96038720Y-54851411D01*
X96038720Y-54851411D02*
X95313006Y-55577126D01*
X95313006Y-55577126D02*
X96099197Y-55577126D01*
X97187768Y-54730459D02*
X97187768Y-55577126D01*
X96885387Y-54246650D02*
X96583006Y-55153792D01*
X96583006Y-55153792D02*
X97369197Y-55153792D01*
X97671578Y-54307126D02*
X98094911Y-55577126D01*
X98094911Y-55577126D02*
X98518245Y-54307126D01*
X98941577Y-55577126D02*
X98941577Y-54307126D01*
X98941577Y-54307126D02*
X99243958Y-54307126D01*
X99243958Y-54307126D02*
X99425387Y-54367602D01*
X99425387Y-54367602D02*
X99546339Y-54488554D01*
X99546339Y-54488554D02*
X99606816Y-54609507D01*
X99606816Y-54609507D02*
X99667292Y-54851411D01*
X99667292Y-54851411D02*
X99667292Y-55032840D01*
X99667292Y-55032840D02*
X99606816Y-55274745D01*
X99606816Y-55274745D02*
X99546339Y-55395697D01*
X99546339Y-55395697D02*
X99425387Y-55516650D01*
X99425387Y-55516650D02*
X99243958Y-55577126D01*
X99243958Y-55577126D02*
X98941577Y-55577126D01*
X100937292Y-55456173D02*
X100876816Y-55516650D01*
X100876816Y-55516650D02*
X100695387Y-55577126D01*
X100695387Y-55577126D02*
X100574435Y-55577126D01*
X100574435Y-55577126D02*
X100393006Y-55516650D01*
X100393006Y-55516650D02*
X100272054Y-55395697D01*
X100272054Y-55395697D02*
X100211577Y-55274745D01*
X100211577Y-55274745D02*
X100151101Y-55032840D01*
X100151101Y-55032840D02*
X100151101Y-54851411D01*
X100151101Y-54851411D02*
X100211577Y-54609507D01*
X100211577Y-54609507D02*
X100272054Y-54488554D01*
X100272054Y-54488554D02*
X100393006Y-54367602D01*
X100393006Y-54367602D02*
X100574435Y-54307126D01*
X100574435Y-54307126D02*
X100695387Y-54307126D01*
X100695387Y-54307126D02*
X100876816Y-54367602D01*
X100876816Y-54367602D02*
X100937292Y-54428078D01*
X102449196Y-55577126D02*
X102449196Y-54307126D01*
X103053958Y-55577126D02*
X103053958Y-54307126D01*
X103053958Y-54307126D02*
X103779673Y-55577126D01*
X103779673Y-55577126D02*
X103779673Y-54307126D01*
X193936039Y-94577126D02*
X193936039Y-93307126D01*
X193936039Y-93307126D02*
X194419849Y-93307126D01*
X194419849Y-93307126D02*
X194540801Y-93367602D01*
X194540801Y-93367602D02*
X194601278Y-93428078D01*
X194601278Y-93428078D02*
X194661754Y-93549030D01*
X194661754Y-93549030D02*
X194661754Y-93730459D01*
X194661754Y-93730459D02*
X194601278Y-93851411D01*
X194601278Y-93851411D02*
X194540801Y-93911888D01*
X194540801Y-93911888D02*
X194419849Y-93972364D01*
X194419849Y-93972364D02*
X193936039Y-93972364D01*
X195750325Y-93730459D02*
X195750325Y-94577126D01*
X195206039Y-93730459D02*
X195206039Y-94395697D01*
X195206039Y-94395697D02*
X195266516Y-94516650D01*
X195266516Y-94516650D02*
X195387468Y-94577126D01*
X195387468Y-94577126D02*
X195568897Y-94577126D01*
X195568897Y-94577126D02*
X195689849Y-94516650D01*
X195689849Y-94516650D02*
X195750325Y-94456173D01*
X196536516Y-94577126D02*
X196415564Y-94516650D01*
X196415564Y-94516650D02*
X196355087Y-94395697D01*
X196355087Y-94395697D02*
X196355087Y-93307126D01*
X197201754Y-94577126D02*
X197080802Y-94516650D01*
X197080802Y-94516650D02*
X197020325Y-94395697D01*
X197020325Y-94395697D02*
X197020325Y-93307126D01*
X197685563Y-94093316D02*
X198653183Y-94093316D01*
X199802230Y-93730459D02*
X199802230Y-94577126D01*
X199257944Y-93730459D02*
X199257944Y-94395697D01*
X199257944Y-94395697D02*
X199318421Y-94516650D01*
X199318421Y-94516650D02*
X199439373Y-94577126D01*
X199439373Y-94577126D02*
X199620802Y-94577126D01*
X199620802Y-94577126D02*
X199741754Y-94516650D01*
X199741754Y-94516650D02*
X199802230Y-94456173D01*
X200406992Y-93730459D02*
X200406992Y-95000459D01*
X200406992Y-93790935D02*
X200527945Y-93730459D01*
X200527945Y-93730459D02*
X200769850Y-93730459D01*
X200769850Y-93730459D02*
X200890802Y-93790935D01*
X200890802Y-93790935D02*
X200951278Y-93851411D01*
X200951278Y-93851411D02*
X201011754Y-93972364D01*
X201011754Y-93972364D02*
X201011754Y-94335221D01*
X201011754Y-94335221D02*
X200951278Y-94456173D01*
X200951278Y-94456173D02*
X200890802Y-94516650D01*
X200890802Y-94516650D02*
X200769850Y-94577126D01*
X200769850Y-94577126D02*
X200527945Y-94577126D01*
X200527945Y-94577126D02*
X200406992Y-94516650D01*
X202463183Y-93428078D02*
X202523659Y-93367602D01*
X202523659Y-93367602D02*
X202644612Y-93307126D01*
X202644612Y-93307126D02*
X202946993Y-93307126D01*
X202946993Y-93307126D02*
X203067945Y-93367602D01*
X203067945Y-93367602D02*
X203128421Y-93428078D01*
X203128421Y-93428078D02*
X203188898Y-93549030D01*
X203188898Y-93549030D02*
X203188898Y-93669983D01*
X203188898Y-93669983D02*
X203128421Y-93851411D01*
X203128421Y-93851411D02*
X202402707Y-94577126D01*
X202402707Y-94577126D02*
X203188898Y-94577126D01*
X203733183Y-94577126D02*
X203733183Y-93307126D01*
X203854136Y-94093316D02*
X204216993Y-94577126D01*
X204216993Y-93730459D02*
X203733183Y-94214269D01*
X204700802Y-93428078D02*
X204761278Y-93367602D01*
X204761278Y-93367602D02*
X204882231Y-93307126D01*
X204882231Y-93307126D02*
X205184612Y-93307126D01*
X205184612Y-93307126D02*
X205305564Y-93367602D01*
X205305564Y-93367602D02*
X205366040Y-93428078D01*
X205366040Y-93428078D02*
X205426517Y-93549030D01*
X205426517Y-93549030D02*
X205426517Y-93669983D01*
X205426517Y-93669983D02*
X205366040Y-93851411D01*
X205366040Y-93851411D02*
X204640326Y-94577126D01*
X204640326Y-94577126D02*
X205426517Y-94577126D01*
D12*
G36*
X72484752Y-87542697D02*
G01*
X72880136Y-87938081D01*
X73089810Y-88357429D01*
X73340224Y-89359082D01*
X73340224Y-90062344D01*
X73089810Y-91063999D01*
X72880136Y-91483346D01*
X72484752Y-91878730D01*
X71863801Y-92085714D01*
X71161653Y-92085714D01*
X71161653Y-87335714D01*
X71863801Y-87335714D01*
X72484752Y-87542697D01*
G37*
G36*
X75256891Y-94002381D02*
G01*
X56673558Y-94002381D01*
X56673558Y-89282142D01*
X57340225Y-89282142D01*
X57340225Y-90139285D01*
X57343235Y-90200546D01*
X57346207Y-90215489D01*
X57346948Y-90230708D01*
X57358886Y-90290870D01*
X57644600Y-91433727D01*
X57662378Y-91492429D01*
X57665368Y-91498758D01*
X57667217Y-91505510D01*
X57691922Y-91561650D01*
X57977636Y-92133079D01*
X57983521Y-92143534D01*
X57985452Y-92148194D01*
X57989853Y-92154780D01*
X58007725Y-92186527D01*
X58031753Y-92217487D01*
X58053522Y-92250066D01*
X58077989Y-92277062D01*
X58082844Y-92283318D01*
X58086651Y-92286619D01*
X58094711Y-92295513D01*
X58666141Y-92866942D01*
X58711587Y-92908132D01*
X58730048Y-92920467D01*
X58746832Y-92935024D01*
X58780880Y-92954432D01*
X58813459Y-92976201D01*
X58833981Y-92984701D01*
X58853274Y-92995699D01*
X58910440Y-93017927D01*
X59767583Y-93303641D01*
X59779136Y-93306871D01*
X59783797Y-93308802D01*
X59791567Y-93310347D01*
X59826652Y-93320158D01*
X59865531Y-93325059D01*
X59903964Y-93332704D01*
X59940347Y-93334491D01*
X59948211Y-93335483D01*
X59953243Y-93335125D01*
X59965225Y-93335714D01*
X60536653Y-93335714D01*
X60548634Y-93335125D01*
X60553667Y-93335483D01*
X60561530Y-93334491D01*
X60597914Y-93332704D01*
X60636346Y-93325059D01*
X60675226Y-93320158D01*
X60710310Y-93310347D01*
X60718081Y-93308802D01*
X60722741Y-93306871D01*
X60734295Y-93303641D01*
X61591438Y-93017927D01*
X61648604Y-92995699D01*
X61667893Y-92984703D01*
X61688420Y-92976201D01*
X61721001Y-92954430D01*
X61755046Y-92935024D01*
X61771829Y-92920467D01*
X61790292Y-92908131D01*
X61835739Y-92866941D01*
X62121452Y-92581226D01*
X62162632Y-92535790D01*
X62162642Y-92535781D01*
X62230711Y-92433908D01*
X62277598Y-92320713D01*
X62285504Y-92280967D01*
X62301501Y-92200545D01*
X62301501Y-92200525D01*
X62304510Y-92139285D01*
X62304510Y-90139285D01*
X62301500Y-90078024D01*
X62277598Y-89957857D01*
X62230711Y-89844662D01*
X62162642Y-89742789D01*
X62076006Y-89656153D01*
X61974133Y-89588084D01*
X61860938Y-89541197D01*
X61740771Y-89517295D01*
X61679510Y-89514285D01*
X60536653Y-89514285D01*
X60475392Y-89517295D01*
X60355225Y-89541197D01*
X60242030Y-89588084D01*
X60140157Y-89656153D01*
X60053521Y-89742789D01*
X59985452Y-89844662D01*
X59938565Y-89957857D01*
X59914663Y-90078024D01*
X59914663Y-90200546D01*
X59938565Y-90320713D01*
X59985452Y-90433908D01*
X60053521Y-90535781D01*
X60140157Y-90622417D01*
X60242030Y-90690486D01*
X60355225Y-90737373D01*
X60475392Y-90761275D01*
X60536653Y-90764285D01*
X61054510Y-90764285D01*
X61054510Y-91879287D01*
X60435230Y-92085714D01*
X60066648Y-92085714D01*
X59445695Y-91878730D01*
X59050311Y-91483345D01*
X58840638Y-91063999D01*
X58590225Y-90062344D01*
X58590225Y-89359082D01*
X58840638Y-88357427D01*
X59050311Y-87938082D01*
X59445695Y-87542697D01*
X60066648Y-87335714D01*
X60674826Y-87335714D01*
X61114288Y-87555445D01*
X61170427Y-87580150D01*
X61288597Y-87612511D01*
X61410810Y-87621197D01*
X61532370Y-87605873D01*
X61648604Y-87567128D01*
X61755046Y-87506451D01*
X61847605Y-87426175D01*
X61922724Y-87329384D01*
X61977518Y-87219797D01*
X62009879Y-87101627D01*
X62018565Y-86979414D01*
X62003241Y-86857854D01*
X61964496Y-86741620D01*
X61946878Y-86710714D01*
X63625939Y-86710714D01*
X63625939Y-92710714D01*
X63628949Y-92771975D01*
X63652851Y-92892142D01*
X63699738Y-93005337D01*
X63767807Y-93107210D01*
X63854443Y-93193846D01*
X63956316Y-93261915D01*
X64069511Y-93308802D01*
X64189678Y-93332704D01*
X64312200Y-93332704D01*
X64432367Y-93308802D01*
X64545562Y-93261915D01*
X64647435Y-93193846D01*
X64734071Y-93107210D01*
X64802140Y-93005337D01*
X64849027Y-92892142D01*
X64872929Y-92771975D01*
X64875939Y-92710714D01*
X64875939Y-89064191D01*
X67136858Y-93020800D01*
X67169865Y-93072497D01*
X67184218Y-93089012D01*
X67196378Y-93107210D01*
X67224318Y-93135150D01*
X67250237Y-93164972D01*
X67267539Y-93178371D01*
X67283014Y-93193846D01*
X67315870Y-93215800D01*
X67347107Y-93239990D01*
X67366688Y-93249755D01*
X67384887Y-93261915D01*
X67421395Y-93277037D01*
X67456751Y-93294669D01*
X67477862Y-93300426D01*
X67498082Y-93308802D01*
X67536831Y-93316509D01*
X67574955Y-93326907D01*
X67596790Y-93328435D01*
X67618249Y-93332704D01*
X67657756Y-93332704D01*
X67697178Y-93335464D01*
X67718889Y-93332704D01*
X67740771Y-93332704D01*
X67779522Y-93324996D01*
X67818721Y-93320013D01*
X67839471Y-93313071D01*
X67860938Y-93308802D01*
X67897454Y-93293676D01*
X67934914Y-93281146D01*
X67953906Y-93270293D01*
X67974133Y-93261915D01*
X68007000Y-93239953D01*
X68041293Y-93220358D01*
X68057803Y-93206008D01*
X68076006Y-93193846D01*
X68103954Y-93165897D01*
X68133768Y-93139986D01*
X68147163Y-93122688D01*
X68162642Y-93107210D01*
X68184601Y-93074345D01*
X68208786Y-93043116D01*
X68218549Y-93023537D01*
X68230711Y-93005337D01*
X68245834Y-92968826D01*
X68263465Y-92933473D01*
X68269222Y-92912361D01*
X68277598Y-92892142D01*
X68285306Y-92853389D01*
X68295703Y-92815268D01*
X68297231Y-92793434D01*
X68301500Y-92771975D01*
X68304510Y-92710714D01*
X68304510Y-86710714D01*
X69911653Y-86710714D01*
X69911653Y-92710714D01*
X69914663Y-92771975D01*
X69938565Y-92892142D01*
X69985452Y-93005337D01*
X70053521Y-93107210D01*
X70140157Y-93193846D01*
X70242030Y-93261915D01*
X70355225Y-93308802D01*
X70475392Y-93332704D01*
X70536653Y-93335714D01*
X71965224Y-93335714D01*
X71977205Y-93335125D01*
X71982238Y-93335483D01*
X71990101Y-93334491D01*
X72026485Y-93332704D01*
X72064917Y-93325059D01*
X72103797Y-93320158D01*
X72138881Y-93310347D01*
X72146652Y-93308802D01*
X72151312Y-93306871D01*
X72162866Y-93303641D01*
X73020009Y-93017927D01*
X73077175Y-92995699D01*
X73096467Y-92984701D01*
X73116990Y-92976201D01*
X73149565Y-92954434D01*
X73183617Y-92935024D01*
X73200404Y-92920464D01*
X73218862Y-92908131D01*
X73264309Y-92866942D01*
X73835738Y-92295512D01*
X73843795Y-92286622D01*
X73847605Y-92283318D01*
X73852460Y-92277061D01*
X73876928Y-92250066D01*
X73898700Y-92217481D01*
X73922724Y-92186527D01*
X73940595Y-92154781D01*
X73944997Y-92148194D01*
X73946927Y-92143534D01*
X73952813Y-92133079D01*
X74238527Y-91561650D01*
X74263232Y-91505510D01*
X74265080Y-91498758D01*
X74268071Y-91492429D01*
X74285849Y-91433727D01*
X74571563Y-90290870D01*
X74583501Y-90230708D01*
X74584241Y-90215489D01*
X74587214Y-90200546D01*
X74590224Y-90139285D01*
X74590224Y-89282142D01*
X74587214Y-89220881D01*
X74584241Y-89205937D01*
X74583501Y-89190719D01*
X74571563Y-89130557D01*
X74285849Y-87987700D01*
X74268071Y-87928998D01*
X74265081Y-87922669D01*
X74263232Y-87915916D01*
X74238527Y-87859777D01*
X73952813Y-87288349D01*
X73946927Y-87277893D01*
X73944997Y-87273234D01*
X73940595Y-87266646D01*
X73922724Y-87234901D01*
X73898700Y-87203946D01*
X73876928Y-87171362D01*
X73852460Y-87144366D01*
X73847605Y-87138110D01*
X73843795Y-87134805D01*
X73835738Y-87125916D01*
X73264309Y-86554486D01*
X73218862Y-86513297D01*
X73200404Y-86500963D01*
X73183617Y-86486404D01*
X73149565Y-86466993D01*
X73116990Y-86445227D01*
X73096467Y-86436726D01*
X73077175Y-86425729D01*
X73020009Y-86403501D01*
X72162866Y-86117787D01*
X72151312Y-86114556D01*
X72146652Y-86112626D01*
X72138881Y-86111080D01*
X72103797Y-86101270D01*
X72064917Y-86096368D01*
X72026485Y-86088724D01*
X71990101Y-86086936D01*
X71982238Y-86085945D01*
X71977205Y-86086302D01*
X71965224Y-86085714D01*
X70536653Y-86085714D01*
X70475392Y-86088724D01*
X70355225Y-86112626D01*
X70242030Y-86159513D01*
X70140157Y-86227582D01*
X70053521Y-86314218D01*
X69985452Y-86416091D01*
X69938565Y-86529286D01*
X69914663Y-86649453D01*
X69911653Y-86710714D01*
X68304510Y-86710714D01*
X68301500Y-86649453D01*
X68277598Y-86529286D01*
X68230711Y-86416091D01*
X68162642Y-86314218D01*
X68076006Y-86227582D01*
X67974133Y-86159513D01*
X67860938Y-86112626D01*
X67740771Y-86088724D01*
X67618249Y-86088724D01*
X67498082Y-86112626D01*
X67384887Y-86159513D01*
X67283014Y-86227582D01*
X67196378Y-86314218D01*
X67128309Y-86416091D01*
X67081422Y-86529286D01*
X67057520Y-86649453D01*
X67054510Y-86710714D01*
X67054510Y-90357235D01*
X64793591Y-86400627D01*
X64760584Y-86348931D01*
X64746231Y-86332416D01*
X64734071Y-86314218D01*
X64706125Y-86286272D01*
X64680211Y-86256456D01*
X64662912Y-86243059D01*
X64647435Y-86227582D01*
X64614582Y-86205630D01*
X64583342Y-86181437D01*
X64563754Y-86171668D01*
X64545562Y-86159513D01*
X64509065Y-86144395D01*
X64473698Y-86126758D01*
X64452581Y-86120998D01*
X64432367Y-86112626D01*
X64393619Y-86104918D01*
X64355493Y-86094521D01*
X64333659Y-86092992D01*
X64312200Y-86088724D01*
X64272693Y-86088724D01*
X64233271Y-86085964D01*
X64211560Y-86088724D01*
X64189678Y-86088724D01*
X64150926Y-86096431D01*
X64111728Y-86101415D01*
X64090975Y-86108356D01*
X64069511Y-86112626D01*
X64033003Y-86127748D01*
X63995535Y-86140281D01*
X63976535Y-86151137D01*
X63956316Y-86159513D01*
X63923458Y-86181467D01*
X63889156Y-86201069D01*
X63872641Y-86215421D01*
X63854443Y-86227582D01*
X63826497Y-86255527D01*
X63796681Y-86281442D01*
X63783284Y-86298740D01*
X63767807Y-86314218D01*
X63745855Y-86347070D01*
X63721662Y-86378311D01*
X63711893Y-86397898D01*
X63699738Y-86416091D01*
X63684620Y-86452587D01*
X63666983Y-86487955D01*
X63661223Y-86509071D01*
X63652851Y-86529286D01*
X63645143Y-86568033D01*
X63634746Y-86606160D01*
X63633217Y-86627993D01*
X63628949Y-86649453D01*
X63625939Y-86710714D01*
X61946878Y-86710714D01*
X61903819Y-86635178D01*
X61823543Y-86542619D01*
X61726752Y-86467500D01*
X61673305Y-86437411D01*
X61101876Y-86151697D01*
X61045737Y-86126992D01*
X61024317Y-86121126D01*
X61003796Y-86112626D01*
X60965362Y-86104981D01*
X60927567Y-86094631D01*
X60905408Y-86093056D01*
X60883629Y-86088724D01*
X60822368Y-86085714D01*
X59965225Y-86085714D01*
X59953243Y-86086302D01*
X59948211Y-86085945D01*
X59940347Y-86086936D01*
X59903964Y-86088724D01*
X59865531Y-86096368D01*
X59826652Y-86101270D01*
X59791567Y-86111080D01*
X59783797Y-86112626D01*
X59779136Y-86114556D01*
X59767583Y-86117787D01*
X58910440Y-86403501D01*
X58853274Y-86425729D01*
X58833981Y-86436726D01*
X58813459Y-86445227D01*
X58780880Y-86466995D01*
X58746832Y-86486404D01*
X58730048Y-86500960D01*
X58711587Y-86513296D01*
X58666141Y-86554486D01*
X58094711Y-87125915D01*
X58086651Y-87134808D01*
X58082844Y-87138110D01*
X58077989Y-87144365D01*
X58053522Y-87171362D01*
X58031753Y-87203940D01*
X58007725Y-87234901D01*
X57989850Y-87266650D01*
X57985452Y-87273234D01*
X57983523Y-87277890D01*
X57977636Y-87288348D01*
X57691922Y-87859777D01*
X57667217Y-87915916D01*
X57665367Y-87922669D01*
X57662378Y-87928998D01*
X57644600Y-87987700D01*
X57358886Y-89130557D01*
X57346948Y-89190719D01*
X57346207Y-89205937D01*
X57343235Y-89220881D01*
X57340225Y-89282142D01*
X56673558Y-89282142D01*
X56673558Y-85419047D01*
X75256891Y-85419047D01*
X75256891Y-94002381D01*
G37*
D11*
X36464911Y-139411504D02*
X36464911Y-141030552D01*
X36464911Y-141030552D02*
X36369673Y-141221028D01*
X36369673Y-141221028D02*
X36274435Y-141316266D01*
X36274435Y-141316266D02*
X36083958Y-141411504D01*
X36083958Y-141411504D02*
X35798244Y-141411504D01*
X35798244Y-141411504D02*
X35607768Y-141316266D01*
X36464911Y-140649600D02*
X36274435Y-140744838D01*
X36274435Y-140744838D02*
X35893482Y-140744838D01*
X35893482Y-140744838D02*
X35703006Y-140649600D01*
X35703006Y-140649600D02*
X35607768Y-140554361D01*
X35607768Y-140554361D02*
X35512530Y-140363885D01*
X35512530Y-140363885D02*
X35512530Y-139792457D01*
X35512530Y-139792457D02*
X35607768Y-139601980D01*
X35607768Y-139601980D02*
X35703006Y-139506742D01*
X35703006Y-139506742D02*
X35893482Y-139411504D01*
X35893482Y-139411504D02*
X36274435Y-139411504D01*
X36274435Y-139411504D02*
X36464911Y-139506742D01*
X37417292Y-140744838D02*
X37417292Y-139411504D01*
X37417292Y-138744838D02*
X37322054Y-138840076D01*
X37322054Y-138840076D02*
X37417292Y-138935314D01*
X37417292Y-138935314D02*
X37512530Y-138840076D01*
X37512530Y-138840076D02*
X37417292Y-138744838D01*
X37417292Y-138744838D02*
X37417292Y-138935314D01*
X38083959Y-139411504D02*
X38845863Y-139411504D01*
X38369673Y-138744838D02*
X38369673Y-140459123D01*
X38369673Y-140459123D02*
X38464911Y-140649600D01*
X38464911Y-140649600D02*
X38655387Y-140744838D01*
X38655387Y-140744838D02*
X38845863Y-140744838D01*
X39512530Y-140744838D02*
X39512530Y-138744838D01*
X40369673Y-140744838D02*
X40369673Y-139697219D01*
X40369673Y-139697219D02*
X40274435Y-139506742D01*
X40274435Y-139506742D02*
X40083959Y-139411504D01*
X40083959Y-139411504D02*
X39798244Y-139411504D01*
X39798244Y-139411504D02*
X39607768Y-139506742D01*
X39607768Y-139506742D02*
X39512530Y-139601980D01*
X42179197Y-139411504D02*
X42179197Y-140744838D01*
X41322054Y-139411504D02*
X41322054Y-140459123D01*
X41322054Y-140459123D02*
X41417292Y-140649600D01*
X41417292Y-140649600D02*
X41607768Y-140744838D01*
X41607768Y-140744838D02*
X41893483Y-140744838D01*
X41893483Y-140744838D02*
X42083959Y-140649600D01*
X42083959Y-140649600D02*
X42179197Y-140554361D01*
X43131578Y-140744838D02*
X43131578Y-138744838D01*
X43131578Y-139506742D02*
X43322054Y-139411504D01*
X43322054Y-139411504D02*
X43703007Y-139411504D01*
X43703007Y-139411504D02*
X43893483Y-139506742D01*
X43893483Y-139506742D02*
X43988721Y-139601980D01*
X43988721Y-139601980D02*
X44083959Y-139792457D01*
X44083959Y-139792457D02*
X44083959Y-140363885D01*
X44083959Y-140363885D02*
X43988721Y-140554361D01*
X43988721Y-140554361D02*
X43893483Y-140649600D01*
X43893483Y-140649600D02*
X43703007Y-140744838D01*
X43703007Y-140744838D02*
X43322054Y-140744838D01*
X43322054Y-140744838D02*
X43131578Y-140649600D01*
X44941102Y-140554361D02*
X45036340Y-140649600D01*
X45036340Y-140649600D02*
X44941102Y-140744838D01*
X44941102Y-140744838D02*
X44845864Y-140649600D01*
X44845864Y-140649600D02*
X44941102Y-140554361D01*
X44941102Y-140554361D02*
X44941102Y-140744838D01*
X46750626Y-140649600D02*
X46560150Y-140744838D01*
X46560150Y-140744838D02*
X46179197Y-140744838D01*
X46179197Y-140744838D02*
X45988721Y-140649600D01*
X45988721Y-140649600D02*
X45893483Y-140554361D01*
X45893483Y-140554361D02*
X45798245Y-140363885D01*
X45798245Y-140363885D02*
X45798245Y-139792457D01*
X45798245Y-139792457D02*
X45893483Y-139601980D01*
X45893483Y-139601980D02*
X45988721Y-139506742D01*
X45988721Y-139506742D02*
X46179197Y-139411504D01*
X46179197Y-139411504D02*
X46560150Y-139411504D01*
X46560150Y-139411504D02*
X46750626Y-139506742D01*
X47893483Y-140744838D02*
X47703007Y-140649600D01*
X47703007Y-140649600D02*
X47607769Y-140554361D01*
X47607769Y-140554361D02*
X47512531Y-140363885D01*
X47512531Y-140363885D02*
X47512531Y-139792457D01*
X47512531Y-139792457D02*
X47607769Y-139601980D01*
X47607769Y-139601980D02*
X47703007Y-139506742D01*
X47703007Y-139506742D02*
X47893483Y-139411504D01*
X47893483Y-139411504D02*
X48179198Y-139411504D01*
X48179198Y-139411504D02*
X48369674Y-139506742D01*
X48369674Y-139506742D02*
X48464912Y-139601980D01*
X48464912Y-139601980D02*
X48560150Y-139792457D01*
X48560150Y-139792457D02*
X48560150Y-140363885D01*
X48560150Y-140363885D02*
X48464912Y-140554361D01*
X48464912Y-140554361D02*
X48369674Y-140649600D01*
X48369674Y-140649600D02*
X48179198Y-140744838D01*
X48179198Y-140744838D02*
X47893483Y-140744838D01*
X49417293Y-140744838D02*
X49417293Y-139411504D01*
X49417293Y-139601980D02*
X49512531Y-139506742D01*
X49512531Y-139506742D02*
X49703007Y-139411504D01*
X49703007Y-139411504D02*
X49988722Y-139411504D01*
X49988722Y-139411504D02*
X50179198Y-139506742D01*
X50179198Y-139506742D02*
X50274436Y-139697219D01*
X50274436Y-139697219D02*
X50274436Y-140744838D01*
X50274436Y-139697219D02*
X50369674Y-139506742D01*
X50369674Y-139506742D02*
X50560150Y-139411504D01*
X50560150Y-139411504D02*
X50845864Y-139411504D01*
X50845864Y-139411504D02*
X51036341Y-139506742D01*
X51036341Y-139506742D02*
X51131579Y-139697219D01*
X51131579Y-139697219D02*
X51131579Y-140744838D01*
X53512531Y-138649600D02*
X51798246Y-141221028D01*
X53988722Y-139411504D02*
X54464912Y-140744838D01*
X54464912Y-140744838D02*
X54941103Y-139411504D01*
X56464913Y-140649600D02*
X56274437Y-140744838D01*
X56274437Y-140744838D02*
X55893484Y-140744838D01*
X55893484Y-140744838D02*
X55703008Y-140649600D01*
X55703008Y-140649600D02*
X55607770Y-140459123D01*
X55607770Y-140459123D02*
X55607770Y-139697219D01*
X55607770Y-139697219D02*
X55703008Y-139506742D01*
X55703008Y-139506742D02*
X55893484Y-139411504D01*
X55893484Y-139411504D02*
X56274437Y-139411504D01*
X56274437Y-139411504D02*
X56464913Y-139506742D01*
X56464913Y-139506742D02*
X56560151Y-139697219D01*
X56560151Y-139697219D02*
X56560151Y-139887695D01*
X56560151Y-139887695D02*
X55607770Y-140078171D01*
X57417294Y-140744838D02*
X57417294Y-138744838D01*
X57607770Y-139982933D02*
X58179199Y-140744838D01*
X58179199Y-139411504D02*
X57417294Y-140173409D01*
X59036342Y-140744838D02*
X59036342Y-138744838D01*
X59226818Y-139982933D02*
X59798247Y-140744838D01*
X59798247Y-139411504D02*
X59036342Y-140173409D01*
X61512533Y-139411504D02*
X61512533Y-140744838D01*
X60655390Y-139411504D02*
X60655390Y-140459123D01*
X60655390Y-140459123D02*
X60750628Y-140649600D01*
X60750628Y-140649600D02*
X60941104Y-140744838D01*
X60941104Y-140744838D02*
X61226819Y-140744838D01*
X61226819Y-140744838D02*
X61417295Y-140649600D01*
X61417295Y-140649600D02*
X61512533Y-140554361D01*
X62750628Y-140744838D02*
X62560152Y-140649600D01*
X62560152Y-140649600D02*
X62464914Y-140459123D01*
X62464914Y-140459123D02*
X62464914Y-138744838D01*
X63512533Y-140744838D02*
X63512533Y-139411504D01*
X63512533Y-138744838D02*
X63417295Y-138840076D01*
X63417295Y-138840076D02*
X63512533Y-138935314D01*
X63512533Y-138935314D02*
X63607771Y-138840076D01*
X63607771Y-138840076D02*
X63512533Y-138744838D01*
X63512533Y-138744838D02*
X63512533Y-138935314D01*
X65893485Y-138649600D02*
X64179200Y-141221028D01*
X66560152Y-140744838D02*
X66560152Y-139411504D01*
X66560152Y-139601980D02*
X66655390Y-139506742D01*
X66655390Y-139506742D02*
X66845866Y-139411504D01*
X66845866Y-139411504D02*
X67131581Y-139411504D01*
X67131581Y-139411504D02*
X67322057Y-139506742D01*
X67322057Y-139506742D02*
X67417295Y-139697219D01*
X67417295Y-139697219D02*
X67417295Y-140744838D01*
X67417295Y-139697219D02*
X67512533Y-139506742D01*
X67512533Y-139506742D02*
X67703009Y-139411504D01*
X67703009Y-139411504D02*
X67988723Y-139411504D01*
X67988723Y-139411504D02*
X68179200Y-139506742D01*
X68179200Y-139506742D02*
X68274438Y-139697219D01*
X68274438Y-139697219D02*
X68274438Y-140744838D01*
X69036343Y-139411504D02*
X69512533Y-140744838D01*
X69512533Y-140744838D02*
X69988724Y-139411504D01*
X70274439Y-140935314D02*
X71798248Y-140935314D01*
X72274439Y-140744838D02*
X72274439Y-139411504D01*
X72274439Y-138744838D02*
X72179201Y-138840076D01*
X72179201Y-138840076D02*
X72274439Y-138935314D01*
X72274439Y-138935314D02*
X72369677Y-138840076D01*
X72369677Y-138840076D02*
X72274439Y-138744838D01*
X72274439Y-138744838D02*
X72274439Y-138935314D01*
X73512534Y-140744838D02*
X73322058Y-140649600D01*
X73322058Y-140649600D02*
X73226820Y-140554361D01*
X73226820Y-140554361D02*
X73131582Y-140363885D01*
X73131582Y-140363885D02*
X73131582Y-139792457D01*
X73131582Y-139792457D02*
X73226820Y-139601980D01*
X73226820Y-139601980D02*
X73322058Y-139506742D01*
X73322058Y-139506742D02*
X73512534Y-139411504D01*
X73512534Y-139411504D02*
X73798249Y-139411504D01*
X73798249Y-139411504D02*
X73988725Y-139506742D01*
X73988725Y-139506742D02*
X74083963Y-139601980D01*
X74083963Y-139601980D02*
X74179201Y-139792457D01*
X74179201Y-139792457D02*
X74179201Y-140363885D01*
X74179201Y-140363885D02*
X74083963Y-140554361D01*
X74083963Y-140554361D02*
X73988725Y-140649600D01*
X73988725Y-140649600D02*
X73798249Y-140744838D01*
X73798249Y-140744838D02*
X73512534Y-140744838D01*
X74560154Y-140935314D02*
X76083963Y-140935314D01*
X76560154Y-140744838D02*
X76560154Y-138744838D01*
X76560154Y-139506742D02*
X76750630Y-139411504D01*
X76750630Y-139411504D02*
X77131583Y-139411504D01*
X77131583Y-139411504D02*
X77322059Y-139506742D01*
X77322059Y-139506742D02*
X77417297Y-139601980D01*
X77417297Y-139601980D02*
X77512535Y-139792457D01*
X77512535Y-139792457D02*
X77512535Y-140363885D01*
X77512535Y-140363885D02*
X77417297Y-140554361D01*
X77417297Y-140554361D02*
X77322059Y-140649600D01*
X77322059Y-140649600D02*
X77131583Y-140744838D01*
X77131583Y-140744838D02*
X76750630Y-140744838D01*
X76750630Y-140744838D02*
X76560154Y-140649600D01*
X78655392Y-140744838D02*
X78464916Y-140649600D01*
X78464916Y-140649600D02*
X78369678Y-140554361D01*
X78369678Y-140554361D02*
X78274440Y-140363885D01*
X78274440Y-140363885D02*
X78274440Y-139792457D01*
X78274440Y-139792457D02*
X78369678Y-139601980D01*
X78369678Y-139601980D02*
X78464916Y-139506742D01*
X78464916Y-139506742D02*
X78655392Y-139411504D01*
X78655392Y-139411504D02*
X78941107Y-139411504D01*
X78941107Y-139411504D02*
X79131583Y-139506742D01*
X79131583Y-139506742D02*
X79226821Y-139601980D01*
X79226821Y-139601980D02*
X79322059Y-139792457D01*
X79322059Y-139792457D02*
X79322059Y-140363885D01*
X79322059Y-140363885D02*
X79226821Y-140554361D01*
X79226821Y-140554361D02*
X79131583Y-140649600D01*
X79131583Y-140649600D02*
X78941107Y-140744838D01*
X78941107Y-140744838D02*
X78655392Y-140744838D01*
X79988726Y-140744838D02*
X81036345Y-139411504D01*
X79988726Y-139411504D02*
X81036345Y-140744838D01*
X168136039Y-108777126D02*
X168136039Y-107507126D01*
X168136039Y-107507126D02*
X168619849Y-107507126D01*
X168619849Y-107507126D02*
X168740801Y-107567602D01*
X168740801Y-107567602D02*
X168801278Y-107628078D01*
X168801278Y-107628078D02*
X168861754Y-107749030D01*
X168861754Y-107749030D02*
X168861754Y-107930459D01*
X168861754Y-107930459D02*
X168801278Y-108051411D01*
X168801278Y-108051411D02*
X168740801Y-108111888D01*
X168740801Y-108111888D02*
X168619849Y-108172364D01*
X168619849Y-108172364D02*
X168136039Y-108172364D01*
X169950325Y-107930459D02*
X169950325Y-108777126D01*
X169406039Y-107930459D02*
X169406039Y-108595697D01*
X169406039Y-108595697D02*
X169466516Y-108716650D01*
X169466516Y-108716650D02*
X169587468Y-108777126D01*
X169587468Y-108777126D02*
X169768897Y-108777126D01*
X169768897Y-108777126D02*
X169889849Y-108716650D01*
X169889849Y-108716650D02*
X169950325Y-108656173D01*
X170736516Y-108777126D02*
X170615564Y-108716650D01*
X170615564Y-108716650D02*
X170555087Y-108595697D01*
X170555087Y-108595697D02*
X170555087Y-107507126D01*
X171401754Y-108777126D02*
X171280802Y-108716650D01*
X171280802Y-108716650D02*
X171220325Y-108595697D01*
X171220325Y-108595697D02*
X171220325Y-107507126D01*
X171885563Y-108293316D02*
X172853183Y-108293316D01*
X174002230Y-107930459D02*
X174002230Y-108777126D01*
X173457944Y-107930459D02*
X173457944Y-108595697D01*
X173457944Y-108595697D02*
X173518421Y-108716650D01*
X173518421Y-108716650D02*
X173639373Y-108777126D01*
X173639373Y-108777126D02*
X173820802Y-108777126D01*
X173820802Y-108777126D02*
X173941754Y-108716650D01*
X173941754Y-108716650D02*
X174002230Y-108656173D01*
X174606992Y-107930459D02*
X174606992Y-109200459D01*
X174606992Y-107990935D02*
X174727945Y-107930459D01*
X174727945Y-107930459D02*
X174969850Y-107930459D01*
X174969850Y-107930459D02*
X175090802Y-107990935D01*
X175090802Y-107990935D02*
X175151278Y-108051411D01*
X175151278Y-108051411D02*
X175211754Y-108172364D01*
X175211754Y-108172364D02*
X175211754Y-108535221D01*
X175211754Y-108535221D02*
X175151278Y-108656173D01*
X175151278Y-108656173D02*
X175090802Y-108716650D01*
X175090802Y-108716650D02*
X174969850Y-108777126D01*
X174969850Y-108777126D02*
X174727945Y-108777126D01*
X174727945Y-108777126D02*
X174606992Y-108716650D01*
X176663183Y-107628078D02*
X176723659Y-107567602D01*
X176723659Y-107567602D02*
X176844612Y-107507126D01*
X176844612Y-107507126D02*
X177146993Y-107507126D01*
X177146993Y-107507126D02*
X177267945Y-107567602D01*
X177267945Y-107567602D02*
X177328421Y-107628078D01*
X177328421Y-107628078D02*
X177388898Y-107749030D01*
X177388898Y-107749030D02*
X177388898Y-107869983D01*
X177388898Y-107869983D02*
X177328421Y-108051411D01*
X177328421Y-108051411D02*
X176602707Y-108777126D01*
X176602707Y-108777126D02*
X177388898Y-108777126D01*
X177933183Y-108777126D02*
X177933183Y-107507126D01*
X178054136Y-108293316D02*
X178416993Y-108777126D01*
X178416993Y-107930459D02*
X177933183Y-108414269D01*
X178900802Y-107628078D02*
X178961278Y-107567602D01*
X178961278Y-107567602D02*
X179082231Y-107507126D01*
X179082231Y-107507126D02*
X179384612Y-107507126D01*
X179384612Y-107507126D02*
X179505564Y-107567602D01*
X179505564Y-107567602D02*
X179566040Y-107628078D01*
X179566040Y-107628078D02*
X179626517Y-107749030D01*
X179626517Y-107749030D02*
X179626517Y-107869983D01*
X179626517Y-107869983D02*
X179566040Y-108051411D01*
X179566040Y-108051411D02*
X178840326Y-108777126D01*
X178840326Y-108777126D02*
X179626517Y-108777126D01*
D10*
G36*
X47283621Y-67316651D02*
G01*
X37554962Y-67316651D01*
X37554962Y-63657660D01*
X38110518Y-63657660D01*
X38114551Y-63682317D01*
X38114551Y-63707309D01*
X38125043Y-63746469D01*
X38131587Y-63786474D01*
X38141864Y-63809247D01*
X38148333Y-63833388D01*
X38168605Y-63868500D01*
X38185279Y-63905446D01*
X38201101Y-63924785D01*
X38213597Y-63946427D01*
X38242261Y-63975091D01*
X38267933Y-64006468D01*
X38288224Y-64021054D01*
X38305893Y-64038723D01*
X38341000Y-64058992D01*
X38373917Y-64082655D01*
X38397287Y-64091490D01*
X38418931Y-64103987D01*
X38458098Y-64114481D01*
X38496009Y-64128815D01*
X38520866Y-64131300D01*
X38545010Y-64137770D01*
X38585558Y-64137770D01*
X38625887Y-64141803D01*
X38650544Y-64137770D01*
X38675536Y-64137770D01*
X38714696Y-64127277D01*
X38754701Y-64120734D01*
X38777474Y-64110456D01*
X38801615Y-64103988D01*
X38836727Y-64083715D01*
X38873673Y-64067042D01*
X38893012Y-64051219D01*
X38914654Y-64038724D01*
X38963827Y-63995601D01*
X39144548Y-63814879D01*
X39442593Y-63665857D01*
X40397002Y-63665857D01*
X40695049Y-63814880D01*
X40818394Y-63938226D01*
X40967417Y-64236271D01*
X40967417Y-65190680D01*
X40818394Y-65488725D01*
X40695047Y-65612072D01*
X40397002Y-65761095D01*
X39442593Y-65761095D01*
X39144548Y-65612072D01*
X38963827Y-65431351D01*
X38914654Y-65388228D01*
X38801616Y-65322964D01*
X38675537Y-65289181D01*
X38545011Y-65289181D01*
X38418932Y-65322964D01*
X38305894Y-65388228D01*
X38213598Y-65480524D01*
X38148334Y-65593562D01*
X38114551Y-65719641D01*
X38114551Y-65850167D01*
X38148334Y-65976246D01*
X38213598Y-66089284D01*
X38256721Y-66138457D01*
X38494817Y-66376554D01*
X38543990Y-66419677D01*
X38557033Y-66427207D01*
X38568303Y-66437201D01*
X38624763Y-66470214D01*
X39100954Y-66708309D01*
X39125854Y-66718783D01*
X39133218Y-66723035D01*
X39140772Y-66725059D01*
X39161240Y-66733669D01*
X39210619Y-66743774D01*
X39259297Y-66756817D01*
X39281449Y-66758269D01*
X39289116Y-66759838D01*
X39297607Y-66759328D01*
X39324560Y-66761095D01*
X40515036Y-66761095D01*
X40541995Y-66759327D01*
X40550480Y-66759837D01*
X40558139Y-66758269D01*
X40580299Y-66756817D01*
X40628982Y-66743772D01*
X40678356Y-66733669D01*
X40698823Y-66725059D01*
X40706378Y-66723035D01*
X40713741Y-66718783D01*
X40738642Y-66708309D01*
X41214833Y-66470214D01*
X41271293Y-66437201D01*
X41282562Y-66427208D01*
X41295608Y-66419676D01*
X41344781Y-66376553D01*
X41582876Y-66138457D01*
X41625999Y-66089284D01*
X41633529Y-66076240D01*
X41643523Y-66064971D01*
X41676536Y-66008511D01*
X41914631Y-65532320D01*
X41925105Y-65507419D01*
X41929357Y-65500056D01*
X41931381Y-65492501D01*
X41939991Y-65472034D01*
X41950096Y-65422654D01*
X41963139Y-65373977D01*
X41964591Y-65351824D01*
X41966160Y-65344158D01*
X41965650Y-65335666D01*
X41967417Y-65308714D01*
X41967417Y-64118238D01*
X41965649Y-64091278D01*
X41966159Y-64082794D01*
X41964591Y-64075134D01*
X41963139Y-64052975D01*
X41950095Y-64004293D01*
X41939991Y-63954917D01*
X41931380Y-63934448D01*
X41929357Y-63926896D01*
X41925107Y-63919535D01*
X41914631Y-63894631D01*
X41676536Y-63418441D01*
X41643523Y-63361981D01*
X41633530Y-63350711D01*
X41625998Y-63337666D01*
X41582875Y-63288493D01*
X41344780Y-63050399D01*
X41295607Y-63007276D01*
X41282563Y-62999745D01*
X41271293Y-62989751D01*
X41214833Y-62956738D01*
X40738642Y-62718643D01*
X40713741Y-62708168D01*
X40706378Y-62703917D01*
X40698823Y-62701892D01*
X40678356Y-62693283D01*
X40628982Y-62683179D01*
X40580299Y-62670135D01*
X40558139Y-62668682D01*
X40550480Y-62667115D01*
X40541995Y-62667624D01*
X40515036Y-62665857D01*
X39324560Y-62665857D01*
X39297607Y-62667623D01*
X39289116Y-62667114D01*
X39281449Y-62668682D01*
X39259297Y-62670135D01*
X39210619Y-62683177D01*
X39208614Y-62683588D01*
X39300864Y-61761095D01*
X41229322Y-61761095D01*
X41294585Y-61756817D01*
X41420664Y-61723035D01*
X41533703Y-61657772D01*
X41625999Y-61565476D01*
X41691262Y-61452437D01*
X41725044Y-61326358D01*
X41725044Y-61225650D01*
X42397247Y-61225650D01*
X42405068Y-61355942D01*
X42421647Y-61419209D01*
X44088314Y-66419209D01*
X44089722Y-66422661D01*
X44090081Y-66424416D01*
X44092013Y-66428281D01*
X44113011Y-66479770D01*
X44132572Y-66509397D01*
X44148455Y-66541162D01*
X44168381Y-66563633D01*
X44184929Y-66588696D01*
X44211497Y-66612255D01*
X44235055Y-66638822D01*
X44260114Y-66655367D01*
X44282589Y-66675297D01*
X44314357Y-66691181D01*
X44343981Y-66710740D01*
X44372463Y-66720234D01*
X44399335Y-66733670D01*
X44434134Y-66740791D01*
X44467809Y-66752016D01*
X44497777Y-66753814D01*
X44527211Y-66759838D01*
X44562662Y-66757709D01*
X44598101Y-66759837D01*
X44627527Y-66753815D01*
X44657503Y-66752016D01*
X44691179Y-66740790D01*
X44725977Y-66733670D01*
X44752847Y-66720234D01*
X44781331Y-66710740D01*
X44810958Y-66691178D01*
X44842723Y-66675296D01*
X44865194Y-66655369D01*
X44890257Y-66638822D01*
X44913816Y-66612253D01*
X44940383Y-66588696D01*
X44956928Y-66563636D01*
X44976858Y-66541162D01*
X44992742Y-66509393D01*
X45012301Y-66479770D01*
X45033297Y-66428282D01*
X45035231Y-66424416D01*
X45035589Y-66422661D01*
X45036998Y-66419209D01*
X46703664Y-61419208D01*
X46720243Y-61355942D01*
X46728065Y-61225650D01*
X46701897Y-61097774D01*
X46643524Y-60981027D01*
X46556923Y-60883367D01*
X46447997Y-60811449D01*
X46324169Y-60770173D01*
X46193877Y-60762352D01*
X46066001Y-60788520D01*
X45949255Y-60846893D01*
X45851595Y-60933493D01*
X45779677Y-61042420D01*
X45754980Y-61102981D01*
X44562655Y-64679954D01*
X43370331Y-61102981D01*
X43345634Y-61042420D01*
X43273716Y-60933494D01*
X43176056Y-60846894D01*
X43059310Y-60788520D01*
X42931434Y-60762353D01*
X42801142Y-60770174D01*
X42677314Y-60811450D01*
X42568388Y-60883368D01*
X42481788Y-60981028D01*
X42423414Y-61097774D01*
X42397247Y-61225650D01*
X41725044Y-61225650D01*
X41725044Y-61195832D01*
X41691262Y-61069753D01*
X41625999Y-60956714D01*
X41533703Y-60864418D01*
X41420664Y-60799155D01*
X41294585Y-60765373D01*
X41229322Y-60761095D01*
X38848370Y-60761095D01*
X38837465Y-60761809D01*
X38832757Y-60761339D01*
X38824804Y-60762639D01*
X38783107Y-60765373D01*
X38743955Y-60775863D01*
X38703942Y-60782408D01*
X38681163Y-60792688D01*
X38657028Y-60799155D01*
X38621918Y-60819425D01*
X38584971Y-60836100D01*
X38565633Y-60851921D01*
X38543989Y-60864418D01*
X38515320Y-60893086D01*
X38483949Y-60918754D01*
X38469364Y-60939042D01*
X38451693Y-60956714D01*
X38431421Y-60991824D01*
X38407762Y-61024738D01*
X38398925Y-61048109D01*
X38386430Y-61069753D01*
X38375936Y-61108914D01*
X38361602Y-61146830D01*
X38354732Y-61188053D01*
X38352648Y-61195832D01*
X38352648Y-61200559D01*
X38350851Y-61211343D01*
X38112755Y-63592295D01*
X38110518Y-63657660D01*
X37554962Y-63657660D01*
X37554962Y-60205539D01*
X47283621Y-60205539D01*
X47283621Y-67316651D01*
G37*
G36*
X73045526Y-67316651D02*
G01*
X58555976Y-67316651D01*
X58555976Y-62725110D01*
X59111532Y-62725110D01*
X59137700Y-62852986D01*
X59196073Y-62969732D01*
X59282673Y-63067393D01*
X59391598Y-63139312D01*
X59515426Y-63180588D01*
X59645718Y-63188408D01*
X59773594Y-63162240D01*
X59833880Y-63136880D01*
X60310071Y-62898785D01*
X60366531Y-62865772D01*
X60377800Y-62855779D01*
X60390846Y-62848247D01*
X60440019Y-62805124D01*
X60538846Y-62706296D01*
X60538846Y-65761095D01*
X59610274Y-65761095D01*
X59545011Y-65765373D01*
X59418932Y-65799155D01*
X59305893Y-65864418D01*
X59213597Y-65956714D01*
X59148334Y-66069753D01*
X59114552Y-66195832D01*
X59114552Y-66326358D01*
X59148334Y-66452437D01*
X59213597Y-66565476D01*
X59305893Y-66657772D01*
X59418932Y-66723035D01*
X59545011Y-66756817D01*
X59610274Y-66761095D01*
X62467417Y-66761095D01*
X62532680Y-66756817D01*
X62658759Y-66723035D01*
X62771798Y-66657772D01*
X62864094Y-66565476D01*
X62929357Y-66452437D01*
X62963139Y-66326358D01*
X62963139Y-66195832D01*
X63638361Y-66195832D01*
X63638361Y-66326358D01*
X63663241Y-66419209D01*
X63672144Y-66452437D01*
X63737407Y-66565476D01*
X63829703Y-66657772D01*
X63942742Y-66723035D01*
X64068821Y-66756818D01*
X64068836Y-66756818D01*
X64134084Y-66761095D01*
X67229322Y-66761095D01*
X67294585Y-66756817D01*
X67420664Y-66723035D01*
X67533703Y-66657772D01*
X67625999Y-66565476D01*
X67691262Y-66452437D01*
X67725044Y-66326358D01*
X67725044Y-66195832D01*
X67691262Y-66069753D01*
X67625999Y-65956714D01*
X67533703Y-65864418D01*
X67420664Y-65799155D01*
X67294585Y-65765373D01*
X67229322Y-65761095D01*
X65341190Y-65761095D01*
X67344780Y-63757506D01*
X67362594Y-63737192D01*
X67368954Y-63731553D01*
X67373262Y-63725027D01*
X67387903Y-63708333D01*
X67413104Y-63664682D01*
X67440872Y-63622627D01*
X67449256Y-63602067D01*
X67453167Y-63595294D01*
X67455367Y-63587081D01*
X67465569Y-63562066D01*
X67703664Y-62847780D01*
X67720243Y-62784513D01*
X67721145Y-62769478D01*
X67725044Y-62754929D01*
X67729322Y-62689666D01*
X67729322Y-62213476D01*
X67727554Y-62186516D01*
X67728064Y-62178032D01*
X67726496Y-62170372D01*
X67725044Y-62148213D01*
X67712000Y-62099531D01*
X67701896Y-62050155D01*
X67693285Y-62029686D01*
X67691262Y-62022134D01*
X67687012Y-62014773D01*
X67676536Y-61989869D01*
X67438441Y-61513679D01*
X67405428Y-61457219D01*
X67395435Y-61445949D01*
X67387903Y-61432904D01*
X67344780Y-61383731D01*
X67186698Y-61225650D01*
X68159152Y-61225650D01*
X68166973Y-61355942D01*
X68183552Y-61419209D01*
X69850219Y-66419209D01*
X69851627Y-66422661D01*
X69851986Y-66424416D01*
X69853918Y-66428281D01*
X69874916Y-66479770D01*
X69894477Y-66509397D01*
X69910360Y-66541162D01*
X69930286Y-66563633D01*
X69946834Y-66588696D01*
X69973402Y-66612255D01*
X69996960Y-66638822D01*
X70022019Y-66655367D01*
X70044494Y-66675297D01*
X70076262Y-66691181D01*
X70105886Y-66710740D01*
X70134368Y-66720234D01*
X70161240Y-66733670D01*
X70196039Y-66740791D01*
X70229714Y-66752016D01*
X70259682Y-66753814D01*
X70289116Y-66759838D01*
X70324567Y-66757709D01*
X70360006Y-66759837D01*
X70389432Y-66753815D01*
X70419408Y-66752016D01*
X70453084Y-66740790D01*
X70487882Y-66733670D01*
X70514752Y-66720234D01*
X70543236Y-66710740D01*
X70572863Y-66691178D01*
X70604628Y-66675296D01*
X70627099Y-66655369D01*
X70652162Y-66638822D01*
X70675721Y-66612253D01*
X70702288Y-66588696D01*
X70718833Y-66563636D01*
X70738763Y-66541162D01*
X70754647Y-66509393D01*
X70774206Y-66479770D01*
X70795202Y-66428282D01*
X70797136Y-66424416D01*
X70797494Y-66422661D01*
X70798903Y-66419209D01*
X72465569Y-61419208D01*
X72482148Y-61355942D01*
X72489970Y-61225650D01*
X72463802Y-61097774D01*
X72405429Y-60981027D01*
X72318828Y-60883367D01*
X72209902Y-60811449D01*
X72086074Y-60770173D01*
X71955782Y-60762352D01*
X71827906Y-60788520D01*
X71711160Y-60846893D01*
X71613500Y-60933493D01*
X71541582Y-61042420D01*
X71516885Y-61102981D01*
X70324560Y-64679954D01*
X69132236Y-61102981D01*
X69107539Y-61042420D01*
X69035621Y-60933494D01*
X68937961Y-60846894D01*
X68821215Y-60788520D01*
X68693339Y-60762353D01*
X68563047Y-60770174D01*
X68439219Y-60811450D01*
X68330293Y-60883368D01*
X68243693Y-60981028D01*
X68185319Y-61097774D01*
X68159152Y-61225650D01*
X67186698Y-61225650D01*
X67106685Y-61145637D01*
X67057512Y-61102514D01*
X67044468Y-61094983D01*
X67033198Y-61084989D01*
X66976738Y-61051976D01*
X66500547Y-60813881D01*
X66475646Y-60803406D01*
X66468283Y-60799155D01*
X66460728Y-60797130D01*
X66440261Y-60788521D01*
X66390887Y-60778417D01*
X66342204Y-60765373D01*
X66320044Y-60763920D01*
X66312385Y-60762353D01*
X66303900Y-60762862D01*
X66276941Y-60761095D01*
X65086465Y-60761095D01*
X65059512Y-60762861D01*
X65051021Y-60762352D01*
X65043354Y-60763920D01*
X65021202Y-60765373D01*
X64972524Y-60778415D01*
X64923145Y-60788521D01*
X64902677Y-60797130D01*
X64895123Y-60799155D01*
X64887759Y-60803406D01*
X64862859Y-60813881D01*
X64386668Y-61051976D01*
X64330208Y-61084989D01*
X64318938Y-61094982D01*
X64305895Y-61102513D01*
X64256722Y-61145636D01*
X64018626Y-61383731D01*
X63975503Y-61432904D01*
X63910239Y-61545942D01*
X63876456Y-61672021D01*
X63876456Y-61802547D01*
X63910238Y-61928626D01*
X63975502Y-62041665D01*
X64067798Y-62133961D01*
X64180836Y-62199225D01*
X64306915Y-62233008D01*
X64437441Y-62233008D01*
X64563520Y-62199226D01*
X64676559Y-62133962D01*
X64725732Y-62090839D01*
X64906453Y-61910117D01*
X65204498Y-61761095D01*
X66158907Y-61761095D01*
X66456954Y-61910118D01*
X66580299Y-62033464D01*
X66729322Y-62331509D01*
X66729322Y-62608527D01*
X66554210Y-63133861D01*
X63780531Y-65907542D01*
X63737422Y-65956698D01*
X63737407Y-65956714D01*
X63672144Y-66069753D01*
X63638361Y-66195832D01*
X62963139Y-66195832D01*
X62929357Y-66069753D01*
X62864094Y-65956714D01*
X62771798Y-65864418D01*
X62658759Y-65799155D01*
X62532680Y-65765373D01*
X62467417Y-65761095D01*
X61538846Y-65761095D01*
X61538846Y-61261095D01*
X61537208Y-61236121D01*
X61537741Y-61227872D01*
X61536145Y-61219892D01*
X61534568Y-61195832D01*
X61521810Y-61148220D01*
X61512143Y-61099881D01*
X61504973Y-61085380D01*
X61500786Y-61069753D01*
X61476133Y-61027054D01*
X61454290Y-60982876D01*
X61443614Y-60970728D01*
X61435523Y-60956714D01*
X61400654Y-60921845D01*
X61368125Y-60884831D01*
X61354669Y-60875860D01*
X61343227Y-60864418D01*
X61300523Y-60839763D01*
X61259521Y-60812428D01*
X61244201Y-60807245D01*
X61230188Y-60799155D01*
X61182566Y-60786395D01*
X61135878Y-60770601D01*
X61119734Y-60769559D01*
X61104109Y-60765373D01*
X61054819Y-60765373D01*
X61005623Y-60762200D01*
X60989758Y-60765373D01*
X60973583Y-60765373D01*
X60925973Y-60778129D01*
X60877631Y-60787798D01*
X60863129Y-60794968D01*
X60847504Y-60799155D01*
X60804811Y-60823803D01*
X60760626Y-60845651D01*
X60748476Y-60856328D01*
X60734465Y-60864418D01*
X60699599Y-60899283D01*
X60662582Y-60931816D01*
X60647926Y-60950956D01*
X60642169Y-60956714D01*
X60638033Y-60963877D01*
X60622821Y-60983745D01*
X60174092Y-61656835D01*
X59790285Y-62040643D01*
X59386668Y-62242452D01*
X59330208Y-62275465D01*
X59232547Y-62362065D01*
X59160628Y-62470990D01*
X59119352Y-62594818D01*
X59111532Y-62725110D01*
X58555976Y-62725110D01*
X58555976Y-60205539D01*
X73045526Y-60205539D01*
X73045526Y-67316651D01*
G37*
G36*
X174929159Y-94861206D02*
G01*
X175264511Y-95196559D01*
X175441775Y-95551086D01*
X175651630Y-96390504D01*
X175651630Y-96981685D01*
X175441774Y-97821104D01*
X175264511Y-98175629D01*
X174929158Y-98510983D01*
X174403823Y-98686095D01*
X173794487Y-98686095D01*
X173794487Y-94686095D01*
X174403823Y-94686095D01*
X174929159Y-94861206D01*
G37*
G36*
X180379259Y-94835117D02*
G01*
X180700148Y-95156005D01*
X180889725Y-95914312D01*
X180889725Y-97457876D01*
X180700148Y-98216183D01*
X180379260Y-98537071D01*
X180081214Y-98686095D01*
X179364902Y-98686095D01*
X179066857Y-98537072D01*
X178745968Y-98216183D01*
X178556391Y-97457875D01*
X178556391Y-95914313D01*
X178745968Y-95156004D01*
X179066856Y-94835117D01*
X179364902Y-94686095D01*
X180081214Y-94686095D01*
X180379259Y-94835117D01*
G37*
G36*
X182445281Y-100241651D02*
G01*
X172238931Y-100241651D01*
X172238931Y-94186095D01*
X172794487Y-94186095D01*
X172794487Y-99186095D01*
X172798765Y-99251358D01*
X172832547Y-99377437D01*
X172897810Y-99490476D01*
X172990106Y-99582772D01*
X173103145Y-99648035D01*
X173229224Y-99681817D01*
X173294487Y-99686095D01*
X174484963Y-99686095D01*
X174550226Y-99681817D01*
X174564775Y-99677918D01*
X174579810Y-99677016D01*
X174643077Y-99660437D01*
X175357362Y-99422342D01*
X175382375Y-99412141D01*
X175390591Y-99409940D01*
X175397367Y-99406027D01*
X175417923Y-99397645D01*
X175459974Y-99369880D01*
X175503630Y-99344676D01*
X175520325Y-99330035D01*
X175526850Y-99325727D01*
X175532489Y-99319367D01*
X175552803Y-99301553D01*
X176028993Y-98825362D01*
X176072116Y-98776189D01*
X176079646Y-98763145D01*
X176089640Y-98751876D01*
X176122653Y-98695416D01*
X176360748Y-98219225D01*
X176374390Y-98186793D01*
X176378626Y-98179164D01*
X176381921Y-98168890D01*
X176386108Y-98158939D01*
X176387858Y-98150385D01*
X176398605Y-98116887D01*
X176636701Y-97164506D01*
X176645843Y-97114132D01*
X176647352Y-97108501D01*
X176647627Y-97104301D01*
X176648380Y-97100154D01*
X176648281Y-97094316D01*
X176651630Y-97043238D01*
X176651630Y-96328952D01*
X176648281Y-96277873D01*
X176648380Y-96272036D01*
X176647627Y-96267888D01*
X176647352Y-96263689D01*
X176645843Y-96258057D01*
X176636701Y-96207684D01*
X176547970Y-95852761D01*
X177556391Y-95852761D01*
X177556391Y-97519428D01*
X177559739Y-97570506D01*
X177559641Y-97576344D01*
X177560393Y-97580491D01*
X177560669Y-97584691D01*
X177562177Y-97590322D01*
X177571320Y-97640696D01*
X177809416Y-98593077D01*
X177829395Y-98655354D01*
X177831449Y-98659055D01*
X177832547Y-98663150D01*
X177863098Y-98716067D01*
X177892747Y-98769475D01*
X177895692Y-98772521D01*
X177897810Y-98776189D01*
X177940933Y-98825362D01*
X178417123Y-99301553D01*
X178466296Y-99344676D01*
X178479341Y-99352208D01*
X178490611Y-99362201D01*
X178547071Y-99395214D01*
X179023261Y-99633309D01*
X179048165Y-99643785D01*
X179055526Y-99648035D01*
X179063078Y-99650058D01*
X179083547Y-99658669D01*
X179132923Y-99668773D01*
X179181605Y-99681817D01*
X179203764Y-99683269D01*
X179211424Y-99684837D01*
X179219908Y-99684327D01*
X179246868Y-99686095D01*
X180199249Y-99686095D01*
X180226208Y-99684327D01*
X180234693Y-99684837D01*
X180242352Y-99683269D01*
X180264512Y-99681817D01*
X180313193Y-99668773D01*
X180362570Y-99658669D01*
X180383038Y-99650058D01*
X180390591Y-99648035D01*
X180397951Y-99643785D01*
X180422856Y-99633309D01*
X180899046Y-99395213D01*
X180955506Y-99362201D01*
X180966778Y-99352204D01*
X180979819Y-99344676D01*
X181028992Y-99301553D01*
X181505184Y-98825362D01*
X181548306Y-98776189D01*
X181550422Y-98772523D01*
X181553370Y-98769475D01*
X181583022Y-98716060D01*
X181613570Y-98663151D01*
X181614667Y-98659054D01*
X181616722Y-98655354D01*
X181636701Y-98593077D01*
X181874796Y-97640696D01*
X181883938Y-97590322D01*
X181885447Y-97584691D01*
X181885722Y-97580491D01*
X181886475Y-97576344D01*
X181886376Y-97570506D01*
X181889725Y-97519428D01*
X181889725Y-95852761D01*
X181886376Y-95801682D01*
X181886475Y-95795845D01*
X181885722Y-95791697D01*
X181885447Y-95787498D01*
X181883938Y-95781866D01*
X181874796Y-95731493D01*
X181636701Y-94779112D01*
X181616722Y-94716835D01*
X181614667Y-94713134D01*
X181613570Y-94709038D01*
X181583015Y-94656116D01*
X181553370Y-94602714D01*
X181550423Y-94599666D01*
X181548306Y-94595999D01*
X181505183Y-94546826D01*
X181028992Y-94070636D01*
X180979819Y-94027513D01*
X180966776Y-94019982D01*
X180955506Y-94009989D01*
X180899046Y-93976977D01*
X180422856Y-93738881D01*
X180397951Y-93728404D01*
X180390591Y-93724155D01*
X180383038Y-93722131D01*
X180362570Y-93713521D01*
X180313193Y-93703416D01*
X180264512Y-93690373D01*
X180242352Y-93688920D01*
X180234693Y-93687353D01*
X180226208Y-93687862D01*
X180199249Y-93686095D01*
X179246868Y-93686095D01*
X179219908Y-93687862D01*
X179211424Y-93687353D01*
X179203764Y-93688920D01*
X179181605Y-93690373D01*
X179132923Y-93703416D01*
X179083547Y-93713521D01*
X179063078Y-93722131D01*
X179055526Y-93724155D01*
X179048165Y-93728404D01*
X179023261Y-93738881D01*
X178547071Y-93976976D01*
X178490611Y-94009989D01*
X178479341Y-94019981D01*
X178466296Y-94027514D01*
X178417123Y-94070637D01*
X177940934Y-94546827D01*
X177897811Y-94596000D01*
X177895694Y-94599665D01*
X177892747Y-94602714D01*
X177863094Y-94656128D01*
X177832547Y-94709038D01*
X177831449Y-94713134D01*
X177829395Y-94716835D01*
X177809416Y-94779112D01*
X177571320Y-95731493D01*
X177562177Y-95781866D01*
X177560669Y-95787498D01*
X177560393Y-95791697D01*
X177559641Y-95795845D01*
X177559739Y-95801682D01*
X177556391Y-95852761D01*
X176547970Y-95852761D01*
X176398605Y-95255303D01*
X176387858Y-95221805D01*
X176386108Y-95213250D01*
X176381920Y-95203295D01*
X176378626Y-95193026D01*
X176374392Y-95185399D01*
X176360748Y-95152964D01*
X176122653Y-94676774D01*
X176089640Y-94620314D01*
X176079647Y-94609044D01*
X176072115Y-94595999D01*
X176028992Y-94546826D01*
X175552802Y-94070637D01*
X175532493Y-94052826D01*
X175526850Y-94046463D01*
X175520320Y-94042152D01*
X175503629Y-94027514D01*
X175459979Y-94002312D01*
X175417923Y-93974545D01*
X175397366Y-93966162D01*
X175390591Y-93962250D01*
X175382375Y-93960048D01*
X175357362Y-93949848D01*
X174643077Y-93711753D01*
X174579810Y-93695174D01*
X174564775Y-93694271D01*
X174550226Y-93690373D01*
X174484963Y-93686095D01*
X173294487Y-93686095D01*
X173229224Y-93690373D01*
X173103145Y-93724155D01*
X172990106Y-93789418D01*
X172897810Y-93881714D01*
X172832547Y-93994753D01*
X172798765Y-94120832D01*
X172794487Y-94186095D01*
X172238931Y-94186095D01*
X172238931Y-93130539D01*
X182445281Y-93130539D01*
X182445281Y-100241651D01*
G37*
D12*
G36*
X109111025Y-52999371D02*
G01*
X89962282Y-52999371D01*
X89962282Y-49363739D01*
X90628949Y-49363739D01*
X90628949Y-49486261D01*
X90652851Y-49606428D01*
X90699738Y-49719623D01*
X90767807Y-49821496D01*
X90854443Y-49908132D01*
X90956316Y-49976201D01*
X91069511Y-50023088D01*
X91189678Y-50046990D01*
X91250939Y-50050000D01*
X92911653Y-50050000D01*
X92911653Y-51710714D01*
X92914663Y-51771975D01*
X92938565Y-51892142D01*
X92985452Y-52005337D01*
X93053521Y-52107210D01*
X93140157Y-52193846D01*
X93242030Y-52261915D01*
X93355225Y-52308802D01*
X93475392Y-52332704D01*
X93597914Y-52332704D01*
X93718081Y-52308802D01*
X93831276Y-52261915D01*
X93933149Y-52193846D01*
X94019785Y-52107210D01*
X94087854Y-52005337D01*
X94134741Y-51892142D01*
X94158643Y-51771975D01*
X94161653Y-51710714D01*
X94161653Y-50050000D01*
X95822368Y-50050000D01*
X95883629Y-50046990D01*
X96003796Y-50023088D01*
X96116991Y-49976201D01*
X96218864Y-49908132D01*
X96305500Y-49821496D01*
X96373569Y-49719623D01*
X96420456Y-49606428D01*
X96444358Y-49486261D01*
X96444358Y-49363739D01*
X102628949Y-49363739D01*
X102628949Y-49486261D01*
X102652851Y-49606428D01*
X102699738Y-49719623D01*
X102767807Y-49821496D01*
X102854443Y-49908132D01*
X102956316Y-49976201D01*
X103069511Y-50023088D01*
X103189678Y-50046990D01*
X103250939Y-50050000D01*
X107822368Y-50050000D01*
X107883629Y-50046990D01*
X108003796Y-50023088D01*
X108116991Y-49976201D01*
X108218864Y-49908132D01*
X108305500Y-49821496D01*
X108373569Y-49719623D01*
X108420456Y-49606428D01*
X108444358Y-49486261D01*
X108444358Y-49363739D01*
X108420456Y-49243572D01*
X108373569Y-49130377D01*
X108305500Y-49028504D01*
X108218864Y-48941868D01*
X108116991Y-48873799D01*
X108003796Y-48826912D01*
X107883629Y-48803010D01*
X107822368Y-48800000D01*
X103250939Y-48800000D01*
X103189678Y-48803010D01*
X103069511Y-48826912D01*
X102956316Y-48873799D01*
X102854443Y-48941868D01*
X102767807Y-49028504D01*
X102699738Y-49130377D01*
X102652851Y-49243572D01*
X102628949Y-49363739D01*
X96444358Y-49363739D01*
X96420456Y-49243572D01*
X96373569Y-49130377D01*
X96305500Y-49028504D01*
X96218864Y-48941868D01*
X96116991Y-48873799D01*
X96003796Y-48826912D01*
X95883629Y-48803010D01*
X95822368Y-48800000D01*
X94161653Y-48800000D01*
X94161653Y-47139285D01*
X94158643Y-47078024D01*
X94134741Y-46957857D01*
X94087854Y-46844662D01*
X94019785Y-46742789D01*
X93933149Y-46656153D01*
X93831276Y-46588084D01*
X93718081Y-46541197D01*
X93597914Y-46517295D01*
X93475392Y-46517295D01*
X93355225Y-46541197D01*
X93242030Y-46588084D01*
X93140157Y-46656153D01*
X93053521Y-46742789D01*
X92985452Y-46844662D01*
X92938565Y-46957857D01*
X92914663Y-47078024D01*
X92911653Y-47139285D01*
X92911653Y-48800000D01*
X91250939Y-48800000D01*
X91189678Y-48803010D01*
X91069511Y-48826912D01*
X90956316Y-48873799D01*
X90854443Y-48941868D01*
X90767807Y-49028504D01*
X90699738Y-49130377D01*
X90652851Y-49243572D01*
X90628949Y-49363739D01*
X89962282Y-49363739D01*
X89962282Y-45850628D01*
X109111025Y-45850628D01*
X109111025Y-52999371D01*
G37*
G36*
X51113804Y-94002381D02*
G01*
X33390852Y-94002381D01*
X33390852Y-92649453D01*
X34057519Y-92649453D01*
X34057519Y-92771975D01*
X34081422Y-92892142D01*
X34128309Y-93005337D01*
X34196378Y-93107210D01*
X34283014Y-93193846D01*
X34384887Y-93261915D01*
X34498082Y-93308802D01*
X34618249Y-93332705D01*
X34618269Y-93332705D01*
X34679510Y-93335714D01*
X38393796Y-93335714D01*
X38455057Y-93332704D01*
X38575224Y-93308802D01*
X38688419Y-93261915D01*
X38790292Y-93193846D01*
X38876928Y-93107210D01*
X38944997Y-93005337D01*
X38991884Y-92892142D01*
X39015786Y-92771975D01*
X39015786Y-92649453D01*
X38991884Y-92529286D01*
X38944997Y-92416091D01*
X38876928Y-92314218D01*
X38790292Y-92227582D01*
X38688419Y-92159513D01*
X38575224Y-92112626D01*
X38455057Y-92088724D01*
X38393796Y-92085714D01*
X36188394Y-92085714D01*
X37580408Y-90693700D01*
X40054742Y-90693700D01*
X40057521Y-90732800D01*
X40057521Y-90771975D01*
X40061853Y-90793754D01*
X40063428Y-90815913D01*
X40073778Y-90853708D01*
X40081423Y-90892142D01*
X40089923Y-90912663D01*
X40095789Y-90934083D01*
X40113313Y-90969132D01*
X40128310Y-91005337D01*
X40140648Y-91023803D01*
X40150582Y-91043670D01*
X40174607Y-91074626D01*
X40196379Y-91107210D01*
X40212086Y-91122917D01*
X40225702Y-91140461D01*
X40255303Y-91166134D01*
X40283015Y-91193846D01*
X40301480Y-91206184D01*
X40318261Y-91220738D01*
X40352307Y-91240145D01*
X40384888Y-91261915D01*
X40405410Y-91270415D01*
X40424703Y-91281413D01*
X40461869Y-91293801D01*
X40498083Y-91308802D01*
X40519871Y-91313135D01*
X40540938Y-91320158D01*
X40579817Y-91325059D01*
X40618250Y-91332704D01*
X40654633Y-91334491D01*
X40662497Y-91335483D01*
X40667529Y-91335125D01*
X40679511Y-91335714D01*
X42911654Y-91335714D01*
X42911654Y-92710714D01*
X42914664Y-92771975D01*
X42938566Y-92892142D01*
X42985453Y-93005337D01*
X43053522Y-93107210D01*
X43140158Y-93193846D01*
X43242031Y-93261915D01*
X43355226Y-93308802D01*
X43475393Y-93332704D01*
X43597915Y-93332704D01*
X43718082Y-93308802D01*
X43831277Y-93261915D01*
X43933150Y-93193846D01*
X44019786Y-93107210D01*
X44087855Y-93005337D01*
X44134742Y-92892142D01*
X44158644Y-92771975D01*
X44161654Y-92710714D01*
X44161654Y-91335714D01*
X44393796Y-91335714D01*
X44455057Y-91332704D01*
X44575224Y-91308802D01*
X44688419Y-91261915D01*
X44790292Y-91193846D01*
X44876928Y-91107210D01*
X44944997Y-91005337D01*
X44991884Y-90892142D01*
X45015786Y-90771975D01*
X45015786Y-90649453D01*
X44991884Y-90529286D01*
X44944997Y-90416091D01*
X44876928Y-90314218D01*
X44790292Y-90227582D01*
X44688419Y-90159513D01*
X44575224Y-90112626D01*
X44455057Y-90088724D01*
X44393796Y-90085714D01*
X44161654Y-90085714D01*
X44161654Y-88710714D01*
X44158644Y-88649453D01*
X44134742Y-88529286D01*
X44087855Y-88416091D01*
X44019786Y-88314218D01*
X43933150Y-88227582D01*
X43831277Y-88159513D01*
X43718082Y-88112626D01*
X43597915Y-88088724D01*
X43475393Y-88088724D01*
X43355226Y-88112626D01*
X43242031Y-88159513D01*
X43140158Y-88227582D01*
X43053522Y-88314218D01*
X42985453Y-88416091D01*
X42938566Y-88529286D01*
X42914664Y-88649453D01*
X42911654Y-88710714D01*
X42911654Y-90085714D01*
X41546652Y-90085714D01*
X42665980Y-86727728D01*
X45197599Y-86727728D01*
X45212924Y-86849287D01*
X45229441Y-86908356D01*
X47229441Y-92908356D01*
X47236743Y-92927137D01*
X47238646Y-92934083D01*
X47242238Y-92941268D01*
X47251669Y-92965521D01*
X47273611Y-93004014D01*
X47293439Y-93043670D01*
X47303898Y-93057146D01*
X47312344Y-93071963D01*
X47341383Y-93105445D01*
X47368559Y-93140461D01*
X47381445Y-93151637D01*
X47392621Y-93164523D01*
X47427630Y-93191693D01*
X47461118Y-93220738D01*
X47475938Y-93229186D01*
X47489412Y-93239643D01*
X47529058Y-93259466D01*
X47567560Y-93281413D01*
X47583738Y-93286805D01*
X47598999Y-93294436D01*
X47641756Y-93306145D01*
X47683795Y-93320158D01*
X47700715Y-93322291D01*
X47717169Y-93326797D01*
X47761373Y-93329938D01*
X47805354Y-93335483D01*
X47822374Y-93334273D01*
X47839382Y-93335482D01*
X47883344Y-93329940D01*
X47927567Y-93326797D01*
X47944021Y-93322290D01*
X47960941Y-93320158D01*
X48002979Y-93306145D01*
X48045737Y-93294436D01*
X48060997Y-93286805D01*
X48077176Y-93281413D01*
X48115671Y-93259468D01*
X48155324Y-93239643D01*
X48168801Y-93229182D01*
X48183618Y-93220737D01*
X48217098Y-93191699D01*
X48252115Y-93164523D01*
X48263291Y-93151636D01*
X48276177Y-93140461D01*
X48303347Y-93105451D01*
X48332392Y-93071964D01*
X48340840Y-93057143D01*
X48351297Y-93043670D01*
X48371120Y-93004023D01*
X48393067Y-92965522D01*
X48402498Y-92941266D01*
X48406090Y-92934083D01*
X48407991Y-92927138D01*
X48415295Y-92908356D01*
X50415295Y-86908357D01*
X50431812Y-86849288D01*
X50447137Y-86727729D01*
X50438451Y-86605515D01*
X50406090Y-86487345D01*
X50351297Y-86377758D01*
X50276177Y-86280967D01*
X50183618Y-86200691D01*
X50077176Y-86140015D01*
X49960941Y-86101270D01*
X49839382Y-86085946D01*
X49717169Y-86094631D01*
X49598999Y-86126992D01*
X49489412Y-86181785D01*
X49392621Y-86256905D01*
X49312344Y-86349465D01*
X49251669Y-86455907D01*
X49229441Y-86513072D01*
X47822368Y-90734290D01*
X46415295Y-86513072D01*
X46393067Y-86455906D01*
X46332392Y-86349464D01*
X46252115Y-86256905D01*
X46155324Y-86181785D01*
X46045737Y-86126992D01*
X45927567Y-86094631D01*
X45805354Y-86085945D01*
X45683795Y-86101270D01*
X45567560Y-86140015D01*
X45461118Y-86200690D01*
X45368559Y-86280967D01*
X45293439Y-86377758D01*
X45238646Y-86487345D01*
X45206285Y-86605515D01*
X45197599Y-86727728D01*
X42665980Y-86727728D01*
X42701009Y-86622642D01*
X42717526Y-86563573D01*
X42732851Y-86442014D01*
X42724165Y-86319801D01*
X42691804Y-86201631D01*
X42637011Y-86092044D01*
X42561891Y-85995253D01*
X42469332Y-85914977D01*
X42362890Y-85854301D01*
X42246655Y-85815556D01*
X42125096Y-85800231D01*
X42002883Y-85808917D01*
X41884713Y-85841278D01*
X41775126Y-85896071D01*
X41678335Y-85971191D01*
X41598058Y-86063750D01*
X41537383Y-86170192D01*
X41515155Y-86227358D01*
X40086584Y-90513072D01*
X40083353Y-90524625D01*
X40081423Y-90529286D01*
X40079877Y-90537056D01*
X40070067Y-90572141D01*
X40065165Y-90611020D01*
X40057521Y-90649453D01*
X40057521Y-90671656D01*
X40054742Y-90693700D01*
X37580408Y-90693700D01*
X38550024Y-89724084D01*
X38591213Y-89678637D01*
X38603546Y-89660179D01*
X38618106Y-89643392D01*
X38637516Y-89609340D01*
X38659283Y-89576765D01*
X38667783Y-89556242D01*
X38678781Y-89536950D01*
X38701009Y-89479784D01*
X38986723Y-88622642D01*
X38989953Y-88611088D01*
X38991884Y-88606428D01*
X38993429Y-88598657D01*
X39003240Y-88563573D01*
X39008141Y-88524693D01*
X39015786Y-88486261D01*
X39017573Y-88449877D01*
X39018565Y-88442014D01*
X39018207Y-88436981D01*
X39018796Y-88425000D01*
X39018796Y-87853571D01*
X39015786Y-87792310D01*
X39011453Y-87770529D01*
X39009879Y-87748373D01*
X38999529Y-87710580D01*
X38991884Y-87672143D01*
X38983383Y-87651619D01*
X38977518Y-87630203D01*
X38952813Y-87574063D01*
X38667099Y-87002634D01*
X38661213Y-86992178D01*
X38659283Y-86987519D01*
X38654881Y-86980931D01*
X38637010Y-86949186D01*
X38612986Y-86918231D01*
X38591214Y-86885647D01*
X38566746Y-86858651D01*
X38561891Y-86852395D01*
X38558081Y-86849090D01*
X38550024Y-86840201D01*
X38264310Y-86554486D01*
X38255416Y-86546426D01*
X38252115Y-86542619D01*
X38245859Y-86537764D01*
X38218863Y-86513297D01*
X38186284Y-86491528D01*
X38155324Y-86467500D01*
X38123577Y-86449628D01*
X38116991Y-86445227D01*
X38112331Y-86443296D01*
X38101876Y-86437411D01*
X37530447Y-86151697D01*
X37474307Y-86126992D01*
X37452889Y-86121126D01*
X37432367Y-86112626D01*
X37393932Y-86104981D01*
X37356138Y-86094631D01*
X37333980Y-86093056D01*
X37312200Y-86088724D01*
X37250939Y-86085714D01*
X35822368Y-86085714D01*
X35761107Y-86088724D01*
X35739326Y-86093056D01*
X35717170Y-86094631D01*
X35679377Y-86104980D01*
X35640940Y-86112626D01*
X35620416Y-86121126D01*
X35599000Y-86126992D01*
X35542860Y-86151697D01*
X34971431Y-86437411D01*
X34960975Y-86443296D01*
X34956316Y-86445227D01*
X34949728Y-86449628D01*
X34917983Y-86467500D01*
X34887028Y-86491523D01*
X34854444Y-86513296D01*
X34827448Y-86537763D01*
X34821192Y-86542619D01*
X34817887Y-86546428D01*
X34808998Y-86554486D01*
X34523283Y-86840200D01*
X34482094Y-86885647D01*
X34414024Y-86987519D01*
X34367137Y-87100714D01*
X34343234Y-87220881D01*
X34343234Y-87343403D01*
X34367137Y-87463570D01*
X34414024Y-87576765D01*
X34482094Y-87678637D01*
X34568730Y-87765273D01*
X34670602Y-87833343D01*
X34783797Y-87880230D01*
X34903964Y-87904133D01*
X35026486Y-87904133D01*
X35146653Y-87880230D01*
X35259848Y-87833343D01*
X35361720Y-87765273D01*
X35407167Y-87724084D01*
X35621163Y-87510086D01*
X35969910Y-87335714D01*
X37103397Y-87335714D01*
X37452142Y-87510086D01*
X37594423Y-87652366D01*
X37768796Y-88001112D01*
X37768796Y-88323577D01*
X37561812Y-88944527D01*
X34237568Y-92268772D01*
X34196398Y-92314197D01*
X34196378Y-92314218D01*
X34128309Y-92416091D01*
X34081422Y-92529286D01*
X34057519Y-92649453D01*
X33390852Y-92649453D01*
X33390852Y-85133564D01*
X51113804Y-85133564D01*
X51113804Y-94002381D01*
G37*
D11*
X38433958Y-69577126D02*
X38433958Y-68307126D01*
X38433958Y-68307126D02*
X38857292Y-69214269D01*
X38857292Y-69214269D02*
X39280625Y-68307126D01*
X39280625Y-68307126D02*
X39280625Y-69577126D01*
X40429673Y-69577126D02*
X40429673Y-68911888D01*
X40429673Y-68911888D02*
X40369197Y-68790935D01*
X40369197Y-68790935D02*
X40248245Y-68730459D01*
X40248245Y-68730459D02*
X40006340Y-68730459D01*
X40006340Y-68730459D02*
X39885387Y-68790935D01*
X40429673Y-69516650D02*
X40308721Y-69577126D01*
X40308721Y-69577126D02*
X40006340Y-69577126D01*
X40006340Y-69577126D02*
X39885387Y-69516650D01*
X39885387Y-69516650D02*
X39824911Y-69395697D01*
X39824911Y-69395697D02*
X39824911Y-69274745D01*
X39824911Y-69274745D02*
X39885387Y-69153792D01*
X39885387Y-69153792D02*
X40006340Y-69093316D01*
X40006340Y-69093316D02*
X40308721Y-69093316D01*
X40308721Y-69093316D02*
X40429673Y-69032840D01*
X40913483Y-69577126D02*
X41578721Y-68730459D01*
X40913483Y-68730459D02*
X41578721Y-69577126D01*
X42062530Y-69456173D02*
X42123007Y-69516650D01*
X42123007Y-69516650D02*
X42062530Y-69577126D01*
X42062530Y-69577126D02*
X42002054Y-69516650D01*
X42002054Y-69516650D02*
X42062530Y-69456173D01*
X42062530Y-69456173D02*
X42062530Y-69577126D01*
X44300150Y-69577126D02*
X43574435Y-69577126D01*
X43937292Y-69577126D02*
X43937292Y-68307126D01*
X43937292Y-68307126D02*
X43816340Y-68488554D01*
X43816340Y-68488554D02*
X43695388Y-68609507D01*
X43695388Y-68609507D02*
X43574435Y-68669983D01*
X44783959Y-69214269D02*
X45388721Y-69214269D01*
X44663007Y-69577126D02*
X45086340Y-68307126D01*
X45086340Y-68307126D02*
X45509674Y-69577126D01*
D10*
G36*
X47994887Y-44316651D02*
G01*
X37792814Y-44316651D01*
X37792814Y-38261095D01*
X38348370Y-38261095D01*
X38348370Y-43261095D01*
X38352648Y-43326358D01*
X38386430Y-43452437D01*
X38451693Y-43565476D01*
X38543989Y-43657772D01*
X38657028Y-43723035D01*
X38783107Y-43756817D01*
X38913633Y-43756817D01*
X39039712Y-43723035D01*
X39152751Y-43657772D01*
X39245047Y-43565476D01*
X39310310Y-43452437D01*
X39344092Y-43326358D01*
X39348370Y-43261095D01*
X39348370Y-40143877D01*
X41271392Y-43509165D01*
X41307485Y-43563706D01*
X41308273Y-43564501D01*
X41308836Y-43565476D01*
X41354264Y-43610904D01*
X41399369Y-43656413D01*
X41400338Y-43656978D01*
X41401132Y-43657772D01*
X41456638Y-43689818D01*
X41512116Y-43722179D01*
X41513200Y-43722474D01*
X41514171Y-43723035D01*
X41575917Y-43739579D01*
X41638043Y-43756523D01*
X41639171Y-43756528D01*
X41640250Y-43756817D01*
X41704092Y-43756817D01*
X41768568Y-43757104D01*
X41769658Y-43756817D01*
X41770776Y-43756817D01*
X41832661Y-43740235D01*
X41894796Y-43723882D01*
X41895769Y-43723325D01*
X41896855Y-43723035D01*
X41952530Y-43690890D01*
X42008124Y-43659123D01*
X42008919Y-43658334D01*
X42009894Y-43657772D01*
X42055322Y-43612343D01*
X42100831Y-43567239D01*
X42101396Y-43566269D01*
X42102190Y-43565476D01*
X42134236Y-43509969D01*
X42166597Y-43454492D01*
X42166892Y-43453407D01*
X42167453Y-43452437D01*
X42183997Y-43390690D01*
X42200941Y-43328565D01*
X42200946Y-43327436D01*
X42201235Y-43326358D01*
X42205513Y-43261095D01*
X42205513Y-40403952D01*
X43348369Y-40403952D01*
X43348369Y-41118238D01*
X43351717Y-41169316D01*
X43351619Y-41175154D01*
X43352371Y-41179301D01*
X43352647Y-41183501D01*
X43354155Y-41189132D01*
X43363298Y-41239506D01*
X43601394Y-42191887D01*
X43612140Y-42225384D01*
X43613891Y-42233940D01*
X43618078Y-42243894D01*
X43621373Y-42254164D01*
X43625606Y-42261790D01*
X43639251Y-42294226D01*
X43877347Y-42770416D01*
X43910359Y-42826876D01*
X43920352Y-42838146D01*
X43927883Y-42851189D01*
X43971006Y-42900362D01*
X44447196Y-43376553D01*
X44467509Y-43394367D01*
X44473149Y-43400727D01*
X44479674Y-43405035D01*
X44496369Y-43419676D01*
X44540019Y-43444877D01*
X44582075Y-43472645D01*
X44602634Y-43481029D01*
X44609408Y-43484940D01*
X44617620Y-43487140D01*
X44642636Y-43497342D01*
X45356922Y-43735437D01*
X45420189Y-43752016D01*
X45435223Y-43752918D01*
X45449773Y-43756817D01*
X45515036Y-43761095D01*
X45991227Y-43761095D01*
X46056490Y-43756817D01*
X46071039Y-43752918D01*
X46086074Y-43752016D01*
X46149341Y-43735437D01*
X46863625Y-43497342D01*
X46888640Y-43487140D01*
X46896854Y-43484940D01*
X46903628Y-43481028D01*
X46924187Y-43472645D01*
X46966247Y-43444874D01*
X47009892Y-43419676D01*
X47026583Y-43405037D01*
X47033113Y-43400727D01*
X47038756Y-43394363D01*
X47059065Y-43376553D01*
X47297162Y-43138457D01*
X47340285Y-43089284D01*
X47405548Y-42976245D01*
X47439331Y-42850167D01*
X47439331Y-42719641D01*
X47405548Y-42593562D01*
X47340285Y-42480523D01*
X47247989Y-42388227D01*
X47134950Y-42322964D01*
X47008871Y-42289181D01*
X46878345Y-42289181D01*
X46752267Y-42322964D01*
X46639228Y-42388227D01*
X46590055Y-42431350D01*
X46435421Y-42585984D01*
X45910087Y-42761095D01*
X45596175Y-42761095D01*
X45070840Y-42585983D01*
X44735487Y-42250629D01*
X44558223Y-41896101D01*
X44348369Y-41056685D01*
X44348369Y-40465504D01*
X44558223Y-39626087D01*
X44735488Y-39271557D01*
X45070840Y-38936206D01*
X45596175Y-38761095D01*
X45910087Y-38761095D01*
X46435420Y-38936205D01*
X46590055Y-39090839D01*
X46639228Y-39133962D01*
X46752267Y-39199226D01*
X46878346Y-39233008D01*
X47008872Y-39233008D01*
X47134951Y-39199225D01*
X47247989Y-39133961D01*
X47340285Y-39041665D01*
X47405549Y-38928626D01*
X47439331Y-38802547D01*
X47439331Y-38672021D01*
X47405548Y-38545942D01*
X47340284Y-38432904D01*
X47297161Y-38383731D01*
X47059065Y-38145636D01*
X47038752Y-38127822D01*
X47033113Y-38121463D01*
X47026588Y-38117155D01*
X47009892Y-38102513D01*
X46966237Y-38077308D01*
X46924187Y-38049545D01*
X46903630Y-38041162D01*
X46896853Y-38037249D01*
X46888635Y-38035047D01*
X46863625Y-38024848D01*
X46149341Y-37786753D01*
X46086074Y-37770174D01*
X46071039Y-37769271D01*
X46056490Y-37765373D01*
X45991227Y-37761095D01*
X45515036Y-37761095D01*
X45449773Y-37765373D01*
X45435223Y-37769271D01*
X45420189Y-37770174D01*
X45356922Y-37786753D01*
X44642636Y-38024848D01*
X44617620Y-38035049D01*
X44609408Y-38037250D01*
X44602634Y-38041160D01*
X44582075Y-38049545D01*
X44540019Y-38077312D01*
X44496369Y-38102514D01*
X44479674Y-38117154D01*
X44473149Y-38121463D01*
X44467509Y-38127822D01*
X44447196Y-38145637D01*
X43971007Y-38621827D01*
X43927884Y-38671000D01*
X43920353Y-38684043D01*
X43910359Y-38695314D01*
X43877346Y-38751774D01*
X43639251Y-39227965D01*
X43625608Y-39260396D01*
X43621373Y-39268026D01*
X43618077Y-39278299D01*
X43613891Y-39288251D01*
X43612140Y-39296804D01*
X43601394Y-39330303D01*
X43363298Y-40282684D01*
X43354155Y-40333057D01*
X43352647Y-40338689D01*
X43352371Y-40342888D01*
X43351619Y-40347036D01*
X43351717Y-40352873D01*
X43348369Y-40403952D01*
X42205513Y-40403952D01*
X42205513Y-38261095D01*
X42201235Y-38195832D01*
X42167453Y-38069753D01*
X42102190Y-37956714D01*
X42009894Y-37864418D01*
X41896855Y-37799155D01*
X41770776Y-37765373D01*
X41640250Y-37765373D01*
X41514171Y-37799155D01*
X41401132Y-37864418D01*
X41308836Y-37956714D01*
X41243573Y-38069753D01*
X41209791Y-38195832D01*
X41205513Y-38261095D01*
X41205513Y-41378312D01*
X39282492Y-38013026D01*
X39246398Y-37958484D01*
X39245609Y-37957688D01*
X39245047Y-37956714D01*
X39199618Y-37911285D01*
X39154514Y-37865777D01*
X39153544Y-37865211D01*
X39152751Y-37864418D01*
X39097244Y-37832371D01*
X39041767Y-37800011D01*
X39040682Y-37799715D01*
X39039712Y-37799155D01*
X38977858Y-37782581D01*
X38915840Y-37765668D01*
X38914715Y-37765662D01*
X38913633Y-37765373D01*
X38849567Y-37765373D01*
X38785315Y-37765087D01*
X38784228Y-37765373D01*
X38783107Y-37765373D01*
X38721117Y-37781982D01*
X38659087Y-37798308D01*
X38658113Y-37798864D01*
X38657028Y-37799155D01*
X38601352Y-37831299D01*
X38545759Y-37863067D01*
X38544963Y-37863855D01*
X38543989Y-37864418D01*
X38498560Y-37909846D01*
X38453052Y-37954951D01*
X38452486Y-37955920D01*
X38451693Y-37956714D01*
X38419646Y-38012220D01*
X38387286Y-38067698D01*
X38386990Y-38068782D01*
X38386430Y-38069753D01*
X38369856Y-38131606D01*
X38352943Y-38193625D01*
X38352937Y-38194749D01*
X38352648Y-38195832D01*
X38348370Y-38261095D01*
X37792814Y-38261095D01*
X37792814Y-37205539D01*
X47994887Y-37205539D01*
X47994887Y-44316651D01*
G37*
G36*
X64331640Y-38835117D02*
G01*
X64652529Y-39156005D01*
X64842106Y-39914312D01*
X64842106Y-41457876D01*
X64652529Y-42216183D01*
X64331641Y-42537071D01*
X64033595Y-42686095D01*
X63317283Y-42686095D01*
X63019238Y-42537072D01*
X62698349Y-42216183D01*
X62508772Y-41457875D01*
X62508772Y-39914313D01*
X62698349Y-39156004D01*
X63019237Y-38835117D01*
X63317283Y-38686095D01*
X64033595Y-38686095D01*
X64331640Y-38835117D01*
G37*
G36*
X75917193Y-44241651D02*
G01*
X60953216Y-44241651D01*
X60953216Y-39852761D01*
X61508772Y-39852761D01*
X61508772Y-41519428D01*
X61512120Y-41570506D01*
X61512022Y-41576344D01*
X61512774Y-41580491D01*
X61513050Y-41584691D01*
X61514558Y-41590322D01*
X61523701Y-41640696D01*
X61761797Y-42593077D01*
X61781776Y-42655354D01*
X61783830Y-42659055D01*
X61784928Y-42663150D01*
X61815479Y-42716067D01*
X61845128Y-42769475D01*
X61848073Y-42772521D01*
X61850191Y-42776189D01*
X61893314Y-42825362D01*
X62369504Y-43301553D01*
X62418677Y-43344676D01*
X62431722Y-43352208D01*
X62442992Y-43362201D01*
X62499452Y-43395214D01*
X62975642Y-43633309D01*
X63000546Y-43643785D01*
X63007907Y-43648035D01*
X63015459Y-43650058D01*
X63035928Y-43658669D01*
X63085304Y-43668773D01*
X63133986Y-43681817D01*
X63156145Y-43683269D01*
X63163805Y-43684837D01*
X63172289Y-43684327D01*
X63199249Y-43686095D01*
X64151630Y-43686095D01*
X64178589Y-43684327D01*
X64187074Y-43684837D01*
X64194733Y-43683269D01*
X64216893Y-43681817D01*
X64265574Y-43668773D01*
X64314951Y-43658669D01*
X64335419Y-43650058D01*
X64342972Y-43648035D01*
X64350332Y-43643785D01*
X64375237Y-43633309D01*
X64851427Y-43395213D01*
X64907887Y-43362201D01*
X64919159Y-43352204D01*
X64932200Y-43344676D01*
X64981373Y-43301553D01*
X65457565Y-42825362D01*
X65500687Y-42776189D01*
X65502803Y-42772523D01*
X65505751Y-42769475D01*
X65535403Y-42716060D01*
X65565951Y-42663151D01*
X65567048Y-42659054D01*
X65569103Y-42655354D01*
X65589082Y-42593077D01*
X65827177Y-41640696D01*
X65836319Y-41590322D01*
X65837828Y-41584691D01*
X65838103Y-41580491D01*
X65838856Y-41576344D01*
X65838757Y-41570506D01*
X65842106Y-41519428D01*
X65842106Y-39852761D01*
X65838757Y-39801682D01*
X65838856Y-39795845D01*
X65838103Y-39791697D01*
X65837828Y-39787498D01*
X65836319Y-39781866D01*
X65827177Y-39731493D01*
X65589082Y-38779112D01*
X65569103Y-38716835D01*
X65567048Y-38713134D01*
X65565951Y-38709038D01*
X65535396Y-38656116D01*
X65505751Y-38602714D01*
X65502804Y-38599666D01*
X65500687Y-38595999D01*
X65457564Y-38546826D01*
X65096832Y-38186095D01*
X66984963Y-38186095D01*
X66984963Y-42233714D01*
X66986730Y-42260673D01*
X66986221Y-42269158D01*
X66987788Y-42276817D01*
X66989241Y-42298977D01*
X67002284Y-42347658D01*
X67012389Y-42397035D01*
X67020999Y-42417503D01*
X67023023Y-42425056D01*
X67027272Y-42432416D01*
X67037749Y-42457321D01*
X67275845Y-42933511D01*
X67308857Y-42989971D01*
X67318850Y-43001240D01*
X67326381Y-43014284D01*
X67369504Y-43063457D01*
X67607599Y-43301553D01*
X67656772Y-43344676D01*
X67669817Y-43352208D01*
X67681087Y-43362201D01*
X67737547Y-43395214D01*
X68213737Y-43633309D01*
X68238641Y-43643785D01*
X68246002Y-43648035D01*
X68253554Y-43650058D01*
X68274023Y-43658669D01*
X68323399Y-43668773D01*
X68372081Y-43681817D01*
X68394240Y-43683269D01*
X68401900Y-43684837D01*
X68410384Y-43684327D01*
X68437344Y-43686095D01*
X69389725Y-43686095D01*
X69416684Y-43684327D01*
X69425169Y-43684837D01*
X69432828Y-43683269D01*
X69454988Y-43681817D01*
X69503669Y-43668773D01*
X69553046Y-43658669D01*
X69573514Y-43650058D01*
X69581067Y-43648035D01*
X69588427Y-43643785D01*
X69613332Y-43633309D01*
X70089522Y-43395213D01*
X70145982Y-43362201D01*
X70157252Y-43352206D01*
X70170296Y-43344676D01*
X70219469Y-43301553D01*
X70457564Y-43063457D01*
X70500687Y-43014284D01*
X70508219Y-43001237D01*
X70518210Y-42989971D01*
X70551223Y-42933512D01*
X70789319Y-42457322D01*
X70799793Y-42432421D01*
X70804046Y-42425056D01*
X70806071Y-42417498D01*
X70814679Y-42397035D01*
X70824781Y-42347667D01*
X70837828Y-42298977D01*
X70839280Y-42276818D01*
X70840848Y-42269159D01*
X70840338Y-42260674D01*
X70842106Y-42233714D01*
X70842106Y-38186095D01*
X70837828Y-38120832D01*
X71513050Y-38120832D01*
X71513050Y-38251358D01*
X71546832Y-38377437D01*
X71612095Y-38490476D01*
X71704391Y-38582772D01*
X71817430Y-38648035D01*
X71943509Y-38681817D01*
X72008772Y-38686095D01*
X72937343Y-38686095D01*
X72937343Y-43186095D01*
X72941621Y-43251358D01*
X72975403Y-43377437D01*
X73040666Y-43490476D01*
X73132962Y-43582772D01*
X73246001Y-43648035D01*
X73372080Y-43681817D01*
X73502606Y-43681817D01*
X73628685Y-43648035D01*
X73741724Y-43582772D01*
X73834020Y-43490476D01*
X73899283Y-43377437D01*
X73933065Y-43251358D01*
X73937343Y-43186095D01*
X73937343Y-38686095D01*
X74865915Y-38686095D01*
X74931178Y-38681817D01*
X75057257Y-38648035D01*
X75170296Y-38582772D01*
X75262592Y-38490476D01*
X75327855Y-38377437D01*
X75361637Y-38251358D01*
X75361637Y-38120832D01*
X75327855Y-37994753D01*
X75262592Y-37881714D01*
X75170296Y-37789418D01*
X75057257Y-37724155D01*
X74931178Y-37690373D01*
X74865915Y-37686095D01*
X72008772Y-37686095D01*
X71943509Y-37690373D01*
X71817430Y-37724155D01*
X71704391Y-37789418D01*
X71612095Y-37881714D01*
X71546832Y-37994753D01*
X71513050Y-38120832D01*
X70837828Y-38120832D01*
X70804046Y-37994753D01*
X70738783Y-37881714D01*
X70646487Y-37789418D01*
X70533448Y-37724155D01*
X70407369Y-37690373D01*
X70276843Y-37690373D01*
X70150764Y-37724155D01*
X70037725Y-37789418D01*
X69945429Y-37881714D01*
X69880166Y-37994753D01*
X69846384Y-38120832D01*
X69842106Y-38186095D01*
X69842106Y-42115679D01*
X69693083Y-42413724D01*
X69569734Y-42537073D01*
X69271690Y-42686095D01*
X68555378Y-42686095D01*
X68257333Y-42537073D01*
X68133985Y-42413724D01*
X67984963Y-42115679D01*
X67984963Y-38186095D01*
X67980685Y-38120832D01*
X67946903Y-37994753D01*
X67881640Y-37881714D01*
X67789344Y-37789418D01*
X67676305Y-37724155D01*
X67550226Y-37690373D01*
X67419700Y-37690373D01*
X67293621Y-37724155D01*
X67180582Y-37789418D01*
X67088286Y-37881714D01*
X67023023Y-37994753D01*
X66989241Y-38120832D01*
X66984963Y-38186095D01*
X65096832Y-38186095D01*
X64981373Y-38070636D01*
X64932200Y-38027513D01*
X64919157Y-38019982D01*
X64907887Y-38009989D01*
X64851427Y-37976977D01*
X64375237Y-37738881D01*
X64350332Y-37728404D01*
X64342972Y-37724155D01*
X64335419Y-37722131D01*
X64314951Y-37713521D01*
X64265574Y-37703416D01*
X64216893Y-37690373D01*
X64194733Y-37688920D01*
X64187074Y-37687353D01*
X64178589Y-37687862D01*
X64151630Y-37686095D01*
X63199249Y-37686095D01*
X63172289Y-37687862D01*
X63163805Y-37687353D01*
X63156145Y-37688920D01*
X63133986Y-37690373D01*
X63085304Y-37703416D01*
X63035928Y-37713521D01*
X63015459Y-37722131D01*
X63007907Y-37724155D01*
X63000546Y-37728404D01*
X62975642Y-37738881D01*
X62499452Y-37976976D01*
X62442992Y-38009989D01*
X62431722Y-38019981D01*
X62418677Y-38027514D01*
X62369504Y-38070637D01*
X61893315Y-38546827D01*
X61850192Y-38596000D01*
X61848075Y-38599665D01*
X61845128Y-38602714D01*
X61815475Y-38656128D01*
X61784928Y-38709038D01*
X61783830Y-38713134D01*
X61781776Y-38716835D01*
X61761797Y-38779112D01*
X61523701Y-39731493D01*
X61514558Y-39781866D01*
X61513050Y-39787498D01*
X61512774Y-39791697D01*
X61512022Y-39795845D01*
X61512120Y-39801682D01*
X61508772Y-39852761D01*
X60953216Y-39852761D01*
X60953216Y-37130539D01*
X75917193Y-37130539D01*
X75917193Y-44241651D01*
G37*
D11*
X176095088Y-102320076D02*
X176095088Y-101050076D01*
X176095088Y-101050076D02*
X176397469Y-101050076D01*
X176397469Y-101050076D02*
X176578898Y-101110552D01*
X176578898Y-101110552D02*
X176699850Y-101231504D01*
X176699850Y-101231504D02*
X176760327Y-101352457D01*
X176760327Y-101352457D02*
X176820803Y-101594361D01*
X176820803Y-101594361D02*
X176820803Y-101775790D01*
X176820803Y-101775790D02*
X176760327Y-102017695D01*
X176760327Y-102017695D02*
X176699850Y-102138647D01*
X176699850Y-102138647D02*
X176578898Y-102259600D01*
X176578898Y-102259600D02*
X176397469Y-102320076D01*
X176397469Y-102320076D02*
X176095088Y-102320076D01*
X177606993Y-101050076D02*
X177848898Y-101050076D01*
X177848898Y-101050076D02*
X177969850Y-101110552D01*
X177969850Y-101110552D02*
X178090803Y-101231504D01*
X178090803Y-101231504D02*
X178151279Y-101473409D01*
X178151279Y-101473409D02*
X178151279Y-101896742D01*
X178151279Y-101896742D02*
X178090803Y-102138647D01*
X178090803Y-102138647D02*
X177969850Y-102259600D01*
X177969850Y-102259600D02*
X177848898Y-102320076D01*
X177848898Y-102320076D02*
X177606993Y-102320076D01*
X177606993Y-102320076D02*
X177486041Y-102259600D01*
X177486041Y-102259600D02*
X177365088Y-102138647D01*
X177365088Y-102138647D02*
X177304612Y-101896742D01*
X177304612Y-101896742D02*
X177304612Y-101473409D01*
X177304612Y-101473409D02*
X177365088Y-101231504D01*
X177365088Y-101231504D02*
X177486041Y-101110552D01*
X177486041Y-101110552D02*
X177606993Y-101050076D01*
X179602707Y-101171028D02*
X179663183Y-101110552D01*
X179663183Y-101110552D02*
X179784136Y-101050076D01*
X179784136Y-101050076D02*
X180086517Y-101050076D01*
X180086517Y-101050076D02*
X180207469Y-101110552D01*
X180207469Y-101110552D02*
X180267945Y-101171028D01*
X180267945Y-101171028D02*
X180328422Y-101291980D01*
X180328422Y-101291980D02*
X180328422Y-101412933D01*
X180328422Y-101412933D02*
X180267945Y-101594361D01*
X180267945Y-101594361D02*
X179542231Y-102320076D01*
X179542231Y-102320076D02*
X180328422Y-102320076D01*
X181416993Y-101473409D02*
X181416993Y-102320076D01*
X181114612Y-100989600D02*
X180812231Y-101896742D01*
X180812231Y-101896742D02*
X181598422Y-101896742D01*
X181900803Y-101050076D02*
X182324136Y-102320076D01*
X182324136Y-102320076D02*
X182747470Y-101050076D01*
X168535565Y-103094705D02*
X168777470Y-103094705D01*
X168777470Y-103094705D02*
X168898422Y-103155181D01*
X168898422Y-103155181D02*
X169019375Y-103276133D01*
X169019375Y-103276133D02*
X169079851Y-103518038D01*
X169079851Y-103518038D02*
X169079851Y-103941371D01*
X169079851Y-103941371D02*
X169019375Y-104183276D01*
X169019375Y-104183276D02*
X168898422Y-104304229D01*
X168898422Y-104304229D02*
X168777470Y-104364705D01*
X168777470Y-104364705D02*
X168535565Y-104364705D01*
X168535565Y-104364705D02*
X168414613Y-104304229D01*
X168414613Y-104304229D02*
X168293660Y-104183276D01*
X168293660Y-104183276D02*
X168233184Y-103941371D01*
X168233184Y-103941371D02*
X168233184Y-103518038D01*
X168233184Y-103518038D02*
X168293660Y-103276133D01*
X168293660Y-103276133D02*
X168414613Y-103155181D01*
X168414613Y-103155181D02*
X168535565Y-103094705D01*
X169624136Y-103518038D02*
X169624136Y-104788038D01*
X169624136Y-103578514D02*
X169745089Y-103518038D01*
X169745089Y-103518038D02*
X169986994Y-103518038D01*
X169986994Y-103518038D02*
X170107946Y-103578514D01*
X170107946Y-103578514D02*
X170168422Y-103638990D01*
X170168422Y-103638990D02*
X170228898Y-103759943D01*
X170228898Y-103759943D02*
X170228898Y-104122800D01*
X170228898Y-104122800D02*
X170168422Y-104243752D01*
X170168422Y-104243752D02*
X170107946Y-104304229D01*
X170107946Y-104304229D02*
X169986994Y-104364705D01*
X169986994Y-104364705D02*
X169745089Y-104364705D01*
X169745089Y-104364705D02*
X169624136Y-104304229D01*
X171256994Y-104304229D02*
X171136042Y-104364705D01*
X171136042Y-104364705D02*
X170894137Y-104364705D01*
X170894137Y-104364705D02*
X170773184Y-104304229D01*
X170773184Y-104304229D02*
X170712708Y-104183276D01*
X170712708Y-104183276D02*
X170712708Y-103699467D01*
X170712708Y-103699467D02*
X170773184Y-103578514D01*
X170773184Y-103578514D02*
X170894137Y-103518038D01*
X170894137Y-103518038D02*
X171136042Y-103518038D01*
X171136042Y-103518038D02*
X171256994Y-103578514D01*
X171256994Y-103578514D02*
X171317470Y-103699467D01*
X171317470Y-103699467D02*
X171317470Y-103820419D01*
X171317470Y-103820419D02*
X170712708Y-103941371D01*
X171861755Y-103518038D02*
X171861755Y-104364705D01*
X171861755Y-103638990D02*
X171922232Y-103578514D01*
X171922232Y-103578514D02*
X172043184Y-103518038D01*
X172043184Y-103518038D02*
X172224613Y-103518038D01*
X172224613Y-103518038D02*
X172345565Y-103578514D01*
X172345565Y-103578514D02*
X172406041Y-103699467D01*
X172406041Y-103699467D02*
X172406041Y-104364705D01*
X173010803Y-103880895D02*
X173978423Y-103880895D01*
X175308899Y-104243752D02*
X175248423Y-104304229D01*
X175248423Y-104304229D02*
X175066994Y-104364705D01*
X175066994Y-104364705D02*
X174946042Y-104364705D01*
X174946042Y-104364705D02*
X174764613Y-104304229D01*
X174764613Y-104304229D02*
X174643661Y-104183276D01*
X174643661Y-104183276D02*
X174583184Y-104062324D01*
X174583184Y-104062324D02*
X174522708Y-103820419D01*
X174522708Y-103820419D02*
X174522708Y-103638990D01*
X174522708Y-103638990D02*
X174583184Y-103397086D01*
X174583184Y-103397086D02*
X174643661Y-103276133D01*
X174643661Y-103276133D02*
X174764613Y-103155181D01*
X174764613Y-103155181D02*
X174946042Y-103094705D01*
X174946042Y-103094705D02*
X175066994Y-103094705D01*
X175066994Y-103094705D02*
X175248423Y-103155181D01*
X175248423Y-103155181D02*
X175308899Y-103215657D01*
X176034613Y-104364705D02*
X175913661Y-104304229D01*
X175913661Y-104304229D02*
X175853184Y-104243752D01*
X175853184Y-104243752D02*
X175792708Y-104122800D01*
X175792708Y-104122800D02*
X175792708Y-103759943D01*
X175792708Y-103759943D02*
X175853184Y-103638990D01*
X175853184Y-103638990D02*
X175913661Y-103578514D01*
X175913661Y-103578514D02*
X176034613Y-103518038D01*
X176034613Y-103518038D02*
X176216042Y-103518038D01*
X176216042Y-103518038D02*
X176336994Y-103578514D01*
X176336994Y-103578514D02*
X176397470Y-103638990D01*
X176397470Y-103638990D02*
X176457946Y-103759943D01*
X176457946Y-103759943D02*
X176457946Y-104122800D01*
X176457946Y-104122800D02*
X176397470Y-104243752D01*
X176397470Y-104243752D02*
X176336994Y-104304229D01*
X176336994Y-104304229D02*
X176216042Y-104364705D01*
X176216042Y-104364705D02*
X176034613Y-104364705D01*
X177183661Y-104364705D02*
X177062709Y-104304229D01*
X177062709Y-104304229D02*
X177002232Y-104183276D01*
X177002232Y-104183276D02*
X177002232Y-103094705D01*
X177848899Y-104364705D02*
X177727947Y-104304229D01*
X177727947Y-104304229D02*
X177667470Y-104183276D01*
X177667470Y-104183276D02*
X177667470Y-103094705D01*
X178816518Y-104304229D02*
X178695566Y-104364705D01*
X178695566Y-104364705D02*
X178453661Y-104364705D01*
X178453661Y-104364705D02*
X178332708Y-104304229D01*
X178332708Y-104304229D02*
X178272232Y-104183276D01*
X178272232Y-104183276D02*
X178272232Y-103699467D01*
X178272232Y-103699467D02*
X178332708Y-103578514D01*
X178332708Y-103578514D02*
X178453661Y-103518038D01*
X178453661Y-103518038D02*
X178695566Y-103518038D01*
X178695566Y-103518038D02*
X178816518Y-103578514D01*
X178816518Y-103578514D02*
X178876994Y-103699467D01*
X178876994Y-103699467D02*
X178876994Y-103820419D01*
X178876994Y-103820419D02*
X178272232Y-103941371D01*
X179965565Y-104304229D02*
X179844613Y-104364705D01*
X179844613Y-104364705D02*
X179602708Y-104364705D01*
X179602708Y-104364705D02*
X179481756Y-104304229D01*
X179481756Y-104304229D02*
X179421279Y-104243752D01*
X179421279Y-104243752D02*
X179360803Y-104122800D01*
X179360803Y-104122800D02*
X179360803Y-103759943D01*
X179360803Y-103759943D02*
X179421279Y-103638990D01*
X179421279Y-103638990D02*
X179481756Y-103578514D01*
X179481756Y-103578514D02*
X179602708Y-103518038D01*
X179602708Y-103518038D02*
X179844613Y-103518038D01*
X179844613Y-103518038D02*
X179965565Y-103578514D01*
X180328422Y-103518038D02*
X180812231Y-103518038D01*
X180509850Y-103094705D02*
X180509850Y-104183276D01*
X180509850Y-104183276D02*
X180570327Y-104304229D01*
X180570327Y-104304229D02*
X180691279Y-104364705D01*
X180691279Y-104364705D02*
X180812231Y-104364705D01*
X181416993Y-104364705D02*
X181296041Y-104304229D01*
X181296041Y-104304229D02*
X181235564Y-104243752D01*
X181235564Y-104243752D02*
X181175088Y-104122800D01*
X181175088Y-104122800D02*
X181175088Y-103759943D01*
X181175088Y-103759943D02*
X181235564Y-103638990D01*
X181235564Y-103638990D02*
X181296041Y-103578514D01*
X181296041Y-103578514D02*
X181416993Y-103518038D01*
X181416993Y-103518038D02*
X181598422Y-103518038D01*
X181598422Y-103518038D02*
X181719374Y-103578514D01*
X181719374Y-103578514D02*
X181779850Y-103638990D01*
X181779850Y-103638990D02*
X181840326Y-103759943D01*
X181840326Y-103759943D02*
X181840326Y-104122800D01*
X181840326Y-104122800D02*
X181779850Y-104243752D01*
X181779850Y-104243752D02*
X181719374Y-104304229D01*
X181719374Y-104304229D02*
X181598422Y-104364705D01*
X181598422Y-104364705D02*
X181416993Y-104364705D01*
X182384612Y-104364705D02*
X182384612Y-103518038D01*
X182384612Y-103759943D02*
X182445089Y-103638990D01*
X182445089Y-103638990D02*
X182505565Y-103578514D01*
X182505565Y-103578514D02*
X182626517Y-103518038D01*
X182626517Y-103518038D02*
X182747470Y-103518038D01*
D13*
X65276667Y-103304318D02*
X65276667Y-104211461D01*
X65276667Y-104211461D02*
X65216190Y-104392889D01*
X65216190Y-104392889D02*
X65095238Y-104513842D01*
X65095238Y-104513842D02*
X64913809Y-104574318D01*
X64913809Y-104574318D02*
X64792857Y-104574318D01*
X65820952Y-103425270D02*
X65881428Y-103364794D01*
X65881428Y-103364794D02*
X66002381Y-103304318D01*
X66002381Y-103304318D02*
X66304762Y-103304318D01*
X66304762Y-103304318D02*
X66425714Y-103364794D01*
X66425714Y-103364794D02*
X66486190Y-103425270D01*
X66486190Y-103425270D02*
X66546667Y-103546222D01*
X66546667Y-103546222D02*
X66546667Y-103667175D01*
X66546667Y-103667175D02*
X66486190Y-103848603D01*
X66486190Y-103848603D02*
X65760476Y-104574318D01*
X65760476Y-104574318D02*
X66546667Y-104574318D01*
D14*
X186045180Y-42548095D02*
X185235657Y-42548095D01*
X185235657Y-42548095D02*
X185140419Y-42595714D01*
X185140419Y-42595714D02*
X185092800Y-42643333D01*
X185092800Y-42643333D02*
X185045180Y-42738571D01*
X185045180Y-42738571D02*
X185045180Y-42929047D01*
X185045180Y-42929047D02*
X185092800Y-43024285D01*
X185092800Y-43024285D02*
X185140419Y-43071904D01*
X185140419Y-43071904D02*
X185235657Y-43119523D01*
X185235657Y-43119523D02*
X186045180Y-43119523D01*
X185949942Y-43548095D02*
X185997561Y-43595714D01*
X185997561Y-43595714D02*
X186045180Y-43690952D01*
X186045180Y-43690952D02*
X186045180Y-43929047D01*
X186045180Y-43929047D02*
X185997561Y-44024285D01*
X185997561Y-44024285D02*
X185949942Y-44071904D01*
X185949942Y-44071904D02*
X185854704Y-44119523D01*
X185854704Y-44119523D02*
X185759466Y-44119523D01*
X185759466Y-44119523D02*
X185616609Y-44071904D01*
X185616609Y-44071904D02*
X185045180Y-43500476D01*
X185045180Y-43500476D02*
X185045180Y-44119523D01*
X181190000Y-33925119D02*
X181190000Y-34163214D01*
X180951905Y-34067976D02*
X181190000Y-34163214D01*
X181190000Y-34163214D02*
X181428095Y-34067976D01*
X181047143Y-34353690D02*
X181190000Y-34163214D01*
X181190000Y-34163214D02*
X181332857Y-34353690D01*
X191357142Y-82614819D02*
X191023809Y-82138628D01*
X190785714Y-82614819D02*
X190785714Y-81614819D01*
X190785714Y-81614819D02*
X191166666Y-81614819D01*
X191166666Y-81614819D02*
X191261904Y-81662438D01*
X191261904Y-81662438D02*
X191309523Y-81710057D01*
X191309523Y-81710057D02*
X191357142Y-81805295D01*
X191357142Y-81805295D02*
X191357142Y-81948152D01*
X191357142Y-81948152D02*
X191309523Y-82043390D01*
X191309523Y-82043390D02*
X191261904Y-82091009D01*
X191261904Y-82091009D02*
X191166666Y-82138628D01*
X191166666Y-82138628D02*
X190785714Y-82138628D01*
X191738095Y-81710057D02*
X191785714Y-81662438D01*
X191785714Y-81662438D02*
X191880952Y-81614819D01*
X191880952Y-81614819D02*
X192119047Y-81614819D01*
X192119047Y-81614819D02*
X192214285Y-81662438D01*
X192214285Y-81662438D02*
X192261904Y-81710057D01*
X192261904Y-81710057D02*
X192309523Y-81805295D01*
X192309523Y-81805295D02*
X192309523Y-81900533D01*
X192309523Y-81900533D02*
X192261904Y-82043390D01*
X192261904Y-82043390D02*
X191690476Y-82614819D01*
X191690476Y-82614819D02*
X192309523Y-82614819D01*
X193261904Y-82614819D02*
X192690476Y-82614819D01*
X192976190Y-82614819D02*
X192976190Y-81614819D01*
X192976190Y-81614819D02*
X192880952Y-81757676D01*
X192880952Y-81757676D02*
X192785714Y-81852914D01*
X192785714Y-81852914D02*
X192690476Y-81900533D01*
X178357142Y-82614819D02*
X178023809Y-82138628D01*
X177785714Y-82614819D02*
X177785714Y-81614819D01*
X177785714Y-81614819D02*
X178166666Y-81614819D01*
X178166666Y-81614819D02*
X178261904Y-81662438D01*
X178261904Y-81662438D02*
X178309523Y-81710057D01*
X178309523Y-81710057D02*
X178357142Y-81805295D01*
X178357142Y-81805295D02*
X178357142Y-81948152D01*
X178357142Y-81948152D02*
X178309523Y-82043390D01*
X178309523Y-82043390D02*
X178261904Y-82091009D01*
X178261904Y-82091009D02*
X178166666Y-82138628D01*
X178166666Y-82138628D02*
X177785714Y-82138628D01*
X179309523Y-82614819D02*
X178738095Y-82614819D01*
X179023809Y-82614819D02*
X179023809Y-81614819D01*
X179023809Y-81614819D02*
X178928571Y-81757676D01*
X178928571Y-81757676D02*
X178833333Y-81852914D01*
X178833333Y-81852914D02*
X178738095Y-81900533D01*
X179642857Y-81614819D02*
X180309523Y-81614819D01*
X180309523Y-81614819D02*
X179880952Y-82614819D01*
X158784761Y-65610057D02*
X158689523Y-65562438D01*
X158689523Y-65562438D02*
X158594285Y-65467200D01*
X158594285Y-65467200D02*
X158451428Y-65324342D01*
X158451428Y-65324342D02*
X158356190Y-65276723D01*
X158356190Y-65276723D02*
X158260952Y-65276723D01*
X158308571Y-65514819D02*
X158213333Y-65467200D01*
X158213333Y-65467200D02*
X158118095Y-65371961D01*
X158118095Y-65371961D02*
X158070476Y-65181485D01*
X158070476Y-65181485D02*
X158070476Y-64848152D01*
X158070476Y-64848152D02*
X158118095Y-64657676D01*
X158118095Y-64657676D02*
X158213333Y-64562438D01*
X158213333Y-64562438D02*
X158308571Y-64514819D01*
X158308571Y-64514819D02*
X158499047Y-64514819D01*
X158499047Y-64514819D02*
X158594285Y-64562438D01*
X158594285Y-64562438D02*
X158689523Y-64657676D01*
X158689523Y-64657676D02*
X158737142Y-64848152D01*
X158737142Y-64848152D02*
X158737142Y-65181485D01*
X158737142Y-65181485D02*
X158689523Y-65371961D01*
X158689523Y-65371961D02*
X158594285Y-65467200D01*
X158594285Y-65467200D02*
X158499047Y-65514819D01*
X158499047Y-65514819D02*
X158308571Y-65514819D01*
X159689523Y-65514819D02*
X159118095Y-65514819D01*
X159403809Y-65514819D02*
X159403809Y-64514819D01*
X159403809Y-64514819D02*
X159308571Y-64657676D01*
X159308571Y-64657676D02*
X159213333Y-64752914D01*
X159213333Y-64752914D02*
X159118095Y-64800533D01*
X216484761Y-62550057D02*
X216389523Y-62502438D01*
X216389523Y-62502438D02*
X216294285Y-62407200D01*
X216294285Y-62407200D02*
X216151428Y-62264342D01*
X216151428Y-62264342D02*
X216056190Y-62216723D01*
X216056190Y-62216723D02*
X215960952Y-62216723D01*
X216008571Y-62454819D02*
X215913333Y-62407200D01*
X215913333Y-62407200D02*
X215818095Y-62311961D01*
X215818095Y-62311961D02*
X215770476Y-62121485D01*
X215770476Y-62121485D02*
X215770476Y-61788152D01*
X215770476Y-61788152D02*
X215818095Y-61597676D01*
X215818095Y-61597676D02*
X215913333Y-61502438D01*
X215913333Y-61502438D02*
X216008571Y-61454819D01*
X216008571Y-61454819D02*
X216199047Y-61454819D01*
X216199047Y-61454819D02*
X216294285Y-61502438D01*
X216294285Y-61502438D02*
X216389523Y-61597676D01*
X216389523Y-61597676D02*
X216437142Y-61788152D01*
X216437142Y-61788152D02*
X216437142Y-62121485D01*
X216437142Y-62121485D02*
X216389523Y-62311961D01*
X216389523Y-62311961D02*
X216294285Y-62407200D01*
X216294285Y-62407200D02*
X216199047Y-62454819D01*
X216199047Y-62454819D02*
X216008571Y-62454819D01*
X217294285Y-61788152D02*
X217294285Y-62454819D01*
X217056190Y-61407200D02*
X216818095Y-62121485D01*
X216818095Y-62121485D02*
X217437142Y-62121485D01*
X200277142Y-41454819D02*
X199943809Y-40978628D01*
X199705714Y-41454819D02*
X199705714Y-40454819D01*
X199705714Y-40454819D02*
X200086666Y-40454819D01*
X200086666Y-40454819D02*
X200181904Y-40502438D01*
X200181904Y-40502438D02*
X200229523Y-40550057D01*
X200229523Y-40550057D02*
X200277142Y-40645295D01*
X200277142Y-40645295D02*
X200277142Y-40788152D01*
X200277142Y-40788152D02*
X200229523Y-40883390D01*
X200229523Y-40883390D02*
X200181904Y-40931009D01*
X200181904Y-40931009D02*
X200086666Y-40978628D01*
X200086666Y-40978628D02*
X199705714Y-40978628D01*
X201229523Y-41454819D02*
X200658095Y-41454819D01*
X200943809Y-41454819D02*
X200943809Y-40454819D01*
X200943809Y-40454819D02*
X200848571Y-40597676D01*
X200848571Y-40597676D02*
X200753333Y-40692914D01*
X200753333Y-40692914D02*
X200658095Y-40740533D01*
X202086666Y-40788152D02*
X202086666Y-41454819D01*
X201848571Y-40407200D02*
X201610476Y-41121485D01*
X201610476Y-41121485D02*
X202229523Y-41121485D01*
X156833333Y-82374819D02*
X156500000Y-81898628D01*
X156261905Y-82374819D02*
X156261905Y-81374819D01*
X156261905Y-81374819D02*
X156642857Y-81374819D01*
X156642857Y-81374819D02*
X156738095Y-81422438D01*
X156738095Y-81422438D02*
X156785714Y-81470057D01*
X156785714Y-81470057D02*
X156833333Y-81565295D01*
X156833333Y-81565295D02*
X156833333Y-81708152D01*
X156833333Y-81708152D02*
X156785714Y-81803390D01*
X156785714Y-81803390D02*
X156738095Y-81851009D01*
X156738095Y-81851009D02*
X156642857Y-81898628D01*
X156642857Y-81898628D02*
X156261905Y-81898628D01*
X157738095Y-81374819D02*
X157261905Y-81374819D01*
X157261905Y-81374819D02*
X157214286Y-81851009D01*
X157214286Y-81851009D02*
X157261905Y-81803390D01*
X157261905Y-81803390D02*
X157357143Y-81755771D01*
X157357143Y-81755771D02*
X157595238Y-81755771D01*
X157595238Y-81755771D02*
X157690476Y-81803390D01*
X157690476Y-81803390D02*
X157738095Y-81851009D01*
X157738095Y-81851009D02*
X157785714Y-81946247D01*
X157785714Y-81946247D02*
X157785714Y-82184342D01*
X157785714Y-82184342D02*
X157738095Y-82279580D01*
X157738095Y-82279580D02*
X157690476Y-82327200D01*
X157690476Y-82327200D02*
X157595238Y-82374819D01*
X157595238Y-82374819D02*
X157357143Y-82374819D01*
X157357143Y-82374819D02*
X157261905Y-82327200D01*
X157261905Y-82327200D02*
X157214286Y-82279580D01*
D13*
X64431667Y-121029318D02*
X64431667Y-121936461D01*
X64431667Y-121936461D02*
X64371190Y-122117889D01*
X64371190Y-122117889D02*
X64250238Y-122238842D01*
X64250238Y-122238842D02*
X64068809Y-122299318D01*
X64068809Y-122299318D02*
X63947857Y-122299318D01*
X65096905Y-122299318D02*
X65338809Y-122299318D01*
X65338809Y-122299318D02*
X65459762Y-122238842D01*
X65459762Y-122238842D02*
X65520238Y-122178365D01*
X65520238Y-122178365D02*
X65641190Y-121996937D01*
X65641190Y-121996937D02*
X65701667Y-121755032D01*
X65701667Y-121755032D02*
X65701667Y-121271222D01*
X65701667Y-121271222D02*
X65641190Y-121150270D01*
X65641190Y-121150270D02*
X65580714Y-121089794D01*
X65580714Y-121089794D02*
X65459762Y-121029318D01*
X65459762Y-121029318D02*
X65217857Y-121029318D01*
X65217857Y-121029318D02*
X65096905Y-121089794D01*
X65096905Y-121089794D02*
X65036428Y-121150270D01*
X65036428Y-121150270D02*
X64975952Y-121271222D01*
X64975952Y-121271222D02*
X64975952Y-121573603D01*
X64975952Y-121573603D02*
X65036428Y-121694556D01*
X65036428Y-121694556D02*
X65096905Y-121755032D01*
X65096905Y-121755032D02*
X65217857Y-121815508D01*
X65217857Y-121815508D02*
X65459762Y-121815508D01*
X65459762Y-121815508D02*
X65580714Y-121755032D01*
X65580714Y-121755032D02*
X65641190Y-121694556D01*
X65641190Y-121694556D02*
X65701667Y-121573603D01*
D14*
X155086667Y-33067200D02*
X155229524Y-33114819D01*
X155229524Y-33114819D02*
X155467619Y-33114819D01*
X155467619Y-33114819D02*
X155562857Y-33067200D01*
X155562857Y-33067200D02*
X155610476Y-33019580D01*
X155610476Y-33019580D02*
X155658095Y-32924342D01*
X155658095Y-32924342D02*
X155658095Y-32829104D01*
X155658095Y-32829104D02*
X155610476Y-32733866D01*
X155610476Y-32733866D02*
X155562857Y-32686247D01*
X155562857Y-32686247D02*
X155467619Y-32638628D01*
X155467619Y-32638628D02*
X155277143Y-32591009D01*
X155277143Y-32591009D02*
X155181905Y-32543390D01*
X155181905Y-32543390D02*
X155134286Y-32495771D01*
X155134286Y-32495771D02*
X155086667Y-32400533D01*
X155086667Y-32400533D02*
X155086667Y-32305295D01*
X155086667Y-32305295D02*
X155134286Y-32210057D01*
X155134286Y-32210057D02*
X155181905Y-32162438D01*
X155181905Y-32162438D02*
X155277143Y-32114819D01*
X155277143Y-32114819D02*
X155515238Y-32114819D01*
X155515238Y-32114819D02*
X155658095Y-32162438D01*
X155991429Y-32114819D02*
X156229524Y-33114819D01*
X156229524Y-33114819D02*
X156420000Y-32400533D01*
X156420000Y-32400533D02*
X156610476Y-33114819D01*
X156610476Y-33114819D02*
X156848572Y-32114819D01*
X157658095Y-32448152D02*
X157658095Y-33114819D01*
X157420000Y-32067200D02*
X157181905Y-32781485D01*
X157181905Y-32781485D02*
X157800952Y-32781485D01*
X203333333Y-63954819D02*
X203000000Y-63478628D01*
X202761905Y-63954819D02*
X202761905Y-62954819D01*
X202761905Y-62954819D02*
X203142857Y-62954819D01*
X203142857Y-62954819D02*
X203238095Y-63002438D01*
X203238095Y-63002438D02*
X203285714Y-63050057D01*
X203285714Y-63050057D02*
X203333333Y-63145295D01*
X203333333Y-63145295D02*
X203333333Y-63288152D01*
X203333333Y-63288152D02*
X203285714Y-63383390D01*
X203285714Y-63383390D02*
X203238095Y-63431009D01*
X203238095Y-63431009D02*
X203142857Y-63478628D01*
X203142857Y-63478628D02*
X202761905Y-63478628D01*
X203666667Y-62954819D02*
X204285714Y-62954819D01*
X204285714Y-62954819D02*
X203952381Y-63335771D01*
X203952381Y-63335771D02*
X204095238Y-63335771D01*
X204095238Y-63335771D02*
X204190476Y-63383390D01*
X204190476Y-63383390D02*
X204238095Y-63431009D01*
X204238095Y-63431009D02*
X204285714Y-63526247D01*
X204285714Y-63526247D02*
X204285714Y-63764342D01*
X204285714Y-63764342D02*
X204238095Y-63859580D01*
X204238095Y-63859580D02*
X204190476Y-63907200D01*
X204190476Y-63907200D02*
X204095238Y-63954819D01*
X204095238Y-63954819D02*
X203809524Y-63954819D01*
X203809524Y-63954819D02*
X203714286Y-63907200D01*
X203714286Y-63907200D02*
X203666667Y-63859580D01*
X203833333Y-82614819D02*
X203500000Y-82138628D01*
X203261905Y-82614819D02*
X203261905Y-81614819D01*
X203261905Y-81614819D02*
X203642857Y-81614819D01*
X203642857Y-81614819D02*
X203738095Y-81662438D01*
X203738095Y-81662438D02*
X203785714Y-81710057D01*
X203785714Y-81710057D02*
X203833333Y-81805295D01*
X203833333Y-81805295D02*
X203833333Y-81948152D01*
X203833333Y-81948152D02*
X203785714Y-82043390D01*
X203785714Y-82043390D02*
X203738095Y-82091009D01*
X203738095Y-82091009D02*
X203642857Y-82138628D01*
X203642857Y-82138628D02*
X203261905Y-82138628D01*
X204214286Y-81710057D02*
X204261905Y-81662438D01*
X204261905Y-81662438D02*
X204357143Y-81614819D01*
X204357143Y-81614819D02*
X204595238Y-81614819D01*
X204595238Y-81614819D02*
X204690476Y-81662438D01*
X204690476Y-81662438D02*
X204738095Y-81710057D01*
X204738095Y-81710057D02*
X204785714Y-81805295D01*
X204785714Y-81805295D02*
X204785714Y-81900533D01*
X204785714Y-81900533D02*
X204738095Y-82043390D01*
X204738095Y-82043390D02*
X204166667Y-82614819D01*
X204166667Y-82614819D02*
X204785714Y-82614819D01*
X141357142Y-82454819D02*
X141023809Y-81978628D01*
X140785714Y-82454819D02*
X140785714Y-81454819D01*
X140785714Y-81454819D02*
X141166666Y-81454819D01*
X141166666Y-81454819D02*
X141261904Y-81502438D01*
X141261904Y-81502438D02*
X141309523Y-81550057D01*
X141309523Y-81550057D02*
X141357142Y-81645295D01*
X141357142Y-81645295D02*
X141357142Y-81788152D01*
X141357142Y-81788152D02*
X141309523Y-81883390D01*
X141309523Y-81883390D02*
X141261904Y-81931009D01*
X141261904Y-81931009D02*
X141166666Y-81978628D01*
X141166666Y-81978628D02*
X140785714Y-81978628D01*
X141738095Y-81550057D02*
X141785714Y-81502438D01*
X141785714Y-81502438D02*
X141880952Y-81454819D01*
X141880952Y-81454819D02*
X142119047Y-81454819D01*
X142119047Y-81454819D02*
X142214285Y-81502438D01*
X142214285Y-81502438D02*
X142261904Y-81550057D01*
X142261904Y-81550057D02*
X142309523Y-81645295D01*
X142309523Y-81645295D02*
X142309523Y-81740533D01*
X142309523Y-81740533D02*
X142261904Y-81883390D01*
X142261904Y-81883390D02*
X141690476Y-82454819D01*
X141690476Y-82454819D02*
X142309523Y-82454819D01*
X143166666Y-81454819D02*
X142976190Y-81454819D01*
X142976190Y-81454819D02*
X142880952Y-81502438D01*
X142880952Y-81502438D02*
X142833333Y-81550057D01*
X142833333Y-81550057D02*
X142738095Y-81692914D01*
X142738095Y-81692914D02*
X142690476Y-81883390D01*
X142690476Y-81883390D02*
X142690476Y-82264342D01*
X142690476Y-82264342D02*
X142738095Y-82359580D01*
X142738095Y-82359580D02*
X142785714Y-82407200D01*
X142785714Y-82407200D02*
X142880952Y-82454819D01*
X142880952Y-82454819D02*
X143071428Y-82454819D01*
X143071428Y-82454819D02*
X143166666Y-82407200D01*
X143166666Y-82407200D02*
X143214285Y-82359580D01*
X143214285Y-82359580D02*
X143261904Y-82264342D01*
X143261904Y-82264342D02*
X143261904Y-82026247D01*
X143261904Y-82026247D02*
X143214285Y-81931009D01*
X143214285Y-81931009D02*
X143166666Y-81883390D01*
X143166666Y-81883390D02*
X143071428Y-81835771D01*
X143071428Y-81835771D02*
X142880952Y-81835771D01*
X142880952Y-81835771D02*
X142785714Y-81883390D01*
X142785714Y-81883390D02*
X142738095Y-81931009D01*
X142738095Y-81931009D02*
X142690476Y-82026247D01*
X175253333Y-49859580D02*
X175205714Y-49907200D01*
X175205714Y-49907200D02*
X175062857Y-49954819D01*
X175062857Y-49954819D02*
X174967619Y-49954819D01*
X174967619Y-49954819D02*
X174824762Y-49907200D01*
X174824762Y-49907200D02*
X174729524Y-49811961D01*
X174729524Y-49811961D02*
X174681905Y-49716723D01*
X174681905Y-49716723D02*
X174634286Y-49526247D01*
X174634286Y-49526247D02*
X174634286Y-49383390D01*
X174634286Y-49383390D02*
X174681905Y-49192914D01*
X174681905Y-49192914D02*
X174729524Y-49097676D01*
X174729524Y-49097676D02*
X174824762Y-49002438D01*
X174824762Y-49002438D02*
X174967619Y-48954819D01*
X174967619Y-48954819D02*
X175062857Y-48954819D01*
X175062857Y-48954819D02*
X175205714Y-49002438D01*
X175205714Y-49002438D02*
X175253333Y-49050057D01*
X176205714Y-49954819D02*
X175634286Y-49954819D01*
X175920000Y-49954819D02*
X175920000Y-48954819D01*
X175920000Y-48954819D02*
X175824762Y-49097676D01*
X175824762Y-49097676D02*
X175729524Y-49192914D01*
X175729524Y-49192914D02*
X175634286Y-49240533D01*
X207833333Y-82614819D02*
X207500000Y-82138628D01*
X207261905Y-82614819D02*
X207261905Y-81614819D01*
X207261905Y-81614819D02*
X207642857Y-81614819D01*
X207642857Y-81614819D02*
X207738095Y-81662438D01*
X207738095Y-81662438D02*
X207785714Y-81710057D01*
X207785714Y-81710057D02*
X207833333Y-81805295D01*
X207833333Y-81805295D02*
X207833333Y-81948152D01*
X207833333Y-81948152D02*
X207785714Y-82043390D01*
X207785714Y-82043390D02*
X207738095Y-82091009D01*
X207738095Y-82091009D02*
X207642857Y-82138628D01*
X207642857Y-82138628D02*
X207261905Y-82138628D01*
X208166667Y-81614819D02*
X208833333Y-81614819D01*
X208833333Y-81614819D02*
X208404762Y-82614819D01*
X212586667Y-50077200D02*
X212729524Y-50124819D01*
X212729524Y-50124819D02*
X212967619Y-50124819D01*
X212967619Y-50124819D02*
X213062857Y-50077200D01*
X213062857Y-50077200D02*
X213110476Y-50029580D01*
X213110476Y-50029580D02*
X213158095Y-49934342D01*
X213158095Y-49934342D02*
X213158095Y-49839104D01*
X213158095Y-49839104D02*
X213110476Y-49743866D01*
X213110476Y-49743866D02*
X213062857Y-49696247D01*
X213062857Y-49696247D02*
X212967619Y-49648628D01*
X212967619Y-49648628D02*
X212777143Y-49601009D01*
X212777143Y-49601009D02*
X212681905Y-49553390D01*
X212681905Y-49553390D02*
X212634286Y-49505771D01*
X212634286Y-49505771D02*
X212586667Y-49410533D01*
X212586667Y-49410533D02*
X212586667Y-49315295D01*
X212586667Y-49315295D02*
X212634286Y-49220057D01*
X212634286Y-49220057D02*
X212681905Y-49172438D01*
X212681905Y-49172438D02*
X212777143Y-49124819D01*
X212777143Y-49124819D02*
X213015238Y-49124819D01*
X213015238Y-49124819D02*
X213158095Y-49172438D01*
X213491429Y-49124819D02*
X213729524Y-50124819D01*
X213729524Y-50124819D02*
X213920000Y-49410533D01*
X213920000Y-49410533D02*
X214110476Y-50124819D01*
X214110476Y-50124819D02*
X214348572Y-49124819D01*
X214777143Y-50124819D02*
X214967619Y-50124819D01*
X214967619Y-50124819D02*
X215062857Y-50077200D01*
X215062857Y-50077200D02*
X215110476Y-50029580D01*
X215110476Y-50029580D02*
X215205714Y-49886723D01*
X215205714Y-49886723D02*
X215253333Y-49696247D01*
X215253333Y-49696247D02*
X215253333Y-49315295D01*
X215253333Y-49315295D02*
X215205714Y-49220057D01*
X215205714Y-49220057D02*
X215158095Y-49172438D01*
X215158095Y-49172438D02*
X215062857Y-49124819D01*
X215062857Y-49124819D02*
X214872381Y-49124819D01*
X214872381Y-49124819D02*
X214777143Y-49172438D01*
X214777143Y-49172438D02*
X214729524Y-49220057D01*
X214729524Y-49220057D02*
X214681905Y-49315295D01*
X214681905Y-49315295D02*
X214681905Y-49553390D01*
X214681905Y-49553390D02*
X214729524Y-49648628D01*
X214729524Y-49648628D02*
X214777143Y-49696247D01*
X214777143Y-49696247D02*
X214872381Y-49743866D01*
X214872381Y-49743866D02*
X215062857Y-49743866D01*
X215062857Y-49743866D02*
X215158095Y-49696247D01*
X215158095Y-49696247D02*
X215205714Y-49648628D01*
X215205714Y-49648628D02*
X215253333Y-49553390D01*
X194753333Y-50359580D02*
X194705714Y-50407200D01*
X194705714Y-50407200D02*
X194562857Y-50454819D01*
X194562857Y-50454819D02*
X194467619Y-50454819D01*
X194467619Y-50454819D02*
X194324762Y-50407200D01*
X194324762Y-50407200D02*
X194229524Y-50311961D01*
X194229524Y-50311961D02*
X194181905Y-50216723D01*
X194181905Y-50216723D02*
X194134286Y-50026247D01*
X194134286Y-50026247D02*
X194134286Y-49883390D01*
X194134286Y-49883390D02*
X194181905Y-49692914D01*
X194181905Y-49692914D02*
X194229524Y-49597676D01*
X194229524Y-49597676D02*
X194324762Y-49502438D01*
X194324762Y-49502438D02*
X194467619Y-49454819D01*
X194467619Y-49454819D02*
X194562857Y-49454819D01*
X194562857Y-49454819D02*
X194705714Y-49502438D01*
X194705714Y-49502438D02*
X194753333Y-49550057D01*
X195610476Y-49788152D02*
X195610476Y-50454819D01*
X195372381Y-49407200D02*
X195134286Y-50121485D01*
X195134286Y-50121485D02*
X195753333Y-50121485D01*
X167357142Y-63954819D02*
X167023809Y-63478628D01*
X166785714Y-63954819D02*
X166785714Y-62954819D01*
X166785714Y-62954819D02*
X167166666Y-62954819D01*
X167166666Y-62954819D02*
X167261904Y-63002438D01*
X167261904Y-63002438D02*
X167309523Y-63050057D01*
X167309523Y-63050057D02*
X167357142Y-63145295D01*
X167357142Y-63145295D02*
X167357142Y-63288152D01*
X167357142Y-63288152D02*
X167309523Y-63383390D01*
X167309523Y-63383390D02*
X167261904Y-63431009D01*
X167261904Y-63431009D02*
X167166666Y-63478628D01*
X167166666Y-63478628D02*
X166785714Y-63478628D01*
X167738095Y-63050057D02*
X167785714Y-63002438D01*
X167785714Y-63002438D02*
X167880952Y-62954819D01*
X167880952Y-62954819D02*
X168119047Y-62954819D01*
X168119047Y-62954819D02*
X168214285Y-63002438D01*
X168214285Y-63002438D02*
X168261904Y-63050057D01*
X168261904Y-63050057D02*
X168309523Y-63145295D01*
X168309523Y-63145295D02*
X168309523Y-63240533D01*
X168309523Y-63240533D02*
X168261904Y-63383390D01*
X168261904Y-63383390D02*
X167690476Y-63954819D01*
X167690476Y-63954819D02*
X168309523Y-63954819D01*
X169166666Y-63288152D02*
X169166666Y-63954819D01*
X168928571Y-62907200D02*
X168690476Y-63621485D01*
X168690476Y-63621485D02*
X169309523Y-63621485D01*
X172666667Y-115597200D02*
X172809524Y-115644819D01*
X172809524Y-115644819D02*
X173047619Y-115644819D01*
X173047619Y-115644819D02*
X173142857Y-115597200D01*
X173142857Y-115597200D02*
X173190476Y-115549580D01*
X173190476Y-115549580D02*
X173238095Y-115454342D01*
X173238095Y-115454342D02*
X173238095Y-115359104D01*
X173238095Y-115359104D02*
X173190476Y-115263866D01*
X173190476Y-115263866D02*
X173142857Y-115216247D01*
X173142857Y-115216247D02*
X173047619Y-115168628D01*
X173047619Y-115168628D02*
X172857143Y-115121009D01*
X172857143Y-115121009D02*
X172761905Y-115073390D01*
X172761905Y-115073390D02*
X172714286Y-115025771D01*
X172714286Y-115025771D02*
X172666667Y-114930533D01*
X172666667Y-114930533D02*
X172666667Y-114835295D01*
X172666667Y-114835295D02*
X172714286Y-114740057D01*
X172714286Y-114740057D02*
X172761905Y-114692438D01*
X172761905Y-114692438D02*
X172857143Y-114644819D01*
X172857143Y-114644819D02*
X173095238Y-114644819D01*
X173095238Y-114644819D02*
X173238095Y-114692438D01*
X173571429Y-114644819D02*
X173809524Y-115644819D01*
X173809524Y-115644819D02*
X174000000Y-114930533D01*
X174000000Y-114930533D02*
X174190476Y-115644819D01*
X174190476Y-115644819D02*
X174428572Y-114644819D01*
X174952381Y-115073390D02*
X174857143Y-115025771D01*
X174857143Y-115025771D02*
X174809524Y-114978152D01*
X174809524Y-114978152D02*
X174761905Y-114882914D01*
X174761905Y-114882914D02*
X174761905Y-114835295D01*
X174761905Y-114835295D02*
X174809524Y-114740057D01*
X174809524Y-114740057D02*
X174857143Y-114692438D01*
X174857143Y-114692438D02*
X174952381Y-114644819D01*
X174952381Y-114644819D02*
X175142857Y-114644819D01*
X175142857Y-114644819D02*
X175238095Y-114692438D01*
X175238095Y-114692438D02*
X175285714Y-114740057D01*
X175285714Y-114740057D02*
X175333333Y-114835295D01*
X175333333Y-114835295D02*
X175333333Y-114882914D01*
X175333333Y-114882914D02*
X175285714Y-114978152D01*
X175285714Y-114978152D02*
X175238095Y-115025771D01*
X175238095Y-115025771D02*
X175142857Y-115073390D01*
X175142857Y-115073390D02*
X174952381Y-115073390D01*
X174952381Y-115073390D02*
X174857143Y-115121009D01*
X174857143Y-115121009D02*
X174809524Y-115168628D01*
X174809524Y-115168628D02*
X174761905Y-115263866D01*
X174761905Y-115263866D02*
X174761905Y-115454342D01*
X174761905Y-115454342D02*
X174809524Y-115549580D01*
X174809524Y-115549580D02*
X174857143Y-115597200D01*
X174857143Y-115597200D02*
X174952381Y-115644819D01*
X174952381Y-115644819D02*
X175142857Y-115644819D01*
X175142857Y-115644819D02*
X175238095Y-115597200D01*
X175238095Y-115597200D02*
X175285714Y-115549580D01*
X175285714Y-115549580D02*
X175333333Y-115454342D01*
X175333333Y-115454342D02*
X175333333Y-115263866D01*
X175333333Y-115263866D02*
X175285714Y-115168628D01*
X175285714Y-115168628D02*
X175238095Y-115121009D01*
X175238095Y-115121009D02*
X175142857Y-115073390D01*
X127445595Y-53821819D02*
X127445595Y-54631342D01*
X127445595Y-54631342D02*
X127493214Y-54726580D01*
X127493214Y-54726580D02*
X127540833Y-54774200D01*
X127540833Y-54774200D02*
X127636071Y-54821819D01*
X127636071Y-54821819D02*
X127826547Y-54821819D01*
X127826547Y-54821819D02*
X127921785Y-54774200D01*
X127921785Y-54774200D02*
X127969404Y-54726580D01*
X127969404Y-54726580D02*
X128017023Y-54631342D01*
X128017023Y-54631342D02*
X128017023Y-53821819D01*
X128397976Y-53821819D02*
X129017023Y-53821819D01*
X129017023Y-53821819D02*
X128683690Y-54202771D01*
X128683690Y-54202771D02*
X128826547Y-54202771D01*
X128826547Y-54202771D02*
X128921785Y-54250390D01*
X128921785Y-54250390D02*
X128969404Y-54298009D01*
X128969404Y-54298009D02*
X129017023Y-54393247D01*
X129017023Y-54393247D02*
X129017023Y-54631342D01*
X129017023Y-54631342D02*
X128969404Y-54726580D01*
X128969404Y-54726580D02*
X128921785Y-54774200D01*
X128921785Y-54774200D02*
X128826547Y-54821819D01*
X128826547Y-54821819D02*
X128540833Y-54821819D01*
X128540833Y-54821819D02*
X128445595Y-54774200D01*
X128445595Y-54774200D02*
X128397976Y-54726580D01*
D13*
X42276667Y-53304318D02*
X42276667Y-54211461D01*
X42276667Y-54211461D02*
X42216190Y-54392889D01*
X42216190Y-54392889D02*
X42095238Y-54513842D01*
X42095238Y-54513842D02*
X41913809Y-54574318D01*
X41913809Y-54574318D02*
X41792857Y-54574318D01*
X43062857Y-53848603D02*
X42941905Y-53788127D01*
X42941905Y-53788127D02*
X42881428Y-53727651D01*
X42881428Y-53727651D02*
X42820952Y-53606699D01*
X42820952Y-53606699D02*
X42820952Y-53546222D01*
X42820952Y-53546222D02*
X42881428Y-53425270D01*
X42881428Y-53425270D02*
X42941905Y-53364794D01*
X42941905Y-53364794D02*
X43062857Y-53304318D01*
X43062857Y-53304318D02*
X43304762Y-53304318D01*
X43304762Y-53304318D02*
X43425714Y-53364794D01*
X43425714Y-53364794D02*
X43486190Y-53425270D01*
X43486190Y-53425270D02*
X43546667Y-53546222D01*
X43546667Y-53546222D02*
X43546667Y-53606699D01*
X43546667Y-53606699D02*
X43486190Y-53727651D01*
X43486190Y-53727651D02*
X43425714Y-53788127D01*
X43425714Y-53788127D02*
X43304762Y-53848603D01*
X43304762Y-53848603D02*
X43062857Y-53848603D01*
X43062857Y-53848603D02*
X42941905Y-53909080D01*
X42941905Y-53909080D02*
X42881428Y-53969556D01*
X42881428Y-53969556D02*
X42820952Y-54090508D01*
X42820952Y-54090508D02*
X42820952Y-54332413D01*
X42820952Y-54332413D02*
X42881428Y-54453365D01*
X42881428Y-54453365D02*
X42941905Y-54513842D01*
X42941905Y-54513842D02*
X43062857Y-54574318D01*
X43062857Y-54574318D02*
X43304762Y-54574318D01*
X43304762Y-54574318D02*
X43425714Y-54513842D01*
X43425714Y-54513842D02*
X43486190Y-54453365D01*
X43486190Y-54453365D02*
X43546667Y-54332413D01*
X43546667Y-54332413D02*
X43546667Y-54090508D01*
X43546667Y-54090508D02*
X43486190Y-53969556D01*
X43486190Y-53969556D02*
X43425714Y-53909080D01*
X43425714Y-53909080D02*
X43304762Y-53848603D01*
D14*
X162753333Y-58454819D02*
X162420000Y-57978628D01*
X162181905Y-58454819D02*
X162181905Y-57454819D01*
X162181905Y-57454819D02*
X162562857Y-57454819D01*
X162562857Y-57454819D02*
X162658095Y-57502438D01*
X162658095Y-57502438D02*
X162705714Y-57550057D01*
X162705714Y-57550057D02*
X162753333Y-57645295D01*
X162753333Y-57645295D02*
X162753333Y-57788152D01*
X162753333Y-57788152D02*
X162705714Y-57883390D01*
X162705714Y-57883390D02*
X162658095Y-57931009D01*
X162658095Y-57931009D02*
X162562857Y-57978628D01*
X162562857Y-57978628D02*
X162181905Y-57978628D01*
X163229524Y-58454819D02*
X163420000Y-58454819D01*
X163420000Y-58454819D02*
X163515238Y-58407200D01*
X163515238Y-58407200D02*
X163562857Y-58359580D01*
X163562857Y-58359580D02*
X163658095Y-58216723D01*
X163658095Y-58216723D02*
X163705714Y-58026247D01*
X163705714Y-58026247D02*
X163705714Y-57645295D01*
X163705714Y-57645295D02*
X163658095Y-57550057D01*
X163658095Y-57550057D02*
X163610476Y-57502438D01*
X163610476Y-57502438D02*
X163515238Y-57454819D01*
X163515238Y-57454819D02*
X163324762Y-57454819D01*
X163324762Y-57454819D02*
X163229524Y-57502438D01*
X163229524Y-57502438D02*
X163181905Y-57550057D01*
X163181905Y-57550057D02*
X163134286Y-57645295D01*
X163134286Y-57645295D02*
X163134286Y-57883390D01*
X163134286Y-57883390D02*
X163181905Y-57978628D01*
X163181905Y-57978628D02*
X163229524Y-58026247D01*
X163229524Y-58026247D02*
X163324762Y-58073866D01*
X163324762Y-58073866D02*
X163515238Y-58073866D01*
X163515238Y-58073866D02*
X163610476Y-58026247D01*
X163610476Y-58026247D02*
X163658095Y-57978628D01*
X163658095Y-57978628D02*
X163705714Y-57883390D01*
X155086667Y-50062200D02*
X155229524Y-50109819D01*
X155229524Y-50109819D02*
X155467619Y-50109819D01*
X155467619Y-50109819D02*
X155562857Y-50062200D01*
X155562857Y-50062200D02*
X155610476Y-50014580D01*
X155610476Y-50014580D02*
X155658095Y-49919342D01*
X155658095Y-49919342D02*
X155658095Y-49824104D01*
X155658095Y-49824104D02*
X155610476Y-49728866D01*
X155610476Y-49728866D02*
X155562857Y-49681247D01*
X155562857Y-49681247D02*
X155467619Y-49633628D01*
X155467619Y-49633628D02*
X155277143Y-49586009D01*
X155277143Y-49586009D02*
X155181905Y-49538390D01*
X155181905Y-49538390D02*
X155134286Y-49490771D01*
X155134286Y-49490771D02*
X155086667Y-49395533D01*
X155086667Y-49395533D02*
X155086667Y-49300295D01*
X155086667Y-49300295D02*
X155134286Y-49205057D01*
X155134286Y-49205057D02*
X155181905Y-49157438D01*
X155181905Y-49157438D02*
X155277143Y-49109819D01*
X155277143Y-49109819D02*
X155515238Y-49109819D01*
X155515238Y-49109819D02*
X155658095Y-49157438D01*
X155991429Y-49109819D02*
X156229524Y-50109819D01*
X156229524Y-50109819D02*
X156420000Y-49395533D01*
X156420000Y-49395533D02*
X156610476Y-50109819D01*
X156610476Y-50109819D02*
X156848572Y-49109819D01*
X157705714Y-49109819D02*
X157229524Y-49109819D01*
X157229524Y-49109819D02*
X157181905Y-49586009D01*
X157181905Y-49586009D02*
X157229524Y-49538390D01*
X157229524Y-49538390D02*
X157324762Y-49490771D01*
X157324762Y-49490771D02*
X157562857Y-49490771D01*
X157562857Y-49490771D02*
X157658095Y-49538390D01*
X157658095Y-49538390D02*
X157705714Y-49586009D01*
X157705714Y-49586009D02*
X157753333Y-49681247D01*
X157753333Y-49681247D02*
X157753333Y-49919342D01*
X157753333Y-49919342D02*
X157705714Y-50014580D01*
X157705714Y-50014580D02*
X157658095Y-50062200D01*
X157658095Y-50062200D02*
X157562857Y-50109819D01*
X157562857Y-50109819D02*
X157324762Y-50109819D01*
X157324762Y-50109819D02*
X157229524Y-50062200D01*
X157229524Y-50062200D02*
X157181905Y-50014580D01*
X200277142Y-32454819D02*
X199943809Y-31978628D01*
X199705714Y-32454819D02*
X199705714Y-31454819D01*
X199705714Y-31454819D02*
X200086666Y-31454819D01*
X200086666Y-31454819D02*
X200181904Y-31502438D01*
X200181904Y-31502438D02*
X200229523Y-31550057D01*
X200229523Y-31550057D02*
X200277142Y-31645295D01*
X200277142Y-31645295D02*
X200277142Y-31788152D01*
X200277142Y-31788152D02*
X200229523Y-31883390D01*
X200229523Y-31883390D02*
X200181904Y-31931009D01*
X200181904Y-31931009D02*
X200086666Y-31978628D01*
X200086666Y-31978628D02*
X199705714Y-31978628D01*
X201229523Y-32454819D02*
X200658095Y-32454819D01*
X200943809Y-32454819D02*
X200943809Y-31454819D01*
X200943809Y-31454819D02*
X200848571Y-31597676D01*
X200848571Y-31597676D02*
X200753333Y-31692914D01*
X200753333Y-31692914D02*
X200658095Y-31740533D01*
X202134285Y-31454819D02*
X201658095Y-31454819D01*
X201658095Y-31454819D02*
X201610476Y-31931009D01*
X201610476Y-31931009D02*
X201658095Y-31883390D01*
X201658095Y-31883390D02*
X201753333Y-31835771D01*
X201753333Y-31835771D02*
X201991428Y-31835771D01*
X201991428Y-31835771D02*
X202086666Y-31883390D01*
X202086666Y-31883390D02*
X202134285Y-31931009D01*
X202134285Y-31931009D02*
X202181904Y-32026247D01*
X202181904Y-32026247D02*
X202181904Y-32264342D01*
X202181904Y-32264342D02*
X202134285Y-32359580D01*
X202134285Y-32359580D02*
X202086666Y-32407200D01*
X202086666Y-32407200D02*
X201991428Y-32454819D01*
X201991428Y-32454819D02*
X201753333Y-32454819D01*
X201753333Y-32454819D02*
X201658095Y-32407200D01*
X201658095Y-32407200D02*
X201610476Y-32359580D01*
X167117142Y-47454819D02*
X166783809Y-46978628D01*
X166545714Y-47454819D02*
X166545714Y-46454819D01*
X166545714Y-46454819D02*
X166926666Y-46454819D01*
X166926666Y-46454819D02*
X167021904Y-46502438D01*
X167021904Y-46502438D02*
X167069523Y-46550057D01*
X167069523Y-46550057D02*
X167117142Y-46645295D01*
X167117142Y-46645295D02*
X167117142Y-46788152D01*
X167117142Y-46788152D02*
X167069523Y-46883390D01*
X167069523Y-46883390D02*
X167021904Y-46931009D01*
X167021904Y-46931009D02*
X166926666Y-46978628D01*
X166926666Y-46978628D02*
X166545714Y-46978628D01*
X167498095Y-46550057D02*
X167545714Y-46502438D01*
X167545714Y-46502438D02*
X167640952Y-46454819D01*
X167640952Y-46454819D02*
X167879047Y-46454819D01*
X167879047Y-46454819D02*
X167974285Y-46502438D01*
X167974285Y-46502438D02*
X168021904Y-46550057D01*
X168021904Y-46550057D02*
X168069523Y-46645295D01*
X168069523Y-46645295D02*
X168069523Y-46740533D01*
X168069523Y-46740533D02*
X168021904Y-46883390D01*
X168021904Y-46883390D02*
X167450476Y-47454819D01*
X167450476Y-47454819D02*
X168069523Y-47454819D01*
X168402857Y-46454819D02*
X169021904Y-46454819D01*
X169021904Y-46454819D02*
X168688571Y-46835771D01*
X168688571Y-46835771D02*
X168831428Y-46835771D01*
X168831428Y-46835771D02*
X168926666Y-46883390D01*
X168926666Y-46883390D02*
X168974285Y-46931009D01*
X168974285Y-46931009D02*
X169021904Y-47026247D01*
X169021904Y-47026247D02*
X169021904Y-47264342D01*
X169021904Y-47264342D02*
X168974285Y-47359580D01*
X168974285Y-47359580D02*
X168926666Y-47407200D01*
X168926666Y-47407200D02*
X168831428Y-47454819D01*
X168831428Y-47454819D02*
X168545714Y-47454819D01*
X168545714Y-47454819D02*
X168450476Y-47407200D01*
X168450476Y-47407200D02*
X168402857Y-47359580D01*
X195357142Y-82614819D02*
X195023809Y-82138628D01*
X194785714Y-82614819D02*
X194785714Y-81614819D01*
X194785714Y-81614819D02*
X195166666Y-81614819D01*
X195166666Y-81614819D02*
X195261904Y-81662438D01*
X195261904Y-81662438D02*
X195309523Y-81710057D01*
X195309523Y-81710057D02*
X195357142Y-81805295D01*
X195357142Y-81805295D02*
X195357142Y-81948152D01*
X195357142Y-81948152D02*
X195309523Y-82043390D01*
X195309523Y-82043390D02*
X195261904Y-82091009D01*
X195261904Y-82091009D02*
X195166666Y-82138628D01*
X195166666Y-82138628D02*
X194785714Y-82138628D01*
X195738095Y-81710057D02*
X195785714Y-81662438D01*
X195785714Y-81662438D02*
X195880952Y-81614819D01*
X195880952Y-81614819D02*
X196119047Y-81614819D01*
X196119047Y-81614819D02*
X196214285Y-81662438D01*
X196214285Y-81662438D02*
X196261904Y-81710057D01*
X196261904Y-81710057D02*
X196309523Y-81805295D01*
X196309523Y-81805295D02*
X196309523Y-81900533D01*
X196309523Y-81900533D02*
X196261904Y-82043390D01*
X196261904Y-82043390D02*
X195690476Y-82614819D01*
X195690476Y-82614819D02*
X196309523Y-82614819D01*
X196928571Y-81614819D02*
X197023809Y-81614819D01*
X197023809Y-81614819D02*
X197119047Y-81662438D01*
X197119047Y-81662438D02*
X197166666Y-81710057D01*
X197166666Y-81710057D02*
X197214285Y-81805295D01*
X197214285Y-81805295D02*
X197261904Y-81995771D01*
X197261904Y-81995771D02*
X197261904Y-82233866D01*
X197261904Y-82233866D02*
X197214285Y-82424342D01*
X197214285Y-82424342D02*
X197166666Y-82519580D01*
X197166666Y-82519580D02*
X197119047Y-82567200D01*
X197119047Y-82567200D02*
X197023809Y-82614819D01*
X197023809Y-82614819D02*
X196928571Y-82614819D01*
X196928571Y-82614819D02*
X196833333Y-82567200D01*
X196833333Y-82567200D02*
X196785714Y-82519580D01*
X196785714Y-82519580D02*
X196738095Y-82424342D01*
X196738095Y-82424342D02*
X196690476Y-82233866D01*
X196690476Y-82233866D02*
X196690476Y-81995771D01*
X196690476Y-81995771D02*
X196738095Y-81805295D01*
X196738095Y-81805295D02*
X196785714Y-81710057D01*
X196785714Y-81710057D02*
X196833333Y-81662438D01*
X196833333Y-81662438D02*
X196928571Y-81614819D01*
X162777142Y-49454819D02*
X162443809Y-48978628D01*
X162205714Y-49454819D02*
X162205714Y-48454819D01*
X162205714Y-48454819D02*
X162586666Y-48454819D01*
X162586666Y-48454819D02*
X162681904Y-48502438D01*
X162681904Y-48502438D02*
X162729523Y-48550057D01*
X162729523Y-48550057D02*
X162777142Y-48645295D01*
X162777142Y-48645295D02*
X162777142Y-48788152D01*
X162777142Y-48788152D02*
X162729523Y-48883390D01*
X162729523Y-48883390D02*
X162681904Y-48931009D01*
X162681904Y-48931009D02*
X162586666Y-48978628D01*
X162586666Y-48978628D02*
X162205714Y-48978628D01*
X163729523Y-49454819D02*
X163158095Y-49454819D01*
X163443809Y-49454819D02*
X163443809Y-48454819D01*
X163443809Y-48454819D02*
X163348571Y-48597676D01*
X163348571Y-48597676D02*
X163253333Y-48692914D01*
X163253333Y-48692914D02*
X163158095Y-48740533D01*
X164348571Y-48454819D02*
X164443809Y-48454819D01*
X164443809Y-48454819D02*
X164539047Y-48502438D01*
X164539047Y-48502438D02*
X164586666Y-48550057D01*
X164586666Y-48550057D02*
X164634285Y-48645295D01*
X164634285Y-48645295D02*
X164681904Y-48835771D01*
X164681904Y-48835771D02*
X164681904Y-49073866D01*
X164681904Y-49073866D02*
X164634285Y-49264342D01*
X164634285Y-49264342D02*
X164586666Y-49359580D01*
X164586666Y-49359580D02*
X164539047Y-49407200D01*
X164539047Y-49407200D02*
X164443809Y-49454819D01*
X164443809Y-49454819D02*
X164348571Y-49454819D01*
X164348571Y-49454819D02*
X164253333Y-49407200D01*
X164253333Y-49407200D02*
X164205714Y-49359580D01*
X164205714Y-49359580D02*
X164158095Y-49264342D01*
X164158095Y-49264342D02*
X164110476Y-49073866D01*
X164110476Y-49073866D02*
X164110476Y-48835771D01*
X164110476Y-48835771D02*
X164158095Y-48645295D01*
X164158095Y-48645295D02*
X164205714Y-48550057D01*
X164205714Y-48550057D02*
X164253333Y-48502438D01*
X164253333Y-48502438D02*
X164348571Y-48454819D01*
X200277142Y-49454819D02*
X199943809Y-48978628D01*
X199705714Y-49454819D02*
X199705714Y-48454819D01*
X199705714Y-48454819D02*
X200086666Y-48454819D01*
X200086666Y-48454819D02*
X200181904Y-48502438D01*
X200181904Y-48502438D02*
X200229523Y-48550057D01*
X200229523Y-48550057D02*
X200277142Y-48645295D01*
X200277142Y-48645295D02*
X200277142Y-48788152D01*
X200277142Y-48788152D02*
X200229523Y-48883390D01*
X200229523Y-48883390D02*
X200181904Y-48931009D01*
X200181904Y-48931009D02*
X200086666Y-48978628D01*
X200086666Y-48978628D02*
X199705714Y-48978628D01*
X200658095Y-48550057D02*
X200705714Y-48502438D01*
X200705714Y-48502438D02*
X200800952Y-48454819D01*
X200800952Y-48454819D02*
X201039047Y-48454819D01*
X201039047Y-48454819D02*
X201134285Y-48502438D01*
X201134285Y-48502438D02*
X201181904Y-48550057D01*
X201181904Y-48550057D02*
X201229523Y-48645295D01*
X201229523Y-48645295D02*
X201229523Y-48740533D01*
X201229523Y-48740533D02*
X201181904Y-48883390D01*
X201181904Y-48883390D02*
X200610476Y-49454819D01*
X200610476Y-49454819D02*
X201229523Y-49454819D01*
X201800952Y-48883390D02*
X201705714Y-48835771D01*
X201705714Y-48835771D02*
X201658095Y-48788152D01*
X201658095Y-48788152D02*
X201610476Y-48692914D01*
X201610476Y-48692914D02*
X201610476Y-48645295D01*
X201610476Y-48645295D02*
X201658095Y-48550057D01*
X201658095Y-48550057D02*
X201705714Y-48502438D01*
X201705714Y-48502438D02*
X201800952Y-48454819D01*
X201800952Y-48454819D02*
X201991428Y-48454819D01*
X201991428Y-48454819D02*
X202086666Y-48502438D01*
X202086666Y-48502438D02*
X202134285Y-48550057D01*
X202134285Y-48550057D02*
X202181904Y-48645295D01*
X202181904Y-48645295D02*
X202181904Y-48692914D01*
X202181904Y-48692914D02*
X202134285Y-48788152D01*
X202134285Y-48788152D02*
X202086666Y-48835771D01*
X202086666Y-48835771D02*
X201991428Y-48883390D01*
X201991428Y-48883390D02*
X201800952Y-48883390D01*
X201800952Y-48883390D02*
X201705714Y-48931009D01*
X201705714Y-48931009D02*
X201658095Y-48978628D01*
X201658095Y-48978628D02*
X201610476Y-49073866D01*
X201610476Y-49073866D02*
X201610476Y-49264342D01*
X201610476Y-49264342D02*
X201658095Y-49359580D01*
X201658095Y-49359580D02*
X201705714Y-49407200D01*
X201705714Y-49407200D02*
X201800952Y-49454819D01*
X201800952Y-49454819D02*
X201991428Y-49454819D01*
X201991428Y-49454819D02*
X202086666Y-49407200D01*
X202086666Y-49407200D02*
X202134285Y-49359580D01*
X202134285Y-49359580D02*
X202181904Y-49264342D01*
X202181904Y-49264342D02*
X202181904Y-49073866D01*
X202181904Y-49073866D02*
X202134285Y-48978628D01*
X202134285Y-48978628D02*
X202086666Y-48931009D01*
X202086666Y-48931009D02*
X201991428Y-48883390D01*
X182833333Y-82614819D02*
X182500000Y-82138628D01*
X182261905Y-82614819D02*
X182261905Y-81614819D01*
X182261905Y-81614819D02*
X182642857Y-81614819D01*
X182642857Y-81614819D02*
X182738095Y-81662438D01*
X182738095Y-81662438D02*
X182785714Y-81710057D01*
X182785714Y-81710057D02*
X182833333Y-81805295D01*
X182833333Y-81805295D02*
X182833333Y-81948152D01*
X182833333Y-81948152D02*
X182785714Y-82043390D01*
X182785714Y-82043390D02*
X182738095Y-82091009D01*
X182738095Y-82091009D02*
X182642857Y-82138628D01*
X182642857Y-82138628D02*
X182261905Y-82138628D01*
X183690476Y-81948152D02*
X183690476Y-82614819D01*
X183452381Y-81567200D02*
X183214286Y-82281485D01*
X183214286Y-82281485D02*
X183833333Y-82281485D01*
X175253333Y-33359580D02*
X175205714Y-33407200D01*
X175205714Y-33407200D02*
X175062857Y-33454819D01*
X175062857Y-33454819D02*
X174967619Y-33454819D01*
X174967619Y-33454819D02*
X174824762Y-33407200D01*
X174824762Y-33407200D02*
X174729524Y-33311961D01*
X174729524Y-33311961D02*
X174681905Y-33216723D01*
X174681905Y-33216723D02*
X174634286Y-33026247D01*
X174634286Y-33026247D02*
X174634286Y-32883390D01*
X174634286Y-32883390D02*
X174681905Y-32692914D01*
X174681905Y-32692914D02*
X174729524Y-32597676D01*
X174729524Y-32597676D02*
X174824762Y-32502438D01*
X174824762Y-32502438D02*
X174967619Y-32454819D01*
X174967619Y-32454819D02*
X175062857Y-32454819D01*
X175062857Y-32454819D02*
X175205714Y-32502438D01*
X175205714Y-32502438D02*
X175253333Y-32550057D01*
X175634286Y-32550057D02*
X175681905Y-32502438D01*
X175681905Y-32502438D02*
X175777143Y-32454819D01*
X175777143Y-32454819D02*
X176015238Y-32454819D01*
X176015238Y-32454819D02*
X176110476Y-32502438D01*
X176110476Y-32502438D02*
X176158095Y-32550057D01*
X176158095Y-32550057D02*
X176205714Y-32645295D01*
X176205714Y-32645295D02*
X176205714Y-32740533D01*
X176205714Y-32740533D02*
X176158095Y-32883390D01*
X176158095Y-32883390D02*
X175586667Y-33454819D01*
X175586667Y-33454819D02*
X176205714Y-33454819D01*
X127445595Y-33821819D02*
X127445595Y-34631342D01*
X127445595Y-34631342D02*
X127493214Y-34726580D01*
X127493214Y-34726580D02*
X127540833Y-34774200D01*
X127540833Y-34774200D02*
X127636071Y-34821819D01*
X127636071Y-34821819D02*
X127826547Y-34821819D01*
X127826547Y-34821819D02*
X127921785Y-34774200D01*
X127921785Y-34774200D02*
X127969404Y-34726580D01*
X127969404Y-34726580D02*
X128017023Y-34631342D01*
X128017023Y-34631342D02*
X128017023Y-33821819D01*
X129017023Y-34821819D02*
X128445595Y-34821819D01*
X128731309Y-34821819D02*
X128731309Y-33821819D01*
X128731309Y-33821819D02*
X128636071Y-33964676D01*
X128636071Y-33964676D02*
X128540833Y-34059914D01*
X128540833Y-34059914D02*
X128445595Y-34107533D01*
X153824761Y-46050057D02*
X153729523Y-46002438D01*
X153729523Y-46002438D02*
X153634285Y-45907200D01*
X153634285Y-45907200D02*
X153491428Y-45764342D01*
X153491428Y-45764342D02*
X153396190Y-45716723D01*
X153396190Y-45716723D02*
X153300952Y-45716723D01*
X153348571Y-45954819D02*
X153253333Y-45907200D01*
X153253333Y-45907200D02*
X153158095Y-45811961D01*
X153158095Y-45811961D02*
X153110476Y-45621485D01*
X153110476Y-45621485D02*
X153110476Y-45288152D01*
X153110476Y-45288152D02*
X153158095Y-45097676D01*
X153158095Y-45097676D02*
X153253333Y-45002438D01*
X153253333Y-45002438D02*
X153348571Y-44954819D01*
X153348571Y-44954819D02*
X153539047Y-44954819D01*
X153539047Y-44954819D02*
X153634285Y-45002438D01*
X153634285Y-45002438D02*
X153729523Y-45097676D01*
X153729523Y-45097676D02*
X153777142Y-45288152D01*
X153777142Y-45288152D02*
X153777142Y-45621485D01*
X153777142Y-45621485D02*
X153729523Y-45811961D01*
X153729523Y-45811961D02*
X153634285Y-45907200D01*
X153634285Y-45907200D02*
X153539047Y-45954819D01*
X153539047Y-45954819D02*
X153348571Y-45954819D01*
X154110476Y-44954819D02*
X154729523Y-44954819D01*
X154729523Y-44954819D02*
X154396190Y-45335771D01*
X154396190Y-45335771D02*
X154539047Y-45335771D01*
X154539047Y-45335771D02*
X154634285Y-45383390D01*
X154634285Y-45383390D02*
X154681904Y-45431009D01*
X154681904Y-45431009D02*
X154729523Y-45526247D01*
X154729523Y-45526247D02*
X154729523Y-45764342D01*
X154729523Y-45764342D02*
X154681904Y-45859580D01*
X154681904Y-45859580D02*
X154634285Y-45907200D01*
X154634285Y-45907200D02*
X154539047Y-45954819D01*
X154539047Y-45954819D02*
X154253333Y-45954819D01*
X154253333Y-45954819D02*
X154158095Y-45907200D01*
X154158095Y-45907200D02*
X154110476Y-45859580D01*
D13*
X202776667Y-128304318D02*
X202776667Y-129211461D01*
X202776667Y-129211461D02*
X202716190Y-129392889D01*
X202716190Y-129392889D02*
X202595238Y-129513842D01*
X202595238Y-129513842D02*
X202413809Y-129574318D01*
X202413809Y-129574318D02*
X202292857Y-129574318D01*
X203986190Y-128304318D02*
X203381428Y-128304318D01*
X203381428Y-128304318D02*
X203320952Y-128909080D01*
X203320952Y-128909080D02*
X203381428Y-128848603D01*
X203381428Y-128848603D02*
X203502381Y-128788127D01*
X203502381Y-128788127D02*
X203804762Y-128788127D01*
X203804762Y-128788127D02*
X203925714Y-128848603D01*
X203925714Y-128848603D02*
X203986190Y-128909080D01*
X203986190Y-128909080D02*
X204046667Y-129030032D01*
X204046667Y-129030032D02*
X204046667Y-129332413D01*
X204046667Y-129332413D02*
X203986190Y-129453365D01*
X203986190Y-129453365D02*
X203925714Y-129513842D01*
X203925714Y-129513842D02*
X203804762Y-129574318D01*
X203804762Y-129574318D02*
X203502381Y-129574318D01*
X203502381Y-129574318D02*
X203381428Y-129513842D01*
X203381428Y-129513842D02*
X203320952Y-129453365D01*
D14*
X162277142Y-41454819D02*
X161943809Y-40978628D01*
X161705714Y-41454819D02*
X161705714Y-40454819D01*
X161705714Y-40454819D02*
X162086666Y-40454819D01*
X162086666Y-40454819D02*
X162181904Y-40502438D01*
X162181904Y-40502438D02*
X162229523Y-40550057D01*
X162229523Y-40550057D02*
X162277142Y-40645295D01*
X162277142Y-40645295D02*
X162277142Y-40788152D01*
X162277142Y-40788152D02*
X162229523Y-40883390D01*
X162229523Y-40883390D02*
X162181904Y-40931009D01*
X162181904Y-40931009D02*
X162086666Y-40978628D01*
X162086666Y-40978628D02*
X161705714Y-40978628D01*
X163229523Y-41454819D02*
X162658095Y-41454819D01*
X162943809Y-41454819D02*
X162943809Y-40454819D01*
X162943809Y-40454819D02*
X162848571Y-40597676D01*
X162848571Y-40597676D02*
X162753333Y-40692914D01*
X162753333Y-40692914D02*
X162658095Y-40740533D01*
X164181904Y-41454819D02*
X163610476Y-41454819D01*
X163896190Y-41454819D02*
X163896190Y-40454819D01*
X163896190Y-40454819D02*
X163800952Y-40597676D01*
X163800952Y-40597676D02*
X163705714Y-40692914D01*
X163705714Y-40692914D02*
X163610476Y-40740533D01*
X199833333Y-82614819D02*
X199500000Y-82138628D01*
X199261905Y-82614819D02*
X199261905Y-81614819D01*
X199261905Y-81614819D02*
X199642857Y-81614819D01*
X199642857Y-81614819D02*
X199738095Y-81662438D01*
X199738095Y-81662438D02*
X199785714Y-81710057D01*
X199785714Y-81710057D02*
X199833333Y-81805295D01*
X199833333Y-81805295D02*
X199833333Y-81948152D01*
X199833333Y-81948152D02*
X199785714Y-82043390D01*
X199785714Y-82043390D02*
X199738095Y-82091009D01*
X199738095Y-82091009D02*
X199642857Y-82138628D01*
X199642857Y-82138628D02*
X199261905Y-82138628D01*
X200785714Y-82614819D02*
X200214286Y-82614819D01*
X200500000Y-82614819D02*
X200500000Y-81614819D01*
X200500000Y-81614819D02*
X200404762Y-81757676D01*
X200404762Y-81757676D02*
X200309524Y-81852914D01*
X200309524Y-81852914D02*
X200214286Y-81900533D01*
X200753333Y-58454819D02*
X200420000Y-57978628D01*
X200181905Y-58454819D02*
X200181905Y-57454819D01*
X200181905Y-57454819D02*
X200562857Y-57454819D01*
X200562857Y-57454819D02*
X200658095Y-57502438D01*
X200658095Y-57502438D02*
X200705714Y-57550057D01*
X200705714Y-57550057D02*
X200753333Y-57645295D01*
X200753333Y-57645295D02*
X200753333Y-57788152D01*
X200753333Y-57788152D02*
X200705714Y-57883390D01*
X200705714Y-57883390D02*
X200658095Y-57931009D01*
X200658095Y-57931009D02*
X200562857Y-57978628D01*
X200562857Y-57978628D02*
X200181905Y-57978628D01*
X201610476Y-57454819D02*
X201420000Y-57454819D01*
X201420000Y-57454819D02*
X201324762Y-57502438D01*
X201324762Y-57502438D02*
X201277143Y-57550057D01*
X201277143Y-57550057D02*
X201181905Y-57692914D01*
X201181905Y-57692914D02*
X201134286Y-57883390D01*
X201134286Y-57883390D02*
X201134286Y-58264342D01*
X201134286Y-58264342D02*
X201181905Y-58359580D01*
X201181905Y-58359580D02*
X201229524Y-58407200D01*
X201229524Y-58407200D02*
X201324762Y-58454819D01*
X201324762Y-58454819D02*
X201515238Y-58454819D01*
X201515238Y-58454819D02*
X201610476Y-58407200D01*
X201610476Y-58407200D02*
X201658095Y-58359580D01*
X201658095Y-58359580D02*
X201705714Y-58264342D01*
X201705714Y-58264342D02*
X201705714Y-58026247D01*
X201705714Y-58026247D02*
X201658095Y-57931009D01*
X201658095Y-57931009D02*
X201610476Y-57883390D01*
X201610476Y-57883390D02*
X201515238Y-57835771D01*
X201515238Y-57835771D02*
X201324762Y-57835771D01*
X201324762Y-57835771D02*
X201229524Y-57883390D01*
X201229524Y-57883390D02*
X201181905Y-57931009D01*
X201181905Y-57931009D02*
X201134286Y-58026247D01*
X211833333Y-82614819D02*
X211500000Y-82138628D01*
X211261905Y-82614819D02*
X211261905Y-81614819D01*
X211261905Y-81614819D02*
X211642857Y-81614819D01*
X211642857Y-81614819D02*
X211738095Y-81662438D01*
X211738095Y-81662438D02*
X211785714Y-81710057D01*
X211785714Y-81710057D02*
X211833333Y-81805295D01*
X211833333Y-81805295D02*
X211833333Y-81948152D01*
X211833333Y-81948152D02*
X211785714Y-82043390D01*
X211785714Y-82043390D02*
X211738095Y-82091009D01*
X211738095Y-82091009D02*
X211642857Y-82138628D01*
X211642857Y-82138628D02*
X211261905Y-82138628D01*
X212404762Y-82043390D02*
X212309524Y-81995771D01*
X212309524Y-81995771D02*
X212261905Y-81948152D01*
X212261905Y-81948152D02*
X212214286Y-81852914D01*
X212214286Y-81852914D02*
X212214286Y-81805295D01*
X212214286Y-81805295D02*
X212261905Y-81710057D01*
X212261905Y-81710057D02*
X212309524Y-81662438D01*
X212309524Y-81662438D02*
X212404762Y-81614819D01*
X212404762Y-81614819D02*
X212595238Y-81614819D01*
X212595238Y-81614819D02*
X212690476Y-81662438D01*
X212690476Y-81662438D02*
X212738095Y-81710057D01*
X212738095Y-81710057D02*
X212785714Y-81805295D01*
X212785714Y-81805295D02*
X212785714Y-81852914D01*
X212785714Y-81852914D02*
X212738095Y-81948152D01*
X212738095Y-81948152D02*
X212690476Y-81995771D01*
X212690476Y-81995771D02*
X212595238Y-82043390D01*
X212595238Y-82043390D02*
X212404762Y-82043390D01*
X212404762Y-82043390D02*
X212309524Y-82091009D01*
X212309524Y-82091009D02*
X212261905Y-82138628D01*
X212261905Y-82138628D02*
X212214286Y-82233866D01*
X212214286Y-82233866D02*
X212214286Y-82424342D01*
X212214286Y-82424342D02*
X212261905Y-82519580D01*
X212261905Y-82519580D02*
X212309524Y-82567200D01*
X212309524Y-82567200D02*
X212404762Y-82614819D01*
X212404762Y-82614819D02*
X212595238Y-82614819D01*
X212595238Y-82614819D02*
X212690476Y-82567200D01*
X212690476Y-82567200D02*
X212738095Y-82519580D01*
X212738095Y-82519580D02*
X212785714Y-82424342D01*
X212785714Y-82424342D02*
X212785714Y-82233866D01*
X212785714Y-82233866D02*
X212738095Y-82138628D01*
X212738095Y-82138628D02*
X212690476Y-82091009D01*
X212690476Y-82091009D02*
X212595238Y-82043390D01*
X202437142Y-46954819D02*
X202103809Y-46478628D01*
X201865714Y-46954819D02*
X201865714Y-45954819D01*
X201865714Y-45954819D02*
X202246666Y-45954819D01*
X202246666Y-45954819D02*
X202341904Y-46002438D01*
X202341904Y-46002438D02*
X202389523Y-46050057D01*
X202389523Y-46050057D02*
X202437142Y-46145295D01*
X202437142Y-46145295D02*
X202437142Y-46288152D01*
X202437142Y-46288152D02*
X202389523Y-46383390D01*
X202389523Y-46383390D02*
X202341904Y-46431009D01*
X202341904Y-46431009D02*
X202246666Y-46478628D01*
X202246666Y-46478628D02*
X201865714Y-46478628D01*
X202818095Y-46050057D02*
X202865714Y-46002438D01*
X202865714Y-46002438D02*
X202960952Y-45954819D01*
X202960952Y-45954819D02*
X203199047Y-45954819D01*
X203199047Y-45954819D02*
X203294285Y-46002438D01*
X203294285Y-46002438D02*
X203341904Y-46050057D01*
X203341904Y-46050057D02*
X203389523Y-46145295D01*
X203389523Y-46145295D02*
X203389523Y-46240533D01*
X203389523Y-46240533D02*
X203341904Y-46383390D01*
X203341904Y-46383390D02*
X202770476Y-46954819D01*
X202770476Y-46954819D02*
X203389523Y-46954819D01*
X203770476Y-46050057D02*
X203818095Y-46002438D01*
X203818095Y-46002438D02*
X203913333Y-45954819D01*
X203913333Y-45954819D02*
X204151428Y-45954819D01*
X204151428Y-45954819D02*
X204246666Y-46002438D01*
X204246666Y-46002438D02*
X204294285Y-46050057D01*
X204294285Y-46050057D02*
X204341904Y-46145295D01*
X204341904Y-46145295D02*
X204341904Y-46240533D01*
X204341904Y-46240533D02*
X204294285Y-46383390D01*
X204294285Y-46383390D02*
X203722857Y-46954819D01*
X203722857Y-46954819D02*
X204341904Y-46954819D01*
X212586667Y-32577200D02*
X212729524Y-32624819D01*
X212729524Y-32624819D02*
X212967619Y-32624819D01*
X212967619Y-32624819D02*
X213062857Y-32577200D01*
X213062857Y-32577200D02*
X213110476Y-32529580D01*
X213110476Y-32529580D02*
X213158095Y-32434342D01*
X213158095Y-32434342D02*
X213158095Y-32339104D01*
X213158095Y-32339104D02*
X213110476Y-32243866D01*
X213110476Y-32243866D02*
X213062857Y-32196247D01*
X213062857Y-32196247D02*
X212967619Y-32148628D01*
X212967619Y-32148628D02*
X212777143Y-32101009D01*
X212777143Y-32101009D02*
X212681905Y-32053390D01*
X212681905Y-32053390D02*
X212634286Y-32005771D01*
X212634286Y-32005771D02*
X212586667Y-31910533D01*
X212586667Y-31910533D02*
X212586667Y-31815295D01*
X212586667Y-31815295D02*
X212634286Y-31720057D01*
X212634286Y-31720057D02*
X212681905Y-31672438D01*
X212681905Y-31672438D02*
X212777143Y-31624819D01*
X212777143Y-31624819D02*
X213015238Y-31624819D01*
X213015238Y-31624819D02*
X213158095Y-31672438D01*
X213491429Y-31624819D02*
X213729524Y-32624819D01*
X213729524Y-32624819D02*
X213920000Y-31910533D01*
X213920000Y-31910533D02*
X214110476Y-32624819D01*
X214110476Y-32624819D02*
X214348572Y-31624819D01*
X214634286Y-31624819D02*
X215300952Y-31624819D01*
X215300952Y-31624819D02*
X214872381Y-32624819D01*
X198166667Y-101597200D02*
X198309524Y-101644819D01*
X198309524Y-101644819D02*
X198547619Y-101644819D01*
X198547619Y-101644819D02*
X198642857Y-101597200D01*
X198642857Y-101597200D02*
X198690476Y-101549580D01*
X198690476Y-101549580D02*
X198738095Y-101454342D01*
X198738095Y-101454342D02*
X198738095Y-101359104D01*
X198738095Y-101359104D02*
X198690476Y-101263866D01*
X198690476Y-101263866D02*
X198642857Y-101216247D01*
X198642857Y-101216247D02*
X198547619Y-101168628D01*
X198547619Y-101168628D02*
X198357143Y-101121009D01*
X198357143Y-101121009D02*
X198261905Y-101073390D01*
X198261905Y-101073390D02*
X198214286Y-101025771D01*
X198214286Y-101025771D02*
X198166667Y-100930533D01*
X198166667Y-100930533D02*
X198166667Y-100835295D01*
X198166667Y-100835295D02*
X198214286Y-100740057D01*
X198214286Y-100740057D02*
X198261905Y-100692438D01*
X198261905Y-100692438D02*
X198357143Y-100644819D01*
X198357143Y-100644819D02*
X198595238Y-100644819D01*
X198595238Y-100644819D02*
X198738095Y-100692438D01*
X199071429Y-100644819D02*
X199309524Y-101644819D01*
X199309524Y-101644819D02*
X199500000Y-100930533D01*
X199500000Y-100930533D02*
X199690476Y-101644819D01*
X199690476Y-101644819D02*
X199928572Y-100644819D01*
X200738095Y-100644819D02*
X200547619Y-100644819D01*
X200547619Y-100644819D02*
X200452381Y-100692438D01*
X200452381Y-100692438D02*
X200404762Y-100740057D01*
X200404762Y-100740057D02*
X200309524Y-100882914D01*
X200309524Y-100882914D02*
X200261905Y-101073390D01*
X200261905Y-101073390D02*
X200261905Y-101454342D01*
X200261905Y-101454342D02*
X200309524Y-101549580D01*
X200309524Y-101549580D02*
X200357143Y-101597200D01*
X200357143Y-101597200D02*
X200452381Y-101644819D01*
X200452381Y-101644819D02*
X200642857Y-101644819D01*
X200642857Y-101644819D02*
X200738095Y-101597200D01*
X200738095Y-101597200D02*
X200785714Y-101549580D01*
X200785714Y-101549580D02*
X200833333Y-101454342D01*
X200833333Y-101454342D02*
X200833333Y-101216247D01*
X200833333Y-101216247D02*
X200785714Y-101121009D01*
X200785714Y-101121009D02*
X200738095Y-101073390D01*
X200738095Y-101073390D02*
X200642857Y-101025771D01*
X200642857Y-101025771D02*
X200452381Y-101025771D01*
X200452381Y-101025771D02*
X200357143Y-101073390D01*
X200357143Y-101073390D02*
X200309524Y-101121009D01*
X200309524Y-101121009D02*
X200261905Y-101216247D01*
X162777142Y-32454819D02*
X162443809Y-31978628D01*
X162205714Y-32454819D02*
X162205714Y-31454819D01*
X162205714Y-31454819D02*
X162586666Y-31454819D01*
X162586666Y-31454819D02*
X162681904Y-31502438D01*
X162681904Y-31502438D02*
X162729523Y-31550057D01*
X162729523Y-31550057D02*
X162777142Y-31645295D01*
X162777142Y-31645295D02*
X162777142Y-31788152D01*
X162777142Y-31788152D02*
X162729523Y-31883390D01*
X162729523Y-31883390D02*
X162681904Y-31931009D01*
X162681904Y-31931009D02*
X162586666Y-31978628D01*
X162586666Y-31978628D02*
X162205714Y-31978628D01*
X163729523Y-32454819D02*
X163158095Y-32454819D01*
X163443809Y-32454819D02*
X163443809Y-31454819D01*
X163443809Y-31454819D02*
X163348571Y-31597676D01*
X163348571Y-31597676D02*
X163253333Y-31692914D01*
X163253333Y-31692914D02*
X163158095Y-31740533D01*
X164062857Y-31454819D02*
X164681904Y-31454819D01*
X164681904Y-31454819D02*
X164348571Y-31835771D01*
X164348571Y-31835771D02*
X164491428Y-31835771D01*
X164491428Y-31835771D02*
X164586666Y-31883390D01*
X164586666Y-31883390D02*
X164634285Y-31931009D01*
X164634285Y-31931009D02*
X164681904Y-32026247D01*
X164681904Y-32026247D02*
X164681904Y-32264342D01*
X164681904Y-32264342D02*
X164634285Y-32359580D01*
X164634285Y-32359580D02*
X164586666Y-32407200D01*
X164586666Y-32407200D02*
X164491428Y-32454819D01*
X164491428Y-32454819D02*
X164205714Y-32454819D01*
X164205714Y-32454819D02*
X164110476Y-32407200D01*
X164110476Y-32407200D02*
X164062857Y-32359580D01*
D13*
X65276667Y-78304318D02*
X65276667Y-79211461D01*
X65276667Y-79211461D02*
X65216190Y-79392889D01*
X65216190Y-79392889D02*
X65095238Y-79513842D01*
X65095238Y-79513842D02*
X64913809Y-79574318D01*
X64913809Y-79574318D02*
X64792857Y-79574318D01*
X65760476Y-78304318D02*
X66607143Y-78304318D01*
X66607143Y-78304318D02*
X66062857Y-79574318D01*
D14*
X170357142Y-82534819D02*
X170023809Y-82058628D01*
X169785714Y-82534819D02*
X169785714Y-81534819D01*
X169785714Y-81534819D02*
X170166666Y-81534819D01*
X170166666Y-81534819D02*
X170261904Y-81582438D01*
X170261904Y-81582438D02*
X170309523Y-81630057D01*
X170309523Y-81630057D02*
X170357142Y-81725295D01*
X170357142Y-81725295D02*
X170357142Y-81868152D01*
X170357142Y-81868152D02*
X170309523Y-81963390D01*
X170309523Y-81963390D02*
X170261904Y-82011009D01*
X170261904Y-82011009D02*
X170166666Y-82058628D01*
X170166666Y-82058628D02*
X169785714Y-82058628D01*
X171309523Y-82534819D02*
X170738095Y-82534819D01*
X171023809Y-82534819D02*
X171023809Y-81534819D01*
X171023809Y-81534819D02*
X170928571Y-81677676D01*
X170928571Y-81677676D02*
X170833333Y-81772914D01*
X170833333Y-81772914D02*
X170738095Y-81820533D01*
X171690476Y-81630057D02*
X171738095Y-81582438D01*
X171738095Y-81582438D02*
X171833333Y-81534819D01*
X171833333Y-81534819D02*
X172071428Y-81534819D01*
X172071428Y-81534819D02*
X172166666Y-81582438D01*
X172166666Y-81582438D02*
X172214285Y-81630057D01*
X172214285Y-81630057D02*
X172261904Y-81725295D01*
X172261904Y-81725295D02*
X172261904Y-81820533D01*
X172261904Y-81820533D02*
X172214285Y-81963390D01*
X172214285Y-81963390D02*
X171642857Y-82534819D01*
X171642857Y-82534819D02*
X172261904Y-82534819D01*
X216484761Y-45550057D02*
X216389523Y-45502438D01*
X216389523Y-45502438D02*
X216294285Y-45407200D01*
X216294285Y-45407200D02*
X216151428Y-45264342D01*
X216151428Y-45264342D02*
X216056190Y-45216723D01*
X216056190Y-45216723D02*
X215960952Y-45216723D01*
X216008571Y-45454819D02*
X215913333Y-45407200D01*
X215913333Y-45407200D02*
X215818095Y-45311961D01*
X215818095Y-45311961D02*
X215770476Y-45121485D01*
X215770476Y-45121485D02*
X215770476Y-44788152D01*
X215770476Y-44788152D02*
X215818095Y-44597676D01*
X215818095Y-44597676D02*
X215913333Y-44502438D01*
X215913333Y-44502438D02*
X216008571Y-44454819D01*
X216008571Y-44454819D02*
X216199047Y-44454819D01*
X216199047Y-44454819D02*
X216294285Y-44502438D01*
X216294285Y-44502438D02*
X216389523Y-44597676D01*
X216389523Y-44597676D02*
X216437142Y-44788152D01*
X216437142Y-44788152D02*
X216437142Y-45121485D01*
X216437142Y-45121485D02*
X216389523Y-45311961D01*
X216389523Y-45311961D02*
X216294285Y-45407200D01*
X216294285Y-45407200D02*
X216199047Y-45454819D01*
X216199047Y-45454819D02*
X216008571Y-45454819D01*
X216818095Y-44550057D02*
X216865714Y-44502438D01*
X216865714Y-44502438D02*
X216960952Y-44454819D01*
X216960952Y-44454819D02*
X217199047Y-44454819D01*
X217199047Y-44454819D02*
X217294285Y-44502438D01*
X217294285Y-44502438D02*
X217341904Y-44550057D01*
X217341904Y-44550057D02*
X217389523Y-44645295D01*
X217389523Y-44645295D02*
X217389523Y-44740533D01*
X217389523Y-44740533D02*
X217341904Y-44883390D01*
X217341904Y-44883390D02*
X216770476Y-45454819D01*
X216770476Y-45454819D02*
X217389523Y-45454819D01*
D13*
X173576667Y-128304318D02*
X173576667Y-129211461D01*
X173576667Y-129211461D02*
X173516190Y-129392889D01*
X173516190Y-129392889D02*
X173395238Y-129513842D01*
X173395238Y-129513842D02*
X173213809Y-129574318D01*
X173213809Y-129574318D02*
X173092857Y-129574318D01*
X174725714Y-128727651D02*
X174725714Y-129574318D01*
X174423333Y-128243842D02*
X174120952Y-129150984D01*
X174120952Y-129150984D02*
X174907143Y-129150984D01*
D14*
X219357142Y-82454819D02*
X219023809Y-81978628D01*
X218785714Y-82454819D02*
X218785714Y-81454819D01*
X218785714Y-81454819D02*
X219166666Y-81454819D01*
X219166666Y-81454819D02*
X219261904Y-81502438D01*
X219261904Y-81502438D02*
X219309523Y-81550057D01*
X219309523Y-81550057D02*
X219357142Y-81645295D01*
X219357142Y-81645295D02*
X219357142Y-81788152D01*
X219357142Y-81788152D02*
X219309523Y-81883390D01*
X219309523Y-81883390D02*
X219261904Y-81931009D01*
X219261904Y-81931009D02*
X219166666Y-81978628D01*
X219166666Y-81978628D02*
X218785714Y-81978628D01*
X220309523Y-82454819D02*
X219738095Y-82454819D01*
X220023809Y-82454819D02*
X220023809Y-81454819D01*
X220023809Y-81454819D02*
X219928571Y-81597676D01*
X219928571Y-81597676D02*
X219833333Y-81692914D01*
X219833333Y-81692914D02*
X219738095Y-81740533D01*
X220880952Y-81883390D02*
X220785714Y-81835771D01*
X220785714Y-81835771D02*
X220738095Y-81788152D01*
X220738095Y-81788152D02*
X220690476Y-81692914D01*
X220690476Y-81692914D02*
X220690476Y-81645295D01*
X220690476Y-81645295D02*
X220738095Y-81550057D01*
X220738095Y-81550057D02*
X220785714Y-81502438D01*
X220785714Y-81502438D02*
X220880952Y-81454819D01*
X220880952Y-81454819D02*
X221071428Y-81454819D01*
X221071428Y-81454819D02*
X221166666Y-81502438D01*
X221166666Y-81502438D02*
X221214285Y-81550057D01*
X221214285Y-81550057D02*
X221261904Y-81645295D01*
X221261904Y-81645295D02*
X221261904Y-81692914D01*
X221261904Y-81692914D02*
X221214285Y-81788152D01*
X221214285Y-81788152D02*
X221166666Y-81835771D01*
X221166666Y-81835771D02*
X221071428Y-81883390D01*
X221071428Y-81883390D02*
X220880952Y-81883390D01*
X220880952Y-81883390D02*
X220785714Y-81931009D01*
X220785714Y-81931009D02*
X220738095Y-81978628D01*
X220738095Y-81978628D02*
X220690476Y-82073866D01*
X220690476Y-82073866D02*
X220690476Y-82264342D01*
X220690476Y-82264342D02*
X220738095Y-82359580D01*
X220738095Y-82359580D02*
X220785714Y-82407200D01*
X220785714Y-82407200D02*
X220880952Y-82454819D01*
X220880952Y-82454819D02*
X221071428Y-82454819D01*
X221071428Y-82454819D02*
X221166666Y-82407200D01*
X221166666Y-82407200D02*
X221214285Y-82359580D01*
X221214285Y-82359580D02*
X221261904Y-82264342D01*
X221261904Y-82264342D02*
X221261904Y-82073866D01*
X221261904Y-82073866D02*
X221214285Y-81978628D01*
X221214285Y-81978628D02*
X221166666Y-81931009D01*
X221166666Y-81931009D02*
X221071428Y-81883390D01*
D13*
X42276667Y-103304318D02*
X42276667Y-104211461D01*
X42276667Y-104211461D02*
X42216190Y-104392889D01*
X42216190Y-104392889D02*
X42095238Y-104513842D01*
X42095238Y-104513842D02*
X41913809Y-104574318D01*
X41913809Y-104574318D02*
X41792857Y-104574318D01*
X43546667Y-104574318D02*
X42820952Y-104574318D01*
X43183809Y-104574318D02*
X43183809Y-103304318D01*
X43183809Y-103304318D02*
X43062857Y-103485746D01*
X43062857Y-103485746D02*
X42941905Y-103606699D01*
X42941905Y-103606699D02*
X42820952Y-103667175D01*
D14*
X174357142Y-82454819D02*
X174023809Y-81978628D01*
X173785714Y-82454819D02*
X173785714Y-81454819D01*
X173785714Y-81454819D02*
X174166666Y-81454819D01*
X174166666Y-81454819D02*
X174261904Y-81502438D01*
X174261904Y-81502438D02*
X174309523Y-81550057D01*
X174309523Y-81550057D02*
X174357142Y-81645295D01*
X174357142Y-81645295D02*
X174357142Y-81788152D01*
X174357142Y-81788152D02*
X174309523Y-81883390D01*
X174309523Y-81883390D02*
X174261904Y-81931009D01*
X174261904Y-81931009D02*
X174166666Y-81978628D01*
X174166666Y-81978628D02*
X173785714Y-81978628D01*
X175309523Y-82454819D02*
X174738095Y-82454819D01*
X175023809Y-82454819D02*
X175023809Y-81454819D01*
X175023809Y-81454819D02*
X174928571Y-81597676D01*
X174928571Y-81597676D02*
X174833333Y-81692914D01*
X174833333Y-81692914D02*
X174738095Y-81740533D01*
X176166666Y-81454819D02*
X175976190Y-81454819D01*
X175976190Y-81454819D02*
X175880952Y-81502438D01*
X175880952Y-81502438D02*
X175833333Y-81550057D01*
X175833333Y-81550057D02*
X175738095Y-81692914D01*
X175738095Y-81692914D02*
X175690476Y-81883390D01*
X175690476Y-81883390D02*
X175690476Y-82264342D01*
X175690476Y-82264342D02*
X175738095Y-82359580D01*
X175738095Y-82359580D02*
X175785714Y-82407200D01*
X175785714Y-82407200D02*
X175880952Y-82454819D01*
X175880952Y-82454819D02*
X176071428Y-82454819D01*
X176071428Y-82454819D02*
X176166666Y-82407200D01*
X176166666Y-82407200D02*
X176214285Y-82359580D01*
X176214285Y-82359580D02*
X176261904Y-82264342D01*
X176261904Y-82264342D02*
X176261904Y-82026247D01*
X176261904Y-82026247D02*
X176214285Y-81931009D01*
X176214285Y-81931009D02*
X176166666Y-81883390D01*
X176166666Y-81883390D02*
X176071428Y-81835771D01*
X176071428Y-81835771D02*
X175880952Y-81835771D01*
X175880952Y-81835771D02*
X175785714Y-81883390D01*
X175785714Y-81883390D02*
X175738095Y-81931009D01*
X175738095Y-81931009D02*
X175690476Y-82026247D01*
X146357142Y-82534819D02*
X146023809Y-82058628D01*
X145785714Y-82534819D02*
X145785714Y-81534819D01*
X145785714Y-81534819D02*
X146166666Y-81534819D01*
X146166666Y-81534819D02*
X146261904Y-81582438D01*
X146261904Y-81582438D02*
X146309523Y-81630057D01*
X146309523Y-81630057D02*
X146357142Y-81725295D01*
X146357142Y-81725295D02*
X146357142Y-81868152D01*
X146357142Y-81868152D02*
X146309523Y-81963390D01*
X146309523Y-81963390D02*
X146261904Y-82011009D01*
X146261904Y-82011009D02*
X146166666Y-82058628D01*
X146166666Y-82058628D02*
X145785714Y-82058628D01*
X146738095Y-81630057D02*
X146785714Y-81582438D01*
X146785714Y-81582438D02*
X146880952Y-81534819D01*
X146880952Y-81534819D02*
X147119047Y-81534819D01*
X147119047Y-81534819D02*
X147214285Y-81582438D01*
X147214285Y-81582438D02*
X147261904Y-81630057D01*
X147261904Y-81630057D02*
X147309523Y-81725295D01*
X147309523Y-81725295D02*
X147309523Y-81820533D01*
X147309523Y-81820533D02*
X147261904Y-81963390D01*
X147261904Y-81963390D02*
X146690476Y-82534819D01*
X146690476Y-82534819D02*
X147309523Y-82534819D01*
X148214285Y-81534819D02*
X147738095Y-81534819D01*
X147738095Y-81534819D02*
X147690476Y-82011009D01*
X147690476Y-82011009D02*
X147738095Y-81963390D01*
X147738095Y-81963390D02*
X147833333Y-81915771D01*
X147833333Y-81915771D02*
X148071428Y-81915771D01*
X148071428Y-81915771D02*
X148166666Y-81963390D01*
X148166666Y-81963390D02*
X148214285Y-82011009D01*
X148214285Y-82011009D02*
X148261904Y-82106247D01*
X148261904Y-82106247D02*
X148261904Y-82344342D01*
X148261904Y-82344342D02*
X148214285Y-82439580D01*
X148214285Y-82439580D02*
X148166666Y-82487200D01*
X148166666Y-82487200D02*
X148071428Y-82534819D01*
X148071428Y-82534819D02*
X147833333Y-82534819D01*
X147833333Y-82534819D02*
X147738095Y-82487200D01*
X147738095Y-82487200D02*
X147690476Y-82439580D01*
D13*
X98916667Y-26804318D02*
X98916667Y-27711461D01*
X98916667Y-27711461D02*
X98856190Y-27892889D01*
X98856190Y-27892889D02*
X98735238Y-28013842D01*
X98735238Y-28013842D02*
X98553809Y-28074318D01*
X98553809Y-28074318D02*
X98432857Y-28074318D01*
X99400476Y-26804318D02*
X100186667Y-26804318D01*
X100186667Y-26804318D02*
X99763333Y-27288127D01*
X99763333Y-27288127D02*
X99944762Y-27288127D01*
X99944762Y-27288127D02*
X100065714Y-27348603D01*
X100065714Y-27348603D02*
X100126190Y-27409080D01*
X100126190Y-27409080D02*
X100186667Y-27530032D01*
X100186667Y-27530032D02*
X100186667Y-27832413D01*
X100186667Y-27832413D02*
X100126190Y-27953365D01*
X100126190Y-27953365D02*
X100065714Y-28013842D01*
X100065714Y-28013842D02*
X99944762Y-28074318D01*
X99944762Y-28074318D02*
X99581905Y-28074318D01*
X99581905Y-28074318D02*
X99460952Y-28013842D01*
X99460952Y-28013842D02*
X99400476Y-27953365D01*
D14*
X194753333Y-33359580D02*
X194705714Y-33407200D01*
X194705714Y-33407200D02*
X194562857Y-33454819D01*
X194562857Y-33454819D02*
X194467619Y-33454819D01*
X194467619Y-33454819D02*
X194324762Y-33407200D01*
X194324762Y-33407200D02*
X194229524Y-33311961D01*
X194229524Y-33311961D02*
X194181905Y-33216723D01*
X194181905Y-33216723D02*
X194134286Y-33026247D01*
X194134286Y-33026247D02*
X194134286Y-32883390D01*
X194134286Y-32883390D02*
X194181905Y-32692914D01*
X194181905Y-32692914D02*
X194229524Y-32597676D01*
X194229524Y-32597676D02*
X194324762Y-32502438D01*
X194324762Y-32502438D02*
X194467619Y-32454819D01*
X194467619Y-32454819D02*
X194562857Y-32454819D01*
X194562857Y-32454819D02*
X194705714Y-32502438D01*
X194705714Y-32502438D02*
X194753333Y-32550057D01*
X195086667Y-32454819D02*
X195705714Y-32454819D01*
X195705714Y-32454819D02*
X195372381Y-32835771D01*
X195372381Y-32835771D02*
X195515238Y-32835771D01*
X195515238Y-32835771D02*
X195610476Y-32883390D01*
X195610476Y-32883390D02*
X195658095Y-32931009D01*
X195658095Y-32931009D02*
X195705714Y-33026247D01*
X195705714Y-33026247D02*
X195705714Y-33264342D01*
X195705714Y-33264342D02*
X195658095Y-33359580D01*
X195658095Y-33359580D02*
X195610476Y-33407200D01*
X195610476Y-33407200D02*
X195515238Y-33454819D01*
X195515238Y-33454819D02*
X195229524Y-33454819D01*
X195229524Y-33454819D02*
X195134286Y-33407200D01*
X195134286Y-33407200D02*
X195086667Y-33359580D01*
D13*
X40826905Y-121029318D02*
X40826905Y-121936461D01*
X40826905Y-121936461D02*
X40766428Y-122117889D01*
X40766428Y-122117889D02*
X40645476Y-122238842D01*
X40645476Y-122238842D02*
X40464047Y-122299318D01*
X40464047Y-122299318D02*
X40343095Y-122299318D01*
X42096905Y-122299318D02*
X41371190Y-122299318D01*
X41734047Y-122299318D02*
X41734047Y-121029318D01*
X41734047Y-121029318D02*
X41613095Y-121210746D01*
X41613095Y-121210746D02*
X41492143Y-121331699D01*
X41492143Y-121331699D02*
X41371190Y-121392175D01*
X42883095Y-121029318D02*
X43004048Y-121029318D01*
X43004048Y-121029318D02*
X43125000Y-121089794D01*
X43125000Y-121089794D02*
X43185476Y-121150270D01*
X43185476Y-121150270D02*
X43245952Y-121271222D01*
X43245952Y-121271222D02*
X43306429Y-121513127D01*
X43306429Y-121513127D02*
X43306429Y-121815508D01*
X43306429Y-121815508D02*
X43245952Y-122057413D01*
X43245952Y-122057413D02*
X43185476Y-122178365D01*
X43185476Y-122178365D02*
X43125000Y-122238842D01*
X43125000Y-122238842D02*
X43004048Y-122299318D01*
X43004048Y-122299318D02*
X42883095Y-122299318D01*
X42883095Y-122299318D02*
X42762143Y-122238842D01*
X42762143Y-122238842D02*
X42701667Y-122178365D01*
X42701667Y-122178365D02*
X42641190Y-122057413D01*
X42641190Y-122057413D02*
X42580714Y-121815508D01*
X42580714Y-121815508D02*
X42580714Y-121513127D01*
X42580714Y-121513127D02*
X42641190Y-121271222D01*
X42641190Y-121271222D02*
X42701667Y-121150270D01*
X42701667Y-121150270D02*
X42762143Y-121089794D01*
X42762143Y-121089794D02*
X42883095Y-121029318D01*
D14*
X151357142Y-82454819D02*
X151023809Y-81978628D01*
X150785714Y-82454819D02*
X150785714Y-81454819D01*
X150785714Y-81454819D02*
X151166666Y-81454819D01*
X151166666Y-81454819D02*
X151261904Y-81502438D01*
X151261904Y-81502438D02*
X151309523Y-81550057D01*
X151309523Y-81550057D02*
X151357142Y-81645295D01*
X151357142Y-81645295D02*
X151357142Y-81788152D01*
X151357142Y-81788152D02*
X151309523Y-81883390D01*
X151309523Y-81883390D02*
X151261904Y-81931009D01*
X151261904Y-81931009D02*
X151166666Y-81978628D01*
X151166666Y-81978628D02*
X150785714Y-81978628D01*
X151738095Y-81550057D02*
X151785714Y-81502438D01*
X151785714Y-81502438D02*
X151880952Y-81454819D01*
X151880952Y-81454819D02*
X152119047Y-81454819D01*
X152119047Y-81454819D02*
X152214285Y-81502438D01*
X152214285Y-81502438D02*
X152261904Y-81550057D01*
X152261904Y-81550057D02*
X152309523Y-81645295D01*
X152309523Y-81645295D02*
X152309523Y-81740533D01*
X152309523Y-81740533D02*
X152261904Y-81883390D01*
X152261904Y-81883390D02*
X151690476Y-82454819D01*
X151690476Y-82454819D02*
X152309523Y-82454819D01*
X152642857Y-81454819D02*
X153309523Y-81454819D01*
X153309523Y-81454819D02*
X152880952Y-82454819D01*
D13*
X42276667Y-78304318D02*
X42276667Y-79211461D01*
X42276667Y-79211461D02*
X42216190Y-79392889D01*
X42216190Y-79392889D02*
X42095238Y-79513842D01*
X42095238Y-79513842D02*
X41913809Y-79574318D01*
X41913809Y-79574318D02*
X41792857Y-79574318D01*
X43425714Y-78304318D02*
X43183809Y-78304318D01*
X43183809Y-78304318D02*
X43062857Y-78364794D01*
X43062857Y-78364794D02*
X43002381Y-78425270D01*
X43002381Y-78425270D02*
X42881428Y-78606699D01*
X42881428Y-78606699D02*
X42820952Y-78848603D01*
X42820952Y-78848603D02*
X42820952Y-79332413D01*
X42820952Y-79332413D02*
X42881428Y-79453365D01*
X42881428Y-79453365D02*
X42941905Y-79513842D01*
X42941905Y-79513842D02*
X43062857Y-79574318D01*
X43062857Y-79574318D02*
X43304762Y-79574318D01*
X43304762Y-79574318D02*
X43425714Y-79513842D01*
X43425714Y-79513842D02*
X43486190Y-79453365D01*
X43486190Y-79453365D02*
X43546667Y-79332413D01*
X43546667Y-79332413D02*
X43546667Y-79030032D01*
X43546667Y-79030032D02*
X43486190Y-78909080D01*
X43486190Y-78909080D02*
X43425714Y-78848603D01*
X43425714Y-78848603D02*
X43304762Y-78788127D01*
X43304762Y-78788127D02*
X43062857Y-78788127D01*
X43062857Y-78788127D02*
X42941905Y-78848603D01*
X42941905Y-78848603D02*
X42881428Y-78909080D01*
X42881428Y-78909080D02*
X42820952Y-79030032D01*
D14*
X215357142Y-82454819D02*
X215023809Y-81978628D01*
X214785714Y-82454819D02*
X214785714Y-81454819D01*
X214785714Y-81454819D02*
X215166666Y-81454819D01*
X215166666Y-81454819D02*
X215261904Y-81502438D01*
X215261904Y-81502438D02*
X215309523Y-81550057D01*
X215309523Y-81550057D02*
X215357142Y-81645295D01*
X215357142Y-81645295D02*
X215357142Y-81788152D01*
X215357142Y-81788152D02*
X215309523Y-81883390D01*
X215309523Y-81883390D02*
X215261904Y-81931009D01*
X215261904Y-81931009D02*
X215166666Y-81978628D01*
X215166666Y-81978628D02*
X214785714Y-81978628D01*
X216309523Y-82454819D02*
X215738095Y-82454819D01*
X216023809Y-82454819D02*
X216023809Y-81454819D01*
X216023809Y-81454819D02*
X215928571Y-81597676D01*
X215928571Y-81597676D02*
X215833333Y-81692914D01*
X215833333Y-81692914D02*
X215738095Y-81740533D01*
X216785714Y-82454819D02*
X216976190Y-82454819D01*
X216976190Y-82454819D02*
X217071428Y-82407200D01*
X217071428Y-82407200D02*
X217119047Y-82359580D01*
X217119047Y-82359580D02*
X217214285Y-82216723D01*
X217214285Y-82216723D02*
X217261904Y-82026247D01*
X217261904Y-82026247D02*
X217261904Y-81645295D01*
X217261904Y-81645295D02*
X217214285Y-81550057D01*
X217214285Y-81550057D02*
X217166666Y-81502438D01*
X217166666Y-81502438D02*
X217071428Y-81454819D01*
X217071428Y-81454819D02*
X216880952Y-81454819D01*
X216880952Y-81454819D02*
X216785714Y-81502438D01*
X216785714Y-81502438D02*
X216738095Y-81550057D01*
X216738095Y-81550057D02*
X216690476Y-81645295D01*
X216690476Y-81645295D02*
X216690476Y-81883390D01*
X216690476Y-81883390D02*
X216738095Y-81978628D01*
X216738095Y-81978628D02*
X216785714Y-82026247D01*
X216785714Y-82026247D02*
X216880952Y-82073866D01*
X216880952Y-82073866D02*
X217071428Y-82073866D01*
X217071428Y-82073866D02*
X217166666Y-82026247D01*
X217166666Y-82026247D02*
X217214285Y-81978628D01*
X217214285Y-81978628D02*
X217261904Y-81883390D01*
D15*
X56100000Y-101000000D02*
X56100000Y-101000000D01*
X56200000Y-101000000D02*
X56200000Y-101000000D01*
D11*
X56650000Y-96700000D02*
X56650000Y-106700000D01*
X56650000Y-106700000D02*
X74750000Y-106700000D01*
X74750000Y-96700000D02*
X56650000Y-96700000D01*
X74750000Y-106700000D02*
X74750000Y-96700000D01*
D15*
X56100000Y-101000000D02*
G75*
G02*
X56200000Y-101000000I50000J0D01*
G01*
X56200000Y-101000000D02*
G75*
G02*
X56100000Y-101000000I-50000J0D01*
G01*
D16*
X181698000Y-33657500D02*
X181698000Y-34899560D01*
X181698000Y-36860440D02*
X181698000Y-37581431D01*
X181698000Y-39258569D02*
X181698000Y-40121431D01*
X181698000Y-41798569D02*
X181698000Y-42661431D01*
X181698000Y-44338569D02*
X181698000Y-45201431D01*
X181698000Y-46878569D02*
X181698000Y-47741431D01*
X181698000Y-49418569D02*
X181698000Y-50281431D01*
X181698000Y-51958569D02*
X181698000Y-53342500D01*
X181698000Y-53342500D02*
X188302000Y-53342500D01*
X188302000Y-33657500D02*
X181698000Y-33657500D01*
X188302000Y-35041431D02*
X188302000Y-33657500D01*
X188302000Y-37581431D02*
X188302000Y-36718569D01*
X188302000Y-40121431D02*
X188302000Y-39258569D01*
X188302000Y-42661431D02*
X188302000Y-41798569D01*
X188302000Y-45201431D02*
X188302000Y-44338569D01*
X188302000Y-47741431D02*
X188302000Y-46878569D01*
X188302000Y-50281431D02*
X188302000Y-49418569D01*
X188302000Y-53342500D02*
X188302000Y-51958569D01*
X185304800Y-33657500D02*
G75*
G02*
X184695200Y-33657500I-304800J0D01*
G01*
D17*
X190630000Y-71650000D02*
X190630000Y-78190000D01*
X190630000Y-78190000D02*
X193370000Y-78190000D01*
X192000000Y-70880000D02*
X192000000Y-71650000D01*
X192000000Y-78960000D02*
X192000000Y-78190000D01*
X193370000Y-71650000D02*
X190630000Y-71650000D01*
X193370000Y-78190000D02*
X193370000Y-71650000D01*
X177630000Y-71650000D02*
X177630000Y-78190000D01*
X177630000Y-78190000D02*
X180370000Y-78190000D01*
X179000000Y-70880000D02*
X179000000Y-71650000D01*
X179000000Y-78960000D02*
X179000000Y-78190000D01*
X180370000Y-71650000D02*
X177630000Y-71650000D01*
X180370000Y-78190000D02*
X180370000Y-71650000D01*
X87015000Y-117015000D02*
X100985000Y-117015000D01*
X87015000Y-130985000D02*
X87015000Y-117015000D01*
X100985000Y-117015000D02*
X100985000Y-130985000D01*
X100985000Y-130985000D02*
X87015000Y-130985000D01*
X160680000Y-59650000D02*
X157080000Y-59650000D01*
X156555816Y-60377205D02*
G75*
G02*
X157080000Y-59650000I2324184J-1122795D01*
G01*
X158880000Y-64100000D02*
G75*
G02*
X156523600Y-62598807I0J2600000D01*
G01*
X160680000Y-59650000D02*
G75*
G02*
X161204184Y-60377205I-1800000J-1850000D01*
G01*
X161236400Y-62598807D02*
G75*
G02*
X158880000Y-64100000I-2356400J1098807D01*
G01*
X209820000Y-63850000D02*
X213420000Y-63850000D01*
X209263600Y-60901193D02*
G75*
G02*
X211620000Y-59400000I2356400J-1098807D01*
G01*
X209820000Y-63850000D02*
G75*
G02*
X209295816Y-63122795I1800000J1850000D01*
G01*
X211620000Y-59400000D02*
G75*
G02*
X213976400Y-60901193I0J-2600000D01*
G01*
X213944184Y-63122795D02*
G75*
G02*
X213420000Y-63850000I-2324184J1122795D01*
G01*
X199960000Y-38500000D02*
X200730000Y-38500000D01*
X200730000Y-37130000D02*
X200730000Y-39870000D01*
X200730000Y-39870000D02*
X207270000Y-39870000D01*
X207270000Y-37130000D02*
X200730000Y-37130000D01*
X207270000Y-39870000D02*
X207270000Y-37130000D01*
X208040000Y-38500000D02*
X207270000Y-38500000D01*
X155630000Y-71650000D02*
X155630000Y-78190000D01*
X155630000Y-78190000D02*
X158370000Y-78190000D01*
X157000000Y-70880000D02*
X157000000Y-71650000D01*
X157000000Y-78960000D02*
X157000000Y-78190000D01*
X158370000Y-71650000D02*
X155630000Y-71650000D01*
X158370000Y-78190000D02*
X158370000Y-71650000D01*
D15*
X56100000Y-119000000D02*
X56100000Y-119000000D01*
X56200000Y-119000000D02*
X56200000Y-119000000D01*
D11*
X57170000Y-111050000D02*
X73670000Y-111050000D01*
X57170000Y-132400000D02*
X57170000Y-111050000D01*
X73670000Y-111050000D02*
X73670000Y-132400000D01*
X73670000Y-132400000D02*
X57170000Y-132400000D01*
D15*
X56100000Y-119000000D02*
G75*
G02*
X56200000Y-119000000I50000J0D01*
G01*
X56200000Y-119000000D02*
G75*
G02*
X56100000Y-119000000I-50000J0D01*
G01*
D17*
X155090000Y-33660000D02*
X156420000Y-33660000D01*
X155090000Y-34990000D02*
X155090000Y-33660000D01*
X155090000Y-36260000D02*
X155090000Y-38860000D01*
X155090000Y-36260000D02*
X157750000Y-36260000D01*
X155090000Y-38860000D02*
X157750000Y-38860000D01*
X157750000Y-36260000D02*
X157750000Y-38860000D01*
X195960000Y-61000000D02*
X196730000Y-61000000D01*
X196730000Y-59630000D02*
X196730000Y-62370000D01*
X196730000Y-62370000D02*
X203270000Y-62370000D01*
X203270000Y-59630000D02*
X196730000Y-59630000D01*
X203270000Y-62370000D02*
X203270000Y-59630000D01*
X204040000Y-61000000D02*
X203270000Y-61000000D01*
X202630000Y-71650000D02*
X202630000Y-78190000D01*
X202630000Y-78190000D02*
X205370000Y-78190000D01*
X204000000Y-70880000D02*
X204000000Y-71650000D01*
X204000000Y-78960000D02*
X204000000Y-78190000D01*
X205370000Y-71650000D02*
X202630000Y-71650000D01*
X205370000Y-78190000D02*
X205370000Y-71650000D01*
X140630000Y-71650000D02*
X140630000Y-78190000D01*
X140630000Y-78190000D02*
X143370000Y-78190000D01*
X142000000Y-70880000D02*
X142000000Y-71650000D01*
X142000000Y-78960000D02*
X142000000Y-78190000D01*
X143370000Y-71650000D02*
X140630000Y-71650000D01*
X143370000Y-78190000D02*
X143370000Y-71650000D01*
X173800000Y-50330000D02*
X173800000Y-55170000D01*
X177040000Y-50330000D02*
X173800000Y-50330000D01*
X177040000Y-50330000D02*
X177040000Y-55170000D01*
X177040000Y-55170000D02*
X173800000Y-55170000D01*
X206630000Y-71650000D02*
X206630000Y-78190000D01*
X206630000Y-78190000D02*
X209370000Y-78190000D01*
X208000000Y-70880000D02*
X208000000Y-71650000D01*
X208000000Y-78960000D02*
X208000000Y-78190000D01*
X209370000Y-71650000D02*
X206630000Y-71650000D01*
X209370000Y-78190000D02*
X209370000Y-71650000D01*
X212590000Y-50670000D02*
X213920000Y-50670000D01*
X212590000Y-52000000D02*
X212590000Y-50670000D01*
X212590000Y-53270000D02*
X212590000Y-55870000D01*
X212590000Y-53270000D02*
X215250000Y-53270000D01*
X212590000Y-55870000D02*
X215250000Y-55870000D01*
X215250000Y-53270000D02*
X215250000Y-55870000D01*
X193300000Y-50830000D02*
X193300000Y-55670000D01*
X196540000Y-50830000D02*
X193300000Y-50830000D01*
X196540000Y-50830000D02*
X196540000Y-55670000D01*
X196540000Y-55670000D02*
X193300000Y-55670000D01*
X112630000Y-96764000D02*
X112630000Y-96920000D01*
X112630000Y-99080000D02*
X112630000Y-99236000D01*
X112630000Y-96764484D02*
G75*
G02*
X115862335Y-96921392I1560000J-1235516D01*
G01*
X113149039Y-96920000D02*
G75*
G02*
X115231130Y-96920163I1040961J-1080000D01*
G01*
X115231130Y-99079837D02*
G75*
G02*
X113149039Y-99080000I-1041130J1079837D01*
G01*
X115862335Y-99078608D02*
G75*
G02*
X112630000Y-99235516I-1672335J1078608D01*
G01*
X166960000Y-61000000D02*
X167730000Y-61000000D01*
X167730000Y-59630000D02*
X167730000Y-62370000D01*
X167730000Y-62370000D02*
X174270000Y-62370000D01*
X174270000Y-59630000D02*
X167730000Y-59630000D01*
X174270000Y-62370000D02*
X174270000Y-59630000D01*
X175040000Y-61000000D02*
X174270000Y-61000000D01*
X168670000Y-112540000D02*
X168670000Y-114190000D01*
X168670000Y-116190000D02*
X168670000Y-117840000D01*
X168670000Y-117840000D02*
X178950000Y-117840000D01*
X178950000Y-112540000D02*
X168670000Y-112540000D01*
X178950000Y-117840000D02*
X178950000Y-112540000D01*
X168670000Y-114190000D02*
G75*
G02*
X168670000Y-116190000I0J-1000000D01*
G01*
X123700000Y-55309000D02*
X123700000Y-56549000D01*
X123940000Y-55549000D02*
X123940000Y-67270000D01*
X124940000Y-55309000D02*
X123700000Y-55309000D01*
X132560000Y-55549000D02*
X123940000Y-55549000D01*
X132560000Y-55549000D02*
X132560000Y-67270000D01*
X132560000Y-67270000D02*
X123940000Y-67270000D01*
D15*
X33100000Y-51000000D02*
X33100000Y-51000000D01*
X33200000Y-51000000D02*
X33200000Y-51000000D01*
D11*
X33650000Y-46700000D02*
X33650000Y-56700000D01*
X33650000Y-56700000D02*
X51750000Y-56700000D01*
X51750000Y-46700000D02*
X33650000Y-46700000D01*
X51750000Y-56700000D02*
X51750000Y-46700000D01*
D15*
X33100000Y-51000000D02*
G75*
G02*
X33200000Y-51000000I50000J0D01*
G01*
X33200000Y-51000000D02*
G75*
G02*
X33100000Y-51000000I-50000J0D01*
G01*
D17*
X162460000Y-55500000D02*
X163230000Y-55500000D01*
X163230000Y-54130000D02*
X163230000Y-56870000D01*
X163230000Y-56870000D02*
X169770000Y-56870000D01*
X169770000Y-54130000D02*
X163230000Y-54130000D01*
X169770000Y-56870000D02*
X169770000Y-54130000D01*
X170540000Y-55500000D02*
X169770000Y-55500000D01*
X152630000Y-96764000D02*
X152630000Y-96920000D01*
X152630000Y-99080000D02*
X152630000Y-99236000D01*
X152630000Y-96764484D02*
G75*
G02*
X155862335Y-96921392I1560000J-1235516D01*
G01*
X153149039Y-96920000D02*
G75*
G02*
X155231130Y-96920163I1040961J-1080000D01*
G01*
X155231130Y-99079837D02*
G75*
G02*
X153149039Y-99080000I-1041130J1079837D01*
G01*
X155862335Y-99078608D02*
G75*
G02*
X152630000Y-99235516I-1672335J1078608D01*
G01*
X155090000Y-50655000D02*
X156420000Y-50655000D01*
X155090000Y-51985000D02*
X155090000Y-50655000D01*
X155090000Y-53255000D02*
X155090000Y-55855000D01*
X155090000Y-53255000D02*
X157750000Y-53255000D01*
X155090000Y-55855000D02*
X157750000Y-55855000D01*
X157750000Y-53255000D02*
X157750000Y-55855000D01*
X199960000Y-34500000D02*
X200730000Y-34500000D01*
X200730000Y-33130000D02*
X200730000Y-35870000D01*
X200730000Y-35870000D02*
X207270000Y-35870000D01*
X207270000Y-33130000D02*
X200730000Y-33130000D01*
X207270000Y-35870000D02*
X207270000Y-33130000D01*
X208040000Y-34500000D02*
X207270000Y-34500000D01*
X204920000Y-111170000D02*
X204764000Y-111170000D01*
X207236000Y-111170000D02*
X207080000Y-111170000D01*
X204920163Y-113771130D02*
G75*
G02*
X204920000Y-111689039I1079837J1041130D01*
G01*
X204921392Y-114402335D02*
G75*
G02*
X204764484Y-111170000I1078608J1672335D01*
G01*
X207080000Y-111689039D02*
G75*
G02*
X207079837Y-113771130I-1080000J-1040961D01*
G01*
X207235516Y-111170000D02*
G75*
G02*
X207078608Y-114402335I-1235516J-1560000D01*
G01*
X209920000Y-111170000D02*
X209764000Y-111170000D01*
X212236000Y-111170000D02*
X212080000Y-111170000D01*
X209920163Y-113771130D02*
G75*
G02*
X209920000Y-111689039I1079837J1041130D01*
G01*
X209921392Y-114402335D02*
G75*
G02*
X209764484Y-111170000I1078608J1672335D01*
G01*
X212080000Y-111689039D02*
G75*
G02*
X212079837Y-113771130I-1080000J-1040961D01*
G01*
X212235516Y-111170000D02*
G75*
G02*
X212078608Y-114402335I-1235516J-1560000D01*
G01*
X166800000Y-44500000D02*
X167570000Y-44500000D01*
X167570000Y-43130000D02*
X167570000Y-45870000D01*
X167570000Y-45870000D02*
X174110000Y-45870000D01*
X174110000Y-43130000D02*
X167570000Y-43130000D01*
X174110000Y-45870000D02*
X174110000Y-43130000D01*
X174880000Y-44500000D02*
X174110000Y-44500000D01*
X194630000Y-71650000D02*
X194630000Y-78190000D01*
X194630000Y-78190000D02*
X197370000Y-78190000D01*
X196000000Y-70880000D02*
X196000000Y-71650000D01*
X196000000Y-78960000D02*
X196000000Y-78190000D01*
X197370000Y-71650000D02*
X194630000Y-71650000D01*
X197370000Y-78190000D02*
X197370000Y-71650000D01*
X162460000Y-51525000D02*
X163230000Y-51525000D01*
X163230000Y-50155000D02*
X163230000Y-52895000D01*
X163230000Y-52895000D02*
X169770000Y-52895000D01*
X169770000Y-50155000D02*
X163230000Y-50155000D01*
X169770000Y-52895000D02*
X169770000Y-50155000D01*
X170540000Y-51525000D02*
X169770000Y-51525000D01*
X199960000Y-51500000D02*
X200730000Y-51500000D01*
X200730000Y-50130000D02*
X200730000Y-52870000D01*
X200730000Y-52870000D02*
X207270000Y-52870000D01*
X207270000Y-50130000D02*
X200730000Y-50130000D01*
X207270000Y-52870000D02*
X207270000Y-50130000D01*
X208040000Y-51500000D02*
X207270000Y-51500000D01*
X181630000Y-71650000D02*
X181630000Y-78190000D01*
X181630000Y-78190000D02*
X184370000Y-78190000D01*
X183000000Y-70880000D02*
X183000000Y-71650000D01*
X183000000Y-78960000D02*
X183000000Y-78190000D01*
X184370000Y-71650000D02*
X181630000Y-71650000D01*
X184370000Y-78190000D02*
X184370000Y-71650000D01*
X173800000Y-33830000D02*
X173800000Y-38670000D01*
X177040000Y-33830000D02*
X173800000Y-33830000D01*
X177040000Y-33830000D02*
X177040000Y-38670000D01*
X177040000Y-38670000D02*
X173800000Y-38670000D01*
X123700000Y-35309000D02*
X123700000Y-36549000D01*
X123940000Y-35549000D02*
X123940000Y-47270000D01*
X124940000Y-35309000D02*
X123700000Y-35309000D01*
X132560000Y-35549000D02*
X123940000Y-35549000D01*
X132560000Y-35549000D02*
X132560000Y-47270000D01*
X132560000Y-47270000D02*
X123940000Y-47270000D01*
X160680000Y-43150000D02*
X157080000Y-43150000D01*
X156555816Y-43877205D02*
G75*
G02*
X157080000Y-43150000I2324184J-1122795D01*
G01*
X158880000Y-47600000D02*
G75*
G02*
X156523600Y-46098807I0J2600000D01*
G01*
X160680000Y-43150000D02*
G75*
G02*
X161204184Y-43877205I-1800000J-1850000D01*
G01*
X161236400Y-46098807D02*
G75*
G02*
X158880000Y-47600000I-2356400J1098807D01*
G01*
D15*
X193100000Y-126000000D02*
X193100000Y-126000000D01*
X193200000Y-126000000D02*
X193200000Y-126000000D01*
D11*
X193650000Y-121700000D02*
X193650000Y-131700000D01*
X193650000Y-131700000D02*
X212750000Y-131700000D01*
X212750000Y-121700000D02*
X193650000Y-121700000D01*
X212750000Y-131700000D02*
X212750000Y-121700000D01*
D15*
X193100000Y-126000000D02*
G75*
G02*
X193200000Y-126000000I50000J0D01*
G01*
X193200000Y-126000000D02*
G75*
G02*
X193100000Y-126000000I-50000J0D01*
G01*
D17*
X162460000Y-38500000D02*
X163230000Y-38500000D01*
X163230000Y-37130000D02*
X163230000Y-39870000D01*
X163230000Y-39870000D02*
X169770000Y-39870000D01*
X169770000Y-37130000D02*
X163230000Y-37130000D01*
X169770000Y-39870000D02*
X169770000Y-37130000D01*
X170540000Y-38500000D02*
X169770000Y-38500000D01*
X198630000Y-71650000D02*
X198630000Y-78190000D01*
X198630000Y-78190000D02*
X201370000Y-78190000D01*
X200000000Y-70880000D02*
X200000000Y-71650000D01*
X200000000Y-78960000D02*
X200000000Y-78190000D01*
X201370000Y-71650000D02*
X198630000Y-71650000D01*
X201370000Y-78190000D02*
X201370000Y-71650000D01*
X132630000Y-96764000D02*
X132630000Y-96920000D01*
X132630000Y-99080000D02*
X132630000Y-99236000D01*
X132630000Y-96764484D02*
G75*
G02*
X135862335Y-96921392I1560000J-1235516D01*
G01*
X133149039Y-96920000D02*
G75*
G02*
X135231130Y-96920163I1040961J-1080000D01*
G01*
X135231130Y-99079837D02*
G75*
G02*
X133149039Y-99080000I-1041130J1079837D01*
G01*
X135862335Y-99078608D02*
G75*
G02*
X132630000Y-99235516I-1672335J1078608D01*
G01*
X199960000Y-55500000D02*
X200730000Y-55500000D01*
X200730000Y-54130000D02*
X200730000Y-56870000D01*
X200730000Y-56870000D02*
X207270000Y-56870000D01*
X207270000Y-54130000D02*
X200730000Y-54130000D01*
X207270000Y-56870000D02*
X207270000Y-54130000D01*
X208040000Y-55500000D02*
X207270000Y-55500000D01*
X210630000Y-71650000D02*
X210630000Y-78190000D01*
X210630000Y-78190000D02*
X213370000Y-78190000D01*
X212000000Y-70880000D02*
X212000000Y-71650000D01*
X212000000Y-78960000D02*
X212000000Y-78190000D01*
X213370000Y-71650000D02*
X210630000Y-71650000D01*
X213370000Y-78190000D02*
X213370000Y-71650000D01*
X195960000Y-44000000D02*
X196730000Y-44000000D01*
X196730000Y-42630000D02*
X196730000Y-45370000D01*
X196730000Y-45370000D02*
X203270000Y-45370000D01*
X203270000Y-42630000D02*
X196730000Y-42630000D01*
X203270000Y-45370000D02*
X203270000Y-42630000D01*
X204040000Y-44000000D02*
X203270000Y-44000000D01*
X212590000Y-33170000D02*
X213920000Y-33170000D01*
X212590000Y-34500000D02*
X212590000Y-33170000D01*
X212590000Y-35770000D02*
X212590000Y-38370000D01*
X212590000Y-35770000D02*
X215250000Y-35770000D01*
X212590000Y-38370000D02*
X215250000Y-38370000D01*
X215250000Y-35770000D02*
X215250000Y-38370000D01*
X194670000Y-98540000D02*
X194670000Y-100190000D01*
X194670000Y-102190000D02*
X194670000Y-103840000D01*
X194670000Y-103840000D02*
X204950000Y-103840000D01*
X204950000Y-98540000D02*
X194670000Y-98540000D01*
X204950000Y-103840000D02*
X204950000Y-98540000D01*
X194670000Y-100190000D02*
G75*
G02*
X194670000Y-102190000I0J-1000000D01*
G01*
X92710000Y-96764000D02*
X92710000Y-96920000D01*
X92710000Y-99080000D02*
X92710000Y-99236000D01*
X92710000Y-96764484D02*
G75*
G02*
X95942335Y-96921392I1560000J-1235516D01*
G01*
X93229039Y-96920000D02*
G75*
G02*
X95311130Y-96920163I1040961J-1080000D01*
G01*
X95311130Y-99079837D02*
G75*
G02*
X93229039Y-99080000I-1041130J1079837D01*
G01*
X95942335Y-99078608D02*
G75*
G02*
X92710000Y-99235516I-1672335J1078608D01*
G01*
X162460000Y-34500000D02*
X163230000Y-34500000D01*
X163230000Y-33130000D02*
X163230000Y-35870000D01*
X163230000Y-35870000D02*
X169770000Y-35870000D01*
X169770000Y-33130000D02*
X163230000Y-33130000D01*
X169770000Y-35870000D02*
X169770000Y-33130000D01*
X170540000Y-34500000D02*
X169770000Y-34500000D01*
D15*
X56100000Y-76000000D02*
X56100000Y-76000000D01*
X56200000Y-76000000D02*
X56200000Y-76000000D01*
D11*
X56650000Y-71700000D02*
X56650000Y-81700000D01*
X56650000Y-81700000D02*
X74750000Y-81700000D01*
X74750000Y-71700000D02*
X56650000Y-71700000D01*
X74750000Y-81700000D02*
X74750000Y-71700000D01*
D15*
X56100000Y-76000000D02*
G75*
G02*
X56200000Y-76000000I50000J0D01*
G01*
X56200000Y-76000000D02*
G75*
G02*
X56100000Y-76000000I-50000J0D01*
G01*
D17*
X169630000Y-71730000D02*
X169630000Y-78270000D01*
X169630000Y-78270000D02*
X172370000Y-78270000D01*
X171000000Y-70960000D02*
X171000000Y-71730000D01*
X171000000Y-79040000D02*
X171000000Y-78270000D01*
X172370000Y-71730000D02*
X169630000Y-71730000D01*
X172370000Y-78270000D02*
X172370000Y-71730000D01*
X209820000Y-46850000D02*
X213420000Y-46850000D01*
X209263600Y-43901193D02*
G75*
G02*
X211620000Y-42400000I2356400J-1098807D01*
G01*
X209820000Y-46850000D02*
G75*
G02*
X209295816Y-46122795I1800000J1850000D01*
G01*
X211620000Y-42400000D02*
G75*
G02*
X213976400Y-43901193I0J-2600000D01*
G01*
X213944184Y-46122795D02*
G75*
G02*
X213420000Y-46850000I-2324184J1122795D01*
G01*
D11*
X166650000Y-131700000D02*
X166650000Y-126000000D01*
X169000000Y-121700000D02*
X181250000Y-121700000D01*
X181250000Y-121700000D02*
X181250000Y-131700000D01*
X181250000Y-131700000D02*
X166650000Y-131700000D01*
D17*
X218630000Y-71650000D02*
X218630000Y-78190000D01*
X218630000Y-78190000D02*
X221370000Y-78190000D01*
X220000000Y-70880000D02*
X220000000Y-71650000D01*
X220000000Y-78960000D02*
X220000000Y-78190000D01*
X221370000Y-71650000D02*
X218630000Y-71650000D01*
X221370000Y-78190000D02*
X221370000Y-71650000D01*
D15*
X33100000Y-101000000D02*
X33100000Y-101000000D01*
X33200000Y-101000000D02*
X33200000Y-101000000D01*
D11*
X33650000Y-96700000D02*
X33650000Y-106700000D01*
X33650000Y-106700000D02*
X51750000Y-106700000D01*
X51750000Y-96700000D02*
X33650000Y-96700000D01*
X51750000Y-106700000D02*
X51750000Y-96700000D01*
D15*
X33100000Y-101000000D02*
G75*
G02*
X33200000Y-101000000I50000J0D01*
G01*
X33200000Y-101000000D02*
G75*
G02*
X33100000Y-101000000I-50000J0D01*
G01*
D17*
X173630000Y-71650000D02*
X173630000Y-78190000D01*
X173630000Y-78190000D02*
X176370000Y-78190000D01*
X175000000Y-70880000D02*
X175000000Y-71650000D01*
X175000000Y-78960000D02*
X175000000Y-78190000D01*
X176370000Y-71650000D02*
X173630000Y-71650000D01*
X176370000Y-78190000D02*
X176370000Y-71650000D01*
X145630000Y-71650000D02*
X145630000Y-78190000D01*
X145630000Y-78190000D02*
X148370000Y-78190000D01*
X147000000Y-70880000D02*
X147000000Y-71650000D01*
X147000000Y-78960000D02*
X147000000Y-78190000D01*
X148370000Y-71650000D02*
X145630000Y-71650000D01*
X148370000Y-78190000D02*
X148370000Y-71650000D01*
D15*
X89300000Y-22000000D02*
X109620000Y-22000000D01*
X89300000Y-34000000D02*
X89300000Y-22000000D01*
X109620000Y-22000000D02*
X109620000Y-34000000D01*
X109620000Y-34000000D02*
X89300000Y-34000000D01*
D11*
X110400000Y-32000000D02*
G75*
G02*
X110300000Y-32000000I-50000J0D01*
G01*
X110300000Y-32000000D02*
G75*
G02*
X110400000Y-32000000I50000J0D01*
G01*
D17*
X194920000Y-111170000D02*
X194764000Y-111170000D01*
X197236000Y-111170000D02*
X197080000Y-111170000D01*
X194920163Y-113771130D02*
G75*
G02*
X194920000Y-111689039I1079837J1041130D01*
G01*
X194921392Y-114402335D02*
G75*
G02*
X194764484Y-111170000I1078608J1672335D01*
G01*
X197080000Y-111689039D02*
G75*
G02*
X197079837Y-113771130I-1080000J-1040961D01*
G01*
X197235516Y-111170000D02*
G75*
G02*
X197078608Y-114402335I-1235516J-1560000D01*
G01*
X193300000Y-33830000D02*
X193300000Y-38670000D01*
X196540000Y-33830000D02*
X193300000Y-33830000D01*
X196540000Y-33830000D02*
X196540000Y-38670000D01*
X196540000Y-38670000D02*
X193300000Y-38670000D01*
X146935000Y-117015000D02*
X160905000Y-117015000D01*
X146935000Y-130985000D02*
X146935000Y-117015000D01*
X160905000Y-117015000D02*
X160905000Y-130985000D01*
X160905000Y-130985000D02*
X146935000Y-130985000D01*
X106935000Y-117015000D02*
X120905000Y-117015000D01*
X106935000Y-130985000D02*
X106935000Y-117015000D01*
X120905000Y-117015000D02*
X120905000Y-130985000D01*
X120905000Y-130985000D02*
X106935000Y-130985000D01*
D15*
X33100000Y-119000000D02*
X33100000Y-119000000D01*
X33200000Y-119000000D02*
X33200000Y-119000000D01*
D11*
X34170000Y-111050000D02*
X50670000Y-111050000D01*
X34170000Y-132400000D02*
X34170000Y-111050000D01*
X50670000Y-111050000D02*
X50670000Y-132400000D01*
X50670000Y-132400000D02*
X34170000Y-132400000D01*
D15*
X33100000Y-119000000D02*
G75*
G02*
X33200000Y-119000000I50000J0D01*
G01*
X33200000Y-119000000D02*
G75*
G02*
X33100000Y-119000000I-50000J0D01*
G01*
D17*
X199920000Y-111210000D02*
X199764000Y-111210000D01*
X202236000Y-111210000D02*
X202080000Y-111210000D01*
X199920163Y-113811130D02*
G75*
G02*
X199920000Y-111729039I1079837J1041130D01*
G01*
X199921392Y-114442335D02*
G75*
G02*
X199764484Y-111210000I1078608J1672335D01*
G01*
X202080000Y-111729039D02*
G75*
G02*
X202079837Y-113811130I-1080000J-1040961D01*
G01*
X202235516Y-111210000D02*
G75*
G02*
X202078608Y-114442335I-1235516J-1560000D01*
G01*
X150630000Y-71650000D02*
X150630000Y-78190000D01*
X150630000Y-78190000D02*
X153370000Y-78190000D01*
X152000000Y-70880000D02*
X152000000Y-71650000D01*
X152000000Y-78960000D02*
X152000000Y-78190000D01*
X153370000Y-71650000D02*
X150630000Y-71650000D01*
X153370000Y-78190000D02*
X153370000Y-71650000D01*
D15*
X33100000Y-76000000D02*
X33100000Y-76000000D01*
X33200000Y-76000000D02*
X33200000Y-76000000D01*
D11*
X33650000Y-71700000D02*
X33650000Y-81700000D01*
X33650000Y-81700000D02*
X51750000Y-81700000D01*
X51750000Y-71700000D02*
X33650000Y-71700000D01*
X51750000Y-81700000D02*
X51750000Y-71700000D01*
D15*
X33100000Y-76000000D02*
G75*
G02*
X33200000Y-76000000I50000J0D01*
G01*
X33200000Y-76000000D02*
G75*
G02*
X33100000Y-76000000I-50000J0D01*
G01*
D17*
X214630000Y-71650000D02*
X214630000Y-78190000D01*
X214630000Y-78190000D02*
X217370000Y-78190000D01*
X216000000Y-70880000D02*
X216000000Y-71650000D01*
X216000000Y-78960000D02*
X216000000Y-78190000D01*
X217370000Y-71650000D02*
X214630000Y-71650000D01*
X217370000Y-78190000D02*
X217370000Y-71650000D01*
X126935000Y-117015000D02*
X140905000Y-117015000D01*
X126935000Y-130985000D02*
X126935000Y-117015000D01*
X140905000Y-117015000D02*
X140905000Y-130985000D01*
X140905000Y-130985000D02*
X126935000Y-130985000D01*
%LPC*%
D18*
X133920000Y-107000000D03*
D19*
X59000000Y-101000000D03*
D20*
X62500000Y-101000000D03*
X66000000Y-101000000D03*
X69500000Y-101000000D03*
X73000000Y-101000000D03*
D21*
X181190000Y-35880000D03*
D22*
X181190000Y-38420000D03*
X181190000Y-40960000D03*
X181190000Y-43500000D03*
X181190000Y-46040000D03*
X181190000Y-48580000D03*
X181190000Y-51120000D03*
X188810000Y-51120000D03*
X188810000Y-48580000D03*
X188810000Y-46040000D03*
X188810000Y-43500000D03*
X188810000Y-40960000D03*
X188810000Y-38420000D03*
X188810000Y-35880000D03*
D23*
X30000000Y-30000000D03*
D24*
X192000000Y-69840000D03*
D25*
X192000000Y-80000000D03*
D24*
X179000000Y-69840000D03*
D25*
X179000000Y-80000000D03*
D26*
X88920000Y-124000000D03*
D27*
X94000000Y-124000000D03*
D26*
X99080000Y-124000000D03*
D28*
X96540000Y-118920000D03*
X90190000Y-121460000D03*
D29*
X161420000Y-61500000D03*
D30*
X158880000Y-61500000D03*
X156340000Y-61500000D03*
D29*
X209080000Y-62000000D03*
D30*
X211620000Y-62000000D03*
X214160000Y-62000000D03*
D24*
X198920000Y-38500000D03*
D25*
X209080000Y-38500000D03*
D24*
X157000000Y-80000000D03*
D25*
X157000000Y-69840000D03*
D31*
X60000000Y-119000000D03*
D32*
X60000000Y-127200000D03*
X65000000Y-119000000D03*
X65000000Y-127200000D03*
X70000000Y-119000000D03*
X70000000Y-127200000D03*
D33*
X156420000Y-34990000D03*
D34*
X156420000Y-37530000D03*
D24*
X194920000Y-61000000D03*
D25*
X205080000Y-61000000D03*
D23*
X30000000Y-140000000D03*
D24*
X204000000Y-80000000D03*
D25*
X204000000Y-69840000D03*
D24*
X142000000Y-80000000D03*
D25*
X142000000Y-69840000D03*
D35*
X175420000Y-51500000D03*
X175420000Y-54000000D03*
D24*
X208000000Y-80000000D03*
D25*
X208000000Y-69840000D03*
D33*
X213920000Y-52000000D03*
D34*
X213920000Y-54540000D03*
D35*
X194920000Y-52000000D03*
X194920000Y-54500000D03*
D36*
X112920000Y-98000000D03*
D37*
X115460000Y-98000000D03*
D24*
X176080000Y-61000000D03*
D25*
X165920000Y-61000000D03*
D38*
X170000000Y-119000000D03*
D25*
X172540000Y-119000000D03*
X175080000Y-119000000D03*
X177620000Y-119000000D03*
X177620000Y-111380000D03*
X175080000Y-111380000D03*
X172540000Y-111380000D03*
X170000000Y-111380000D03*
D39*
X126000000Y-58920000D03*
D40*
X126000000Y-61460000D03*
X126000000Y-64000000D03*
D19*
X36000000Y-51000000D03*
D20*
X39500000Y-51000000D03*
X43000000Y-51000000D03*
X46500000Y-51000000D03*
X50000000Y-51000000D03*
D24*
X171580000Y-55500000D03*
D25*
X161420000Y-55500000D03*
D36*
X152920000Y-98000000D03*
D37*
X155460000Y-98000000D03*
D33*
X156420000Y-51985000D03*
D34*
X156420000Y-54525000D03*
D24*
X209080000Y-34500000D03*
D25*
X198920000Y-34500000D03*
D36*
X206000000Y-111460000D03*
D37*
X206000000Y-114000000D03*
D18*
X113920000Y-107000000D03*
D36*
X211000000Y-111460000D03*
D37*
X211000000Y-114000000D03*
D24*
X175920000Y-44500000D03*
D25*
X165760000Y-44500000D03*
D24*
X196000000Y-69840000D03*
D25*
X196000000Y-80000000D03*
D24*
X161420000Y-51525000D03*
D25*
X171580000Y-51525000D03*
D23*
X220000000Y-140000000D03*
D24*
X209080000Y-51500000D03*
D25*
X198920000Y-51500000D03*
D24*
X183000000Y-69840000D03*
D25*
X183000000Y-80000000D03*
D35*
X175420000Y-35000000D03*
X175420000Y-37500000D03*
D39*
X126000000Y-38920000D03*
D40*
X126000000Y-41460000D03*
X126000000Y-44000000D03*
D29*
X161420000Y-45000000D03*
D30*
X158880000Y-45000000D03*
X156340000Y-45000000D03*
D19*
X196000000Y-126000000D03*
D20*
X201000000Y-126000000D03*
X206000000Y-126000000D03*
X211000000Y-126000000D03*
D24*
X171580000Y-38500000D03*
D25*
X161420000Y-38500000D03*
D24*
X200000000Y-80000000D03*
D25*
X200000000Y-69840000D03*
D23*
X120000000Y-82000000D03*
D36*
X132920000Y-98000000D03*
D37*
X135460000Y-98000000D03*
D18*
X153920000Y-107000000D03*
D24*
X198920000Y-55500000D03*
D25*
X209080000Y-55500000D03*
D24*
X212000000Y-80000000D03*
D25*
X212000000Y-69840000D03*
D24*
X194920000Y-44000000D03*
D25*
X205080000Y-44000000D03*
D18*
X93920000Y-107000000D03*
D33*
X213920000Y-34500000D03*
D34*
X213920000Y-37040000D03*
D38*
X196000000Y-105000000D03*
D25*
X198540000Y-105000000D03*
X201080000Y-105000000D03*
X203620000Y-105000000D03*
X203620000Y-97380000D03*
X201080000Y-97380000D03*
X198540000Y-97380000D03*
X196000000Y-97380000D03*
D36*
X93000000Y-98000000D03*
D37*
X95540000Y-98000000D03*
D24*
X161420000Y-34500000D03*
D25*
X171580000Y-34500000D03*
D19*
X59000000Y-76000000D03*
D20*
X62500000Y-76000000D03*
X66000000Y-76000000D03*
X69500000Y-76000000D03*
X73000000Y-76000000D03*
D24*
X171000000Y-69920000D03*
D25*
X171000000Y-80080000D03*
D29*
X209080000Y-45000000D03*
D30*
X211620000Y-45000000D03*
X214160000Y-45000000D03*
D36*
X169000000Y-126000000D03*
D37*
X172500000Y-126000000D03*
X176000000Y-126000000D03*
X179500000Y-126000000D03*
D24*
X220000000Y-69840000D03*
D25*
X220000000Y-80000000D03*
D19*
X36000000Y-101000000D03*
D20*
X39500000Y-101000000D03*
X43000000Y-101000000D03*
X46500000Y-101000000D03*
X50000000Y-101000000D03*
D24*
X175000000Y-69840000D03*
D25*
X175000000Y-80000000D03*
D24*
X147000000Y-80000000D03*
D25*
X147000000Y-69840000D03*
D41*
X102000000Y-32000000D03*
D42*
X96920000Y-32000000D03*
D43*
X107080000Y-29500000D03*
X91840000Y-29500000D03*
D36*
X196000000Y-111460000D03*
D37*
X196000000Y-114000000D03*
D35*
X194920000Y-35000000D03*
X194920000Y-37500000D03*
D26*
X148840000Y-124000000D03*
D27*
X153920000Y-124000000D03*
D26*
X159000000Y-124000000D03*
D28*
X156460000Y-118920000D03*
X150110000Y-121460000D03*
D26*
X108840000Y-124000000D03*
D27*
X113920000Y-124000000D03*
D26*
X119000000Y-124000000D03*
D28*
X116460000Y-118920000D03*
X110110000Y-121460000D03*
D31*
X37000000Y-119000000D03*
D32*
X37000000Y-127200000D03*
X42000000Y-119000000D03*
X42000000Y-127200000D03*
X47000000Y-119000000D03*
X47000000Y-127200000D03*
D36*
X201000000Y-111500000D03*
D37*
X201000000Y-114040000D03*
D24*
X152000000Y-80000000D03*
D25*
X152000000Y-69840000D03*
D19*
X36000000Y-76000000D03*
D20*
X39500000Y-76000000D03*
X43000000Y-76000000D03*
X46500000Y-76000000D03*
X50000000Y-76000000D03*
D24*
X216000000Y-69840000D03*
D25*
X216000000Y-80000000D03*
D26*
X128840000Y-124000000D03*
D27*
X133920000Y-124000000D03*
D26*
X139000000Y-124000000D03*
D28*
X136460000Y-118920000D03*
X130110000Y-121460000D03*
D23*
X220000000Y-30000000D03*
%LPD*%
M02*
