M48
; DRILL file {KiCad 8.0.5} date 2024-11-26T19:37:29+0200
; FORMAT={-:-/ absolute / metric / decimal}
; #@! TF.CreationDate,2024-11-26T19:37:29+02:00
; #@! TF.GenerationSoftware,Kicad,Pcbnew,8.0.5
; #@! TF.FileFunction,NonPlated,1,4,NPTH
FMAT,2
METRIC
; #@! TA.AperFunction,NonPlated,NPTH,ComponentDrill
T1C1.700
; #@! TA.AperFunction,NonPlated,NPTH,ComponentDrill
T2C3.200
; #@! TA.AperFunction,NonPlated,NPTH,ComponentDrill
T3C4.000
; #@! TA.AperFunction,NonPlated,NPTH,ComponentDrill
T4C6.350
%
G90
G05
T1
X88.92Y-124.0
X99.08Y-124.0
X108.84Y-124.0
X119.0Y-124.0
X128.84Y-124.0
X139.0Y-124.0
X148.84Y-124.0
X159.0Y-124.0
T2
X30.0Y-30.0
X30.0Y-140.0
X120.0Y-82.0
X220.0Y-30.0
X220.0Y-140.0
T3
X94.0Y-124.0
X113.92Y-124.0
X133.92Y-124.0
X153.92Y-124.0
T4
X93.92Y-107.0
X113.92Y-107.0
X133.92Y-107.0
X153.92Y-107.0
M30
